AnekDevanagari-Thin.ufo
<glyph name="quotedbl" format="2">
  <advance width="592"/>
  <unicode hex="0022"/>
  <outline>
    <contour>
      <point x="172" y="1329" type="line"/>
      <point x="132" y="1329" type="line"/>
      <point x="137" y="871" type="line"/>
      <point x="168" y="871" type="line"/>
    </contour>
    <contour>
      <point x="460" y="1329" type="line"/>
      <point x="420" y="1329" type="line"/>
      <point x="425" y="871" type="line"/>
      <point x="456" y="871" type="line"/>
    </contour>
  </outline>
</glyph>
<glyph name="T" format="2">
  <advance width="1009"/>
  <unicode hex="0054"/>
  <anchor x="505" y="0" name="bottom"/>
  <anchor x="505" y="639" name="center"/>
  <anchor x="505" y="1278" name="top"/>
  <outline>
    <contour>
      <point x="524" y="0" type="line"/>
      <point x="524" y="1278" type="line"/>
      <point x="485" y="1278" type="line"/>
      <point x="485" y="0" type="line"/>
    </contour>
    <contour>
      <point x="933" y="1244" type="line"/>
      <point x="933" y="1278" type="line"/>
      <point x="76" y="1278" type="line"/>
      <point x="76" y="1244" type="line"/>
    </contour>
  </outline>
</glyph>
<glyph name="U" format="2">
  <advance width="1170"/>
  <unicode hex="0055"/>
  <anchor x="585" y="0" name="bottom"/>
  <anchor x="779" y="5" name="ogonek"/>
  <anchor x="585" y="1278" name="top"/>
  <anchor x="1129" y="1278" name="topright"/>
  <outline>
    <contour>
      <point x="585" y="-18" type="curve" smooth="yes"/>
      <point x="860" y="-18"/>
      <point x="996" y="145"/>
      <point x="996" y="435" type="curve" smooth="yes"/>
      <point x="996" y="1278" type="line"/>
      <point x="957" y="1278" type="line"/>
      <point x="957" y="435" type="line" smooth="yes"/>
      <point x="957" y="169"/>
      <point x="839" y="18"/>
      <point x="585" y="18" type="curve" smooth="yes"/>
      <point x="331" y="18"/>
      <point x="213" y="169"/>
      <point x="213" y="435" type="curve" smooth="yes"/>
      <point x="213" y="1278" type="line"/>
      <point x="174" y="1278" type="line"/>
      <point x="174" y="435" type="line" smooth="yes"/>
      <point x="174" y="145"/>
      <point x="309" y="-18"/>
    </contour>
  </outline>
</glyph>
<glyph name="asciicircum" format="2">
  <advance width="792"/>
  <unicode hex="005E"/>
  <outline>
    <contour>
      <point x="85" y="617" type="line"/>
      <point x="126" y="617" type="line"/>
      <point x="387" y="1245" type="line"/>
      <point x="405" y="1245" type="line"/>
      <point x="666" y="617" type="line"/>
      <point x="707" y="617" type="line"/>
      <point x="429" y="1278" type="line"/>
      <point x="363" y="1278" type="line"/>
    </contour>
  </outline>
</glyph>
<glyph name="c" format="2">
  <advance width="852"/>
  <unicode hex="0063"/>
  <anchor x="467" y="0" name="bottom"/>
  <anchor x="467" y="971" name="top"/>
  <outline>
    <contour>
      <point x="481" y="-19" type="curve" smooth="yes"/>
      <point x="625" y="-19"/>
      <point x="713" y="31"/>
      <point x="765" y="77" type="curve"/>
      <point x="771" y="121" type="line"/>
      <point x="709" y="65"/>
      <point x="621" y="16"/>
      <point x="483" y="16" type="curve" smooth="yes"/>
      <point x="266" y="16"/>
      <point x="155" y="150"/>
      <point x="155" y="393" type="curve" smooth="yes"/>
      <point x="155" y="581" type="line" smooth="yes"/>
      <point x="155" y="823"/>
      <point x="267" y="956"/>
      <point x="480" y="956" type="curve" smooth="yes"/>
      <point x="613" y="956"/>
      <point x="701" y="909"/>
      <point x="763" y="852" type="curve"/>
      <point x="758" y="895" type="line"/>
      <point x="709" y="938"/>
      <point x="621" y="990"/>
      <point x="481" y="990" type="curve" smooth="yes"/>
      <point x="241" y="990"/>
      <point x="118" y="845"/>
      <point x="118" y="581" type="curve" smooth="yes"/>
      <point x="118" y="392" type="line" smooth="yes"/>
      <point x="118" y="126"/>
      <point x="241" y="-19"/>
    </contour>
  </outline>
</glyph>
<glyph name="j" format="2">
  <advance width="408"/>
  <unicode hex="006A"/>
  <outline>
    <contour>
      <point x="242" y="0" type="line"/>
      <point x="242" y="971" type="line"/>
      <point x="205" y="971" type="line"/>
      <point x="205" y="0" type="line"/>
    </contour>
    <contour>
      <point x="224" y="1189" type="curve" smooth="yes"/>
      <point x="252" y="1189"/>
      <point x="266" y="1207"/>
      <point x="266" y="1244" type="curve" smooth="yes"/>
      <point x="266" y="1253" type="line" smooth="yes"/>
      <point x="266" y="1289"/>
      <point x="252" y="1307"/>
      <point x="224" y="1307" type="curve" smooth="yes"/>
      <point x="196" y="1307"/>
      <point x="181" y="1289"/>
      <point x="181" y="1253" type="curve" smooth="yes"/>
      <point x="181" y="1244" type="line" smooth="yes"/>
      <point x="181" y="1207"/>
      <point x="196" y="1189"/>
    </contour>
    <contour>
      <point x="14" y="-354" type="curve" smooth="yes"/>
      <point x="180" y="-354"/>
      <point x="242" y="-263"/>
      <point x="242" y="-92" type="curve" smooth="yes"/>
      <point x="242" y="316" type="line"/>
      <point x="205" y="316" type="line"/>
      <point x="205" y="-91" type="line" smooth="yes"/>
      <point x="205" y="-242"/>
      <point x="157" y="-319"/>
      <point x="18" y="-319" type="curve" smooth="yes"/>
      <point x="-37" y="-319"/>
      <point x="-87" y="-307"/>
      <point x="-134" y="-283" type="curve"/>
      <point x="-128" y="-323" type="line"/>
      <point x="-93" y="-340"/>
      <point x="-41" y="-354"/>
    </contour>
  </outline>
</glyph>
<glyph name="yen" format="2">
  <advance width="1081"/>
  <unicode hex="00A5"/>
  <anchor x="537" y="0" name="bottom"/>
  <anchor x="537" y="1278" name="top"/>
  <anchor x="43" y="1278" name="topleft"/>
  <outline>
    <contour>
      <point x="943" y="611" type="line"/>
      <point x="950" y="644" type="line"/>
      <point x="655" y="644" type="line"/>
      <point x="638" y="611" type="line"/>
    </contour>
    <contour>
      <point x="132" y="289" type="line"/>
      <point x="943" y="289" type="line"/>
      <point x="950" y="322" type="line"/>
      <point x="139" y="322" type="line"/>
    </contour>
    <contour>
      <point x="139" y="644" type="line"/>
      <point x="132" y="611" type="line"/>
      <point x="440" y="611" type="line"/>
      <point x="422" y="644" type="line"/>
    </contour>
    <contour>
      <point x="554" y="427" type="line"/>
      <point x="990" y="1278" type="line"/>
      <point x="947" y="1278" type="line"/>
      <point x="653" y="702" type="line"/>
      <point x="542" y="485" type="line"/>
      <point x="531" y="485" type="line"/>
      <point x="420" y="702" type="line"/>
      <point x="126" y="1278" type="line"/>
      <point x="83" y="1278" type="line"/>
      <point x="519" y="427" type="line"/>
    </contour>
    <contour>
      <point x="556" y="0" type="line"/>
      <point x="556" y="471" type="line"/>
      <point x="517" y="471" type="line"/>
      <point x="517" y="0" type="line"/>
    </contour>
  </outline>
</glyph>
<glyph name="ordfeminine" format="2">
  <advance width="664"/>
  <unicode hex="00AA"/>
  <outline>
    <contour>
      <point x="538" y="644" type="line"/>
      <point x="538" y="1073" type="line" smooth="yes"/>
      <point x="538" y="1215"/>
      <point x="472" y="1292"/>
      <point x="331" y="1292" type="curve" smooth="yes"/>
      <point x="229" y="1292"/>
      <point x="155" y="1254"/>
      <point x="114" y="1221" type="curve"/>
      <point x="111" y="1185" type="line"/>
      <point x="160" y="1224"/>
      <point x="237" y="1260"/>
      <point x="329" y="1260" type="curve" smooth="yes"/>
      <point x="450" y="1260"/>
      <point x="503" y="1193"/>
      <point x="503" y="1073" type="curve" smooth="yes"/>
      <point x="503" y="1016" type="line"/>
      <point x="503" y="803" type="line"/>
      <point x="506" y="799" type="line"/>
      <point x="503" y="644" type="line"/>
    </contour>
    <contour>
      <point x="285" y="632" type="curve" smooth="yes"/>
      <point x="426" y="632"/>
      <point x="504" y="716"/>
      <point x="514" y="815" type="curve"/>
      <point x="523" y="815" type="line"/>
      <point x="506" y="841" type="line"/>
      <point x="491" y="743"/>
      <point x="417" y="664"/>
      <point x="292" y="664" type="curve" smooth="yes"/>
      <point x="182" y="664"/>
      <point x="127" y="719"/>
      <point x="127" y="807" type="curve" smooth="yes"/>
      <point x="127" y="821" type="line" smooth="yes"/>
      <point x="127" y="905"/>
      <point x="170" y="952"/>
      <point x="305" y="973" type="curve" smooth="yes"/>
      <point x="515" y="1005" type="line"/>
      <point x="513" y="1036" type="line"/>
      <point x="299" y="1002" type="line" smooth="yes"/>
      <point x="146" y="978"/>
      <point x="92" y="921"/>
      <point x="92" y="820" type="curve" smooth="yes"/>
      <point x="92" y="805" type="line" smooth="yes"/>
      <point x="92" y="693"/>
      <point x="162" y="632"/>
    </contour>
  </outline>
</glyph>
<glyph name="guillemetleft" format="2">
  <advance width="958"/>
  <unicode hex="00AB"/>
  <outline>
    <contour>
      <point x="875" y="867" type="line"/>
      <point x="829" y="867" type="line"/>
      <point x="515" y="503" type="line"/>
      <point x="515" y="465" type="line"/>
      <point x="829" y="101" type="line"/>
      <point x="875" y="101" type="line"/>
      <point x="547" y="484" type="line"/>
    </contour>
    <contour>
      <point x="467" y="867" type="line"/>
      <point x="421" y="867" type="line"/>
      <point x="107" y="503" type="line"/>
      <point x="107" y="465" type="line"/>
      <point x="421" y="101" type="line"/>
      <point x="467" y="101" type="line"/>
      <point x="139" y="484" type="line"/>
    </contour>
  </outline>
</glyph>
<glyph name="softhyphen" format="2">
  <advance width="872"/>
  <unicode hex="00AD"/>
  <outline>
    <contour>
      <point x="718" y="517" type="line"/>
      <point x="718" y="551" type="line"/>
      <point x="155" y="551" type="line"/>
      <point x="155" y="517" type="line"/>
    </contour>
  </outline>
</glyph>
<glyph name="macron" format="2">
  <advance width="730"/>
  <unicode hex="00AF"/>
  <anchor x="365" y="971" name="_top"/>
  <anchor x="366" y="1275" name="top"/>
  <outline>
    <contour>
      <point x="605" y="1212" type="line"/>
      <point x="605" y="1244" type="line"/>
      <point x="125" y="1244" type="line"/>
      <point x="125" y="1212" type="line"/>
    </contour>
  </outline>
</glyph>
<glyph name="periodcentered" format="2">
  <advance width="307"/>
  <unicode hex="00B7"/>
  <anchor x="154" y="265" name="_top"/>
  <anchor x="153" y="594" name="top"/>
  <outline>
    <contour>
      <point x="153" y="476" type="curve" smooth="yes"/>
      <point x="182" y="476"/>
      <point x="197" y="494"/>
      <point x="197" y="531" type="curve" smooth="yes"/>
      <point x="197" y="537" type="line" smooth="yes"/>
      <point x="197" y="572"/>
      <point x="182" y="590"/>
      <point x="153" y="590" type="curve" smooth="yes"/>
      <point x="125" y="590"/>
      <point x="110" y="572"/>
      <point x="110" y="537" type="curve" smooth="yes"/>
      <point x="110" y="531" type="line" smooth="yes"/>
      <point x="110" y="494"/>
      <point x="125" y="476"/>
    </contour>
  </outline>
</glyph>
<glyph name="onequarter" format="2">
  <advance width="1298"/>
  <unicode hex="00BC"/>
  <outline>
    <contour>
      <point x="294" y="600" type="line"/>
      <point x="294" y="1278" type="line"/>
      <point x="246" y="1278" type="line"/>
      <point x="43" y="1144" type="line"/>
      <point x="42" y="1107" type="line"/>
      <point x="254" y="1245" type="line"/>
      <point x="260" y="1245" type="line"/>
      <point x="260" y="600" type="line"/>
    </contour>
    <contour>
      <point x="229" y="0" type="line"/>
      <point x="1058" y="1278" type="line"/>
      <point x="1017" y="1278" type="line"/>
      <point x="188" y="0" type="line"/>
    </contour>
    <contour>
      <point x="1160" y="0" type="line"/>
      <point x="1160" y="678" type="line"/>
      <point x="1086" y="678" type="line"/>
      <point x="730" y="183" type="line"/>
      <point x="730" y="143" type="line"/>
      <point x="1276" y="143" type="line"/>
      <point x="1276" y="173" type="line"/>
      <point x="750" y="173" type="line"/>
      <point x="766" y="156" type="line"/>
      <point x="766" y="178" type="line"/>
      <point x="1106" y="650" type="line"/>
      <point x="1128" y="650" type="line"/>
      <point x="1126" y="508" type="line"/>
      <point x="1126" y="0" type="line"/>
    </contour>
  </outline>
</glyph>
<glyph name="onehalf" format="2">
  <advance width="1424"/>
  <unicode hex="00BD"/>
  <outline>
    <contour>
      <point x="294" y="600" type="line"/>
      <point x="294" y="1278" type="line"/>
      <point x="246" y="1278" type="line"/>
      <point x="43" y="1144" type="line"/>
      <point x="42" y="1107" type="line"/>
      <point x="254" y="1245" type="line"/>
      <point x="260" y="1245" type="line"/>
      <point x="260" y="600" type="line"/>
    </contour>
    <contour>
      <point x="229" y="0" type="line"/>
      <point x="1058" y="1278" type="line"/>
      <point x="1017" y="1278" type="line"/>
      <point x="188" y="0" type="line"/>
    </contour>
    <contour>
      <point x="1361" y="0" type="line"/>
      <point x="1361" y="32" type="line"/>
      <point x="918" y="32" type="line"/>
      <point x="932" y="22" type="line"/>
      <point x="932" y="35" type="line"/>
      <point x="1124" y="187" type="line" smooth="yes"/>
      <point x="1262" y="297"/>
      <point x="1345" y="373"/>
      <point x="1345" y="490" type="curve" smooth="yes"/>
      <point x="1345" y="498" type="line" smooth="yes"/>
      <point x="1345" y="622"/>
      <point x="1268" y="688"/>
      <point x="1127" y="688" type="curve" smooth="yes"/>
      <point x="1038" y="688"/>
      <point x="952" y="653"/>
      <point x="903" y="618" type="curve"/>
      <point x="899" y="583" type="line"/>
      <point x="967" y="627"/>
      <point x="1045" y="656"/>
      <point x="1127" y="656" type="curve" smooth="yes"/>
      <point x="1244" y="656"/>
      <point x="1310" y="605"/>
      <point x="1310" y="498" type="curve" smooth="yes"/>
      <point x="1310" y="491" type="line" smooth="yes"/>
      <point x="1310" y="382"/>
      <point x="1243" y="322"/>
      <point x="1106" y="212" type="curve" smooth="yes"/>
      <point x="894" y="41" type="line"/>
      <point x="894" y="0" type="line"/>
    </contour>
  </outline>
</glyph>
<glyph name="Aacute" format="2">
  <advance width="1097"/>
  <unicode hex="00C1"/>
  <anchor x="549" y="0" name="bottom"/>
  <anchor x="1071" y="0" name="ogonek"/>
  <anchor x="549" y="1585" name="top"/>
  <outline>
    <contour>
      <point x="117" y="0" type="line"/>
      <point x="534" y="1246" type="line"/>
      <point x="561" y="1246" type="line"/>
      <point x="980" y="0" type="line"/>
      <point x="1021" y="0" type="line"/>
      <point x="589" y="1278" type="line"/>
      <point x="506" y="1278" type="line"/>
      <point x="76" y="0" type="line"/>
    </contour>
    <contour>
      <point x="842" y="452" type="line"/>
      <point x="842" y="487" type="line"/>
      <point x="254" y="487" type="line"/>
      <point x="254" y="452" type="line"/>
    </contour>
    <contour>
      <point x="531" y="1419" type="line"/>
      <point x="531" y="1418" type="line"/>
      <point x="576" y="1418" type="line"/>
      <point x="843" y="1645" type="line"/>
      <point x="843" y="1647" type="line"/>
      <point x="791" y="1647" type="line"/>
    </contour>
  </outline>
</glyph>
<glyph name="Atilde" format="2">
  <advance width="1097"/>
  <unicode hex="00C3"/>
  <anchor x="549" y="0" name="bottom"/>
  <anchor x="1071" y="0" name="ogonek"/>
  <anchor x="549" y="1582" name="top"/>
  <outline>
    <contour>
      <point x="117" y="0" type="line"/>
      <point x="534" y="1246" type="line"/>
      <point x="561" y="1246" type="line"/>
      <point x="980" y="0" type="line"/>
      <point x="1021" y="0" type="line"/>
      <point x="589" y="1278" type="line"/>
      <point x="506" y="1278" type="line"/>
      <point x="76" y="0" type="line"/>
    </contour>
    <contour>
      <point x="842" y="452" type="line"/>
      <point x="842" y="487" type="line"/>
      <point x="254" y="487" type="line"/>
      <point x="254" y="452" type="line"/>
    </contour>
    <contour>
      <point x="690" y="1448" type="curve" smooth="yes"/>
      <point x="769" y="1448"/>
      <point x="793" y="1499"/>
      <point x="793" y="1569" type="curve" smooth="yes"/>
      <point x="793" y="1601" type="line"/>
      <point x="761" y="1601" type="line"/>
      <point x="761" y="1571" type="line" smooth="yes"/>
      <point x="761" y="1513"/>
      <point x="742" y="1481"/>
      <point x="691" y="1481" type="curve" smooth="yes"/>
      <point x="597" y="1481"/>
      <point x="515" y="1593"/>
      <point x="407" y="1593" type="curve" smooth="yes"/>
      <point x="328" y="1593"/>
      <point x="304" y="1541"/>
      <point x="304" y="1471" type="curve" smooth="yes"/>
      <point x="304" y="1439" type="line"/>
      <point x="336" y="1439" type="line"/>
      <point x="336" y="1470" type="line" smooth="yes"/>
      <point x="336" y="1528"/>
      <point x="355" y="1560"/>
      <point x="406" y="1560" type="curve" smooth="yes"/>
      <point x="499" y="1560"/>
      <point x="580" y="1448"/>
    </contour>
  </outline>
</glyph>
<glyph name="Adieresis" format="2">
  <advance width="1097"/>
  <unicode hex="00C4"/>
  <anchor x="549" y="0" name="bottom"/>
  <anchor x="1071" y="0" name="ogonek"/>
  <anchor x="549" y="1570" name="top"/>
  <outline>
    <contour>
      <point x="117" y="0" type="line"/>
      <point x="534" y="1246" type="line"/>
      <point x="561" y="1246" type="line"/>
      <point x="980" y="0" type="line"/>
      <point x="1021" y="0" type="line"/>
      <point x="589" y="1278" type="line"/>
      <point x="506" y="1278" type="line"/>
      <point x="76" y="0" type="line"/>
    </contour>
    <contour>
      <point x="842" y="452" type="line"/>
      <point x="842" y="487" type="line"/>
      <point x="254" y="487" type="line"/>
      <point x="254" y="452" type="line"/>
    </contour>
    <contour>
      <point x="416" y="1477" type="curve" smooth="yes"/>
      <point x="445" y="1477"/>
      <point x="459" y="1495"/>
      <point x="459" y="1532" type="curve" smooth="yes"/>
      <point x="459" y="1538" type="line" smooth="yes"/>
      <point x="459" y="1573"/>
      <point x="445" y="1591"/>
      <point x="416" y="1591" type="curve" smooth="yes"/>
      <point x="387" y="1591"/>
      <point x="373" y="1573"/>
      <point x="373" y="1538" type="curve" smooth="yes"/>
      <point x="373" y="1532" type="line" smooth="yes"/>
      <point x="373" y="1495"/>
      <point x="387" y="1477"/>
    </contour>
    <contour>
      <point x="683" y="1477" type="curve" smooth="yes"/>
      <point x="711" y="1477"/>
      <point x="725" y="1495"/>
      <point x="725" y="1532" type="curve" smooth="yes"/>
      <point x="725" y="1538" type="line" smooth="yes"/>
      <point x="725" y="1573"/>
      <point x="711" y="1591"/>
      <point x="683" y="1591" type="curve" smooth="yes"/>
      <point x="654" y="1591"/>
      <point x="640" y="1573"/>
      <point x="640" y="1538" type="curve" smooth="yes"/>
      <point x="640" y="1532" type="line" smooth="yes"/>
      <point x="640" y="1495"/>
      <point x="654" y="1477"/>
    </contour>
  </outline>
</glyph>
<glyph name="Aring" format="2">
  <advance width="1097"/>
  <unicode hex="00C5"/>
  <anchor x="549" y="0" name="bottom"/>
  <anchor x="1071" y="0" name="ogonek"/>
  <anchor x="549" y="1641" name="top"/>
  <outline>
    <contour>
      <point x="117" y="0" type="line"/>
      <point x="534" y="1246" type="line"/>
      <point x="561" y="1246" type="line"/>
      <point x="980" y="0" type="line"/>
      <point x="1021" y="0" type="line"/>
      <point x="589" y="1278" type="line"/>
      <point x="506" y="1278" type="line"/>
      <point x="76" y="0" type="line"/>
    </contour>
    <contour>
      <point x="842" y="452" type="line"/>
      <point x="842" y="487" type="line"/>
      <point x="254" y="487" type="line"/>
      <point x="254" y="452" type="line"/>
    </contour>
    <contour>
      <point x="396" y="1531" type="line"/>
      <point x="396" y="1442"/>
      <point x="454" y="1386"/>
      <point x="548" y="1386" type="curve" smooth="yes"/>
      <point x="641" y="1386"/>
      <point x="699" y="1442"/>
      <point x="699" y="1531" type="curve"/>
      <point x="699" y="1533" type="line"/>
      <point x="699" y="1624"/>
      <point x="641" y="1679"/>
      <point x="548" y="1679" type="curve" smooth="yes"/>
      <point x="454" y="1679"/>
      <point x="396" y="1624"/>
      <point x="396" y="1533" type="curve"/>
    </contour>
    <contour>
      <point x="429" y="1533" type="line"/>
      <point x="429" y="1606"/>
      <point x="472" y="1649"/>
      <point x="548" y="1649" type="curve" smooth="yes"/>
      <point x="624" y="1649"/>
      <point x="667" y="1606"/>
      <point x="667" y="1533" type="curve"/>
      <point x="667" y="1531" type="line"/>
      <point x="667" y="1459"/>
      <point x="624" y="1417"/>
      <point x="548" y="1417" type="curve" smooth="yes"/>
      <point x="472" y="1417"/>
      <point x="429" y="1459"/>
      <point x="429" y="1531" type="curve"/>
    </contour>
  </outline>
</glyph>
<glyph name="Ccedilla" format="2">
  <advance width="995"/>
  <unicode hex="00C7"/>
  <anchor x="572" y="-377" name="bottom"/>
  <anchor x="520" y="1278" name="top"/>
  <outline>
    <contour>
      <point x="551" y="-18" type="curve" smooth="yes"/>
      <point x="710" y="-18"/>
      <point x="824" y="45"/>
      <point x="887" y="101" type="curve"/>
      <point x="892" y="145" type="line"/>
      <point x="810" y="75"/>
      <point x="702" y="19"/>
      <point x="551" y="19" type="curve" smooth="yes"/>
      <point x="295" y="19"/>
      <point x="166" y="176"/>
      <point x="166" y="453" type="curve" smooth="yes"/>
      <point x="166" y="826" type="line" smooth="yes"/>
      <point x="166" y="1105"/>
      <point x="294" y="1260"/>
      <point x="541" y="1260" type="curve" smooth="yes"/>
      <point x="691" y="1260"/>
      <point x="802" y="1200"/>
      <point x="882" y="1134" type="curve"/>
      <point x="876" y="1178" type="line"/>
      <point x="814" y="1232"/>
      <point x="699" y="1296"/>
      <point x="541" y="1296" type="curve" smooth="yes"/>
      <point x="269" y="1296"/>
      <point x="127" y="1126"/>
      <point x="127" y="826" type="curve" smooth="yes"/>
      <point x="127" y="453" type="line" smooth="yes"/>
      <point x="127" y="154"/>
      <point x="269" y="-18"/>
    </contour>
    <contour>
      <point x="504" y="2" type="line"/>
      <point x="487" y="-142" type="line"/>
      <point x="503" y="-143"/>
      <point x="518" y="-144"/>
      <point x="530" y="-145" type="curve" smooth="yes"/>
      <point x="651" y="-154"/>
      <point x="699" y="-179"/>
      <point x="699" y="-251" type="curve" smooth="yes"/>
      <point x="699" y="-254" type="line" smooth="yes"/>
      <point x="699" y="-313"/>
      <point x="653" y="-344"/>
      <point x="557" y="-344" type="curve" smooth="yes"/>
      <point x="502" y="-344"/>
      <point x="452" y="-333"/>
      <point x="411" y="-316" type="curve"/>
      <point x="419" y="-353" type="line"/>
      <point x="452" y="-365"/>
      <point x="505" y="-377"/>
      <point x="558" y="-377" type="curve" smooth="yes"/>
      <point x="671" y="-377"/>
      <point x="734" y="-335"/>
      <point x="734" y="-253" type="curve" smooth="yes"/>
      <point x="734" y="-250" type="line" smooth="yes"/>
      <point x="734" y="-163"/>
      <point x="676" y="-127"/>
      <point x="544" y="-117" type="curve" smooth="yes"/>
      <point x="530" y="-116"/>
      <point x="507" y="-115"/>
      <point x="499" y="-114" type="curve"/>
      <point x="521" y="-133" type="line"/>
      <point x="537" y="2" type="line"/>
    </contour>
  </outline>
</glyph>
<glyph name="Egrave" format="2">
  <advance width="1014"/>
  <unicode hex="00C8"/>
  <anchor x="548" y="0" name="bottom"/>
  <anchor x="950" y="0" name="ogonek"/>
  <anchor x="433" y="1585" name="top"/>
  <anchor x="26" y="1278" name="topleft"/>
  <outline>
    <contour>
      <point x="224" y="0" type="line"/>
      <point x="224" y="1278" type="line"/>
      <point x="185" y="1278" type="line"/>
      <point x="185" y="0" type="line"/>
    </contour>
    <contour>
      <point x="898" y="0" type="line"/>
      <point x="898" y="35" type="line"/>
      <point x="198" y="35" type="line"/>
      <point x="198" y="0" type="line"/>
    </contour>
    <contour>
      <point x="879" y="638" type="line"/>
      <point x="879" y="673" type="line"/>
      <point x="205" y="673" type="line"/>
      <point x="205" y="638" type="line"/>
    </contour>
    <contour>
      <point x="893" y="1243" type="line"/>
      <point x="893" y="1278" type="line"/>
      <point x="196" y="1278" type="line"/>
      <point x="196" y="1243" type="line"/>
    </contour>
    <contour>
      <point x="259" y="1647" type="line"/>
      <point x="259" y="1645" type="line"/>
      <point x="526" y="1418" type="line"/>
      <point x="571" y="1418" type="line"/>
      <point x="571" y="1419" type="line"/>
      <point x="311" y="1647" type="line"/>
    </contour>
  </outline>
</glyph>
<glyph name="Eacute" format="2">
  <advance width="1014"/>
  <unicode hex="00C9"/>
  <anchor x="548" y="0" name="bottom"/>
  <anchor x="950" y="0" name="ogonek"/>
  <anchor x="548" y="1585" name="top"/>
  <anchor x="26" y="1278" name="topleft"/>
  <outline>
    <contour>
      <point x="224" y="0" type="line"/>
      <point x="224" y="1278" type="line"/>
      <point x="185" y="1278" type="line"/>
      <point x="185" y="0" type="line"/>
    </contour>
    <contour>
      <point x="898" y="0" type="line"/>
      <point x="898" y="35" type="line"/>
      <point x="198" y="35" type="line"/>
      <point x="198" y="0" type="line"/>
    </contour>
    <contour>
      <point x="879" y="638" type="line"/>
      <point x="879" y="673" type="line"/>
      <point x="205" y="673" type="line"/>
      <point x="205" y="638" type="line"/>
    </contour>
    <contour>
      <point x="893" y="1243" type="line"/>
      <point x="893" y="1278" type="line"/>
      <point x="196" y="1278" type="line"/>
      <point x="196" y="1243" type="line"/>
    </contour>
    <contour>
      <point x="530" y="1419" type="line"/>
      <point x="530" y="1418" type="line"/>
      <point x="575" y="1418" type="line"/>
      <point x="842" y="1645" type="line"/>
      <point x="842" y="1647" type="line"/>
      <point x="790" y="1647" type="line"/>
    </contour>
  </outline>
</glyph>
<glyph name="Ecircumflex" format="2">
  <advance width="1014"/>
  <unicode hex="00CA"/>
  <anchor x="548" y="0" name="bottom"/>
  <anchor x="950" y="0" name="ogonek"/>
  <anchor x="550" y="1585" name="top"/>
  <anchor x="26" y="1278" name="topleft"/>
  <outline>
    <contour>
      <point x="224" y="0" type="line"/>
      <point x="224" y="1278" type="line"/>
      <point x="185" y="1278" type="line"/>
      <point x="185" y="0" type="line"/>
    </contour>
    <contour>
      <point x="898" y="0" type="line"/>
      <point x="898" y="35" type="line"/>
      <point x="198" y="35" type="line"/>
      <point x="198" y="0" type="line"/>
    </contour>
    <contour>
      <point x="879" y="638" type="line"/>
      <point x="879" y="673" type="line"/>
      <point x="205" y="673" type="line"/>
      <point x="205" y="638" type="line"/>
    </contour>
    <contour>
      <point x="893" y="1243" type="line"/>
      <point x="893" y="1278" type="line"/>
      <point x="196" y="1278" type="line"/>
      <point x="196" y="1243" type="line"/>
    </contour>
    <contour>
      <point x="284" y="1419" type="line"/>
      <point x="284" y="1418" type="line"/>
      <point x="326" y="1418" type="line"/>
      <point x="545" y="1616" type="line"/>
      <point x="551" y="1616" type="line"/>
      <point x="770" y="1418" type="line"/>
      <point x="812" y="1418" type="line"/>
      <point x="812" y="1419" type="line"/>
      <point x="572" y="1647" type="line"/>
      <point x="524" y="1647" type="line"/>
    </contour>
  </outline>
</glyph>
<glyph name="Iacute" format="2">
  <advance width="415"/>
  <unicode hex="00CD"/>
  <anchor x="208" y="0" name="bottom"/>
  <anchor x="279" y="0" name="ogonek"/>
  <anchor x="208" y="1585" name="top"/>
  <anchor x="26" y="1278" name="topleft"/>
  <outline>
    <contour>
      <point x="227" y="1278" type="line"/>
      <point x="188" y="1278" type="line"/>
      <point x="188" y="0" type="line"/>
      <point x="227" y="0" type="line"/>
    </contour>
    <contour>
      <point x="190" y="1419" type="line"/>
      <point x="190" y="1418" type="line"/>
      <point x="235" y="1418" type="line"/>
      <point x="502" y="1645" type="line"/>
      <point x="502" y="1647" type="line"/>
      <point x="450" y="1647" type="line"/>
    </contour>
  </outline>
</glyph>
<glyph name="Icircumflex" format="2">
  <advance width="415"/>
  <unicode hex="00CE"/>
  <anchor x="208" y="0" name="bottom"/>
  <anchor x="279" y="0" name="ogonek"/>
  <anchor x="210" y="1585" name="top"/>
  <anchor x="26" y="1278" name="topleft"/>
  <outline>
    <contour>
      <point x="227" y="1278" type="line"/>
      <point x="188" y="1278" type="line"/>
      <point x="188" y="0" type="line"/>
      <point x="227" y="0" type="line"/>
    </contour>
    <contour>
      <point x="-56" y="1419" type="line"/>
      <point x="-56" y="1418" type="line"/>
      <point x="-14" y="1418" type="line"/>
      <point x="205" y="1616" type="line"/>
      <point x="211" y="1616" type="line"/>
      <point x="430" y="1418" type="line"/>
      <point x="472" y="1418" type="line"/>
      <point x="472" y="1419" type="line"/>
      <point x="232" y="1647" type="line"/>
      <point x="184" y="1647" type="line"/>
    </contour>
  </outline>
</glyph>
<glyph name="Ocircumflex" format="2">
  <advance width="1133"/>
  <unicode hex="00D4"/>
  <anchor x="567" y="0" name="bottom"/>
  <anchor x="567" y="639" name="center"/>
  <anchor x="759" y="5" name="ogonek"/>
  <anchor x="569" y="1585" name="top"/>
  <anchor x="7" y="1278" name="topleft"/>
  <anchor x="896" y="1278" name="topright"/>
  <outline>
    <contour>
      <point x="566" y="-18" type="curve" smooth="yes"/>
      <point x="850" y="-18"/>
      <point x="1006" y="156"/>
      <point x="1006" y="465" type="curve" smooth="yes"/>
      <point x="1006" y="813" type="line" smooth="yes"/>
      <point x="1006" y="1122"/>
      <point x="850" y="1296"/>
      <point x="566" y="1296" type="curve" smooth="yes"/>
      <point x="282" y="1296"/>
      <point x="127" y="1122"/>
      <point x="127" y="813" type="curve" smooth="yes"/>
      <point x="127" y="465" type="line" smooth="yes"/>
      <point x="127" y="156"/>
      <point x="282" y="-18"/>
    </contour>
    <contour>
      <point x="566" y="18" type="curve" smooth="yes"/>
      <point x="304" y="18"/>
      <point x="166" y="180"/>
      <point x="166" y="465" type="curve" smooth="yes"/>
      <point x="166" y="814" type="line" smooth="yes"/>
      <point x="166" y="1099"/>
      <point x="304" y="1260"/>
      <point x="566" y="1260" type="curve" smooth="yes"/>
      <point x="829" y="1260"/>
      <point x="967" y="1099"/>
      <point x="967" y="814" type="curve" smooth="yes"/>
      <point x="967" y="465" type="line" smooth="yes"/>
      <point x="967" y="180"/>
      <point x="829" y="18"/>
    </contour>
    <contour>
      <point x="303" y="1419" type="line"/>
      <point x="303" y="1418" type="line"/>
      <point x="345" y="1418" type="line"/>
      <point x="564" y="1616" type="line"/>
      <point x="570" y="1616" type="line"/>
      <point x="789" y="1418" type="line"/>
      <point x="831" y="1418" type="line"/>
      <point x="831" y="1419" type="line"/>
      <point x="591" y="1647" type="line"/>
      <point x="543" y="1647" type="line"/>
    </contour>
  </outline>
</glyph>
<glyph name="Otilde" format="2">
  <advance width="1133"/>
  <unicode hex="00D5"/>
  <anchor x="567" y="0" name="bottom"/>
  <anchor x="567" y="639" name="center"/>
  <anchor x="759" y="5" name="ogonek"/>
  <anchor x="567" y="1582" name="top"/>
  <anchor x="7" y="1278" name="topleft"/>
  <anchor x="896" y="1278" name="topright"/>
  <outline>
    <contour>
      <point x="566" y="-18" type="curve" smooth="yes"/>
      <point x="850" y="-18"/>
      <point x="1006" y="156"/>
      <point x="1006" y="465" type="curve" smooth="yes"/>
      <point x="1006" y="813" type="line" smooth="yes"/>
      <point x="1006" y="1122"/>
      <point x="850" y="1296"/>
      <point x="566" y="1296" type="curve" smooth="yes"/>
      <point x="282" y="1296"/>
      <point x="127" y="1122"/>
      <point x="127" y="813" type="curve" smooth="yes"/>
      <point x="127" y="465" type="line" smooth="yes"/>
      <point x="127" y="156"/>
      <point x="282" y="-18"/>
    </contour>
    <contour>
      <point x="566" y="18" type="curve" smooth="yes"/>
      <point x="304" y="18"/>
      <point x="166" y="180"/>
      <point x="166" y="465" type="curve" smooth="yes"/>
      <point x="166" y="814" type="line" smooth="yes"/>
      <point x="166" y="1099"/>
      <point x="304" y="1260"/>
      <point x="566" y="1260" type="curve" smooth="yes"/>
      <point x="829" y="1260"/>
      <point x="967" y="1099"/>
      <point x="967" y="814" type="curve" smooth="yes"/>
      <point x="967" y="465" type="line" smooth="yes"/>
      <point x="967" y="180"/>
      <point x="829" y="18"/>
    </contour>
    <contour>
      <point x="708" y="1448" type="curve" smooth="yes"/>
      <point x="787" y="1448"/>
      <point x="811" y="1499"/>
      <point x="811" y="1569" type="curve" smooth="yes"/>
      <point x="811" y="1601" type="line"/>
      <point x="779" y="1601" type="line"/>
      <point x="779" y="1571" type="line" smooth="yes"/>
      <point x="779" y="1513"/>
      <point x="760" y="1481"/>
      <point x="709" y="1481" type="curve" smooth="yes"/>
      <point x="615" y="1481"/>
      <point x="533" y="1593"/>
      <point x="425" y="1593" type="curve" smooth="yes"/>
      <point x="346" y="1593"/>
      <point x="322" y="1541"/>
      <point x="322" y="1471" type="curve" smooth="yes"/>
      <point x="322" y="1439" type="line"/>
      <point x="354" y="1439" type="line"/>
      <point x="354" y="1470" type="line" smooth="yes"/>
      <point x="354" y="1528"/>
      <point x="373" y="1560"/>
      <point x="424" y="1560" type="curve" smooth="yes"/>
      <point x="517" y="1560"/>
      <point x="598" y="1448"/>
    </contour>
  </outline>
</glyph>
<glyph name="Udieresis" format="2">
  <advance width="1170"/>
  <unicode hex="00DC"/>
  <anchor x="585" y="0" name="bottom"/>
  <anchor x="779" y="5" name="ogonek"/>
  <anchor x="585" y="1570" name="top"/>
  <anchor x="1129" y="1278" name="topright"/>
  <outline>
    <contour>
      <point x="585" y="-18" type="curve" smooth="yes"/>
      <point x="860" y="-18"/>
      <point x="996" y="145"/>
      <point x="996" y="435" type="curve" smooth="yes"/>
      <point x="996" y="1278" type="line"/>
      <point x="957" y="1278" type="line"/>
      <point x="957" y="435" type="line" smooth="yes"/>
      <point x="957" y="169"/>
      <point x="839" y="18"/>
      <point x="585" y="18" type="curve" smooth="yes"/>
      <point x="331" y="18"/>
      <point x="213" y="169"/>
      <point x="213" y="435" type="curve" smooth="yes"/>
      <point x="213" y="1278" type="line"/>
      <point x="174" y="1278" type="line"/>
      <point x="174" y="435" type="line" smooth="yes"/>
      <point x="174" y="145"/>
      <point x="309" y="-18"/>
    </contour>
    <contour>
      <point x="452" y="1477" type="curve" smooth="yes"/>
      <point x="481" y="1477"/>
      <point x="495" y="1495"/>
      <point x="495" y="1532" type="curve" smooth="yes"/>
      <point x="495" y="1538" type="line" smooth="yes"/>
      <point x="495" y="1573"/>
      <point x="481" y="1591"/>
      <point x="452" y="1591" type="curve" smooth="yes"/>
      <point x="423" y="1591"/>
      <point x="409" y="1573"/>
      <point x="409" y="1538" type="curve" smooth="yes"/>
      <point x="409" y="1532" type="line" smooth="yes"/>
      <point x="409" y="1495"/>
      <point x="423" y="1477"/>
    </contour>
    <contour>
      <point x="719" y="1477" type="curve" smooth="yes"/>
      <point x="747" y="1477"/>
      <point x="761" y="1495"/>
      <point x="761" y="1532" type="curve" smooth="yes"/>
      <point x="761" y="1538" type="line" smooth="yes"/>
      <point x="761" y="1573"/>
      <point x="747" y="1591"/>
      <point x="719" y="1591" type="curve" smooth="yes"/>
      <point x="690" y="1591"/>
      <point x="676" y="1573"/>
      <point x="676" y="1538" type="curve" smooth="yes"/>
      <point x="676" y="1532" type="line" smooth="yes"/>
      <point x="676" y="1495"/>
      <point x="690" y="1477"/>
    </contour>
  </outline>
</glyph>
<glyph name="acircumflex" format="2">
  <advance width="938"/>
  <unicode hex="00E2"/>
  <anchor x="457" y="0" name="bottom"/>
  <anchor x="839" y="0" name="ogonek"/>
  <anchor x="457" y="1295" name="top"/>
  <outline>
    <contour>
      <point x="792" y="0" type="line"/>
      <point x="792" y="670" type="line" smooth="yes"/>
      <point x="792" y="873"/>
      <point x="688" y="990"/>
      <point x="467" y="990" type="curve" smooth="yes"/>
      <point x="306" y="990"/>
      <point x="194" y="930"/>
      <point x="132" y="882" type="curve"/>
      <point x="127" y="840" type="line"/>
      <point x="206" y="900"/>
      <point x="321" y="956"/>
      <point x="467" y="956" type="curve" smooth="yes"/>
      <point x="663" y="956"/>
      <point x="755" y="855"/>
      <point x="755" y="669" type="curve" smooth="yes"/>
      <point x="755" y="584" type="line"/>
      <point x="755" y="263" type="line"/>
      <point x="758" y="256" type="line"/>
      <point x="754" y="0" type="line"/>
    </contour>
    <contour>
      <point x="400" y="-19" type="curve" smooth="yes"/>
      <point x="628" y="-19"/>
      <point x="751" y="125"/>
      <point x="768" y="284" type="curve"/>
      <point x="780" y="284" type="line"/>
      <point x="761" y="321" type="line"/>
      <point x="734" y="146"/>
      <point x="613" y="14"/>
      <point x="405" y="14" type="curve" smooth="yes"/>
      <point x="230" y="14"/>
      <point x="135" y="94"/>
      <point x="135" y="248" type="curve" smooth="yes"/>
      <point x="135" y="271" type="line" smooth="yes"/>
      <point x="135" y="410"/>
      <point x="218" y="476"/>
      <point x="418" y="505" type="curve" smooth="yes"/>
      <point x="774" y="557" type="line"/>
      <point x="773" y="591" type="line"/>
      <point x="411" y="537" type="line" smooth="yes"/>
      <point x="185" y="503"/>
      <point x="98" y="424"/>
      <point x="98" y="269" type="curve" smooth="yes"/>
      <point x="98" y="246" type="line" smooth="yes"/>
      <point x="98" y="72"/>
      <point x="206" y="-19"/>
    </contour>
    <contour>
      <point x="228" y="1112" type="line"/>
      <point x="228" y="1111" type="line"/>
      <point x="267" y="1111" type="line"/>
      <point x="454" y="1328" type="line"/>
      <point x="460" y="1328" type="line"/>
      <point x="647" y="1111" type="line"/>
      <point x="686" y="1111" type="line"/>
      <point x="686" y="1112" type="line"/>
      <point x="482" y="1360" type="line"/>
      <point x="432" y="1360" type="line"/>
    </contour>
  </outline>
</glyph>
<glyph name="adieresis" format="2">
  <advance width="938"/>
  <unicode hex="00E4"/>
  <anchor x="457" y="0" name="bottom"/>
  <anchor x="839" y="0" name="ogonek"/>
  <anchor x="457" y="1300" name="top"/>
  <outline>
    <contour>
      <point x="792" y="0" type="line"/>
      <point x="792" y="670" type="line" smooth="yes"/>
      <point x="792" y="873"/>
      <point x="688" y="990"/>
      <point x="467" y="990" type="curve" smooth="yes"/>
      <point x="306" y="990"/>
      <point x="194" y="930"/>
      <point x="132" y="882" type="curve"/>
      <point x="127" y="840" type="line"/>
      <point x="206" y="900"/>
      <point x="321" y="956"/>
      <point x="467" y="956" type="curve" smooth="yes"/>
      <point x="663" y="956"/>
      <point x="755" y="855"/>
      <point x="755" y="669" type="curve" smooth="yes"/>
      <point x="755" y="584" type="line"/>
      <point x="755" y="263" type="line"/>
      <point x="758" y="256" type="line"/>
      <point x="754" y="0" type="line"/>
    </contour>
    <contour>
      <point x="400" y="-19" type="curve" smooth="yes"/>
      <point x="628" y="-19"/>
      <point x="751" y="125"/>
      <point x="768" y="284" type="curve"/>
      <point x="780" y="284" type="line"/>
      <point x="761" y="321" type="line"/>
      <point x="734" y="146"/>
      <point x="613" y="14"/>
      <point x="405" y="14" type="curve" smooth="yes"/>
      <point x="230" y="14"/>
      <point x="135" y="94"/>
      <point x="135" y="248" type="curve" smooth="yes"/>
      <point x="135" y="271" type="line" smooth="yes"/>
      <point x="135" y="410"/>
      <point x="218" y="476"/>
      <point x="418" y="505" type="curve" smooth="yes"/>
      <point x="774" y="557" type="line"/>
      <point x="773" y="591" type="line"/>
      <point x="411" y="537" type="line" smooth="yes"/>
      <point x="185" y="503"/>
      <point x="98" y="424"/>
      <point x="98" y="269" type="curve" smooth="yes"/>
      <point x="98" y="246" type="line" smooth="yes"/>
      <point x="98" y="72"/>
      <point x="206" y="-19"/>
    </contour>
    <contour>
      <point x="324" y="1182" type="curve" smooth="yes"/>
      <point x="353" y="1182"/>
      <point x="367" y="1200"/>
      <point x="367" y="1237" type="curve" smooth="yes"/>
      <point x="367" y="1243" type="line" smooth="yes"/>
      <point x="367" y="1278"/>
      <point x="353" y="1296"/>
      <point x="324" y="1296" type="curve" smooth="yes"/>
      <point x="295" y="1296"/>
      <point x="281" y="1278"/>
      <point x="281" y="1243" type="curve" smooth="yes"/>
      <point x="281" y="1237" type="line" smooth="yes"/>
      <point x="281" y="1200"/>
      <point x="295" y="1182"/>
    </contour>
    <contour>
      <point x="591" y="1182" type="curve" smooth="yes"/>
      <point x="619" y="1182"/>
      <point x="633" y="1200"/>
      <point x="633" y="1237" type="curve" smooth="yes"/>
      <point x="633" y="1243" type="line" smooth="yes"/>
      <point x="633" y="1278"/>
      <point x="619" y="1296"/>
      <point x="591" y="1296" type="curve" smooth="yes"/>
      <point x="562" y="1296"/>
      <point x="548" y="1278"/>
      <point x="548" y="1243" type="curve" smooth="yes"/>
      <point x="548" y="1237" type="line" smooth="yes"/>
      <point x="548" y="1200"/>
      <point x="562" y="1182"/>
    </contour>
  </outline>
</glyph>
<glyph name="ccedilla" format="2">
  <advance width="852"/>
  <unicode hex="00E7"/>
  <anchor x="519" y="-377" name="bottom"/>
  <anchor x="467" y="971" name="top"/>
  <outline>
    <contour>
      <point x="481" y="-19" type="curve" smooth="yes"/>
      <point x="625" y="-19"/>
      <point x="713" y="31"/>
      <point x="765" y="77" type="curve"/>
      <point x="771" y="121" type="line"/>
      <point x="709" y="65"/>
      <point x="621" y="16"/>
      <point x="483" y="16" type="curve" smooth="yes"/>
      <point x="266" y="16"/>
      <point x="155" y="150"/>
      <point x="155" y="393" type="curve" smooth="yes"/>
      <point x="155" y="581" type="line" smooth="yes"/>
      <point x="155" y="823"/>
      <point x="267" y="956"/>
      <point x="480" y="956" type="curve" smooth="yes"/>
      <point x="613" y="956"/>
      <point x="701" y="909"/>
      <point x="763" y="852" type="curve"/>
      <point x="758" y="895" type="line"/>
      <point x="709" y="938"/>
      <point x="621" y="990"/>
      <point x="481" y="990" type="curve" smooth="yes"/>
      <point x="241" y="990"/>
      <point x="118" y="845"/>
      <point x="118" y="581" type="curve" smooth="yes"/>
      <point x="118" y="392" type="line" smooth="yes"/>
      <point x="118" y="126"/>
      <point x="241" y="-19"/>
    </contour>
    <contour>
      <point x="451" y="2" type="line"/>
      <point x="434" y="-142" type="line"/>
      <point x="450" y="-143"/>
      <point x="465" y="-144"/>
      <point x="477" y="-145" type="curve" smooth="yes"/>
      <point x="598" y="-154"/>
      <point x="646" y="-179"/>
      <point x="646" y="-251" type="curve" smooth="yes"/>
      <point x="646" y="-254" type="line" smooth="yes"/>
      <point x="646" y="-313"/>
      <point x="600" y="-344"/>
      <point x="504" y="-344" type="curve" smooth="yes"/>
      <point x="449" y="-344"/>
      <point x="399" y="-333"/>
      <point x="358" y="-316" type="curve"/>
      <point x="366" y="-353" type="line"/>
      <point x="399" y="-365"/>
      <point x="452" y="-377"/>
      <point x="505" y="-377" type="curve" smooth="yes"/>
      <point x="618" y="-377"/>
      <point x="681" y="-335"/>
      <point x="681" y="-253" type="curve" smooth="yes"/>
      <point x="681" y="-250" type="line" smooth="yes"/>
      <point x="681" y="-163"/>
      <point x="623" y="-127"/>
      <point x="491" y="-117" type="curve" smooth="yes"/>
      <point x="477" y="-116"/>
      <point x="454" y="-115"/>
      <point x="446" y="-114" type="curve"/>
      <point x="468" y="-133" type="line"/>
      <point x="484" y="2" type="line"/>
    </contour>
  </outline>
</glyph>
<glyph name="egrave" format="2">
  <advance width="950"/>
  <unicode hex="00E8"/>
  <anchor x="489" y="0" name="bottom"/>
  <anchor x="713" y="5" name="ogonek"/>
  <anchor x="367" y="1295" name="top"/>
  <outline>
    <contour>
      <point x="503" y="-19" type="curve" smooth="yes"/>
      <point x="633" y="-19"/>
      <point x="745" y="22"/>
      <point x="824" y="86" type="curve"/>
      <point x="829" y="130" type="line"/>
      <point x="736" y="56"/>
      <point x="630" y="16"/>
      <point x="504" y="16" type="curve" smooth="yes"/>
      <point x="284" y="16"/>
      <point x="155" y="144"/>
      <point x="155" y="362" type="curve" smooth="yes"/>
      <point x="155" y="479" type="line"/>
      <point x="155" y="487" type="line"/>
      <point x="155" y="585" type="line" smooth="yes"/>
      <point x="155" y="830"/>
      <point x="269" y="961"/>
      <point x="483" y="961" type="curve" smooth="yes"/>
      <point x="695" y="961"/>
      <point x="810" y="829"/>
      <point x="810" y="592" type="curve" smooth="yes"/>
      <point x="810" y="556"/>
      <point x="810" y="513"/>
      <point x="810" y="466" type="curve"/>
      <point x="844" y="466" type="line"/>
      <point x="847" y="502"/>
      <point x="847" y="529"/>
      <point x="847" y="559" type="curve" smooth="yes"/>
      <point x="847" y="593" type="line" smooth="yes"/>
      <point x="847" y="848"/>
      <point x="717" y="994"/>
      <point x="483" y="994" type="curve" smooth="yes"/>
      <point x="245" y="994"/>
      <point x="118" y="851"/>
      <point x="118" y="585" type="curve" smooth="yes"/>
      <point x="118" y="361" type="line" smooth="yes"/>
      <point x="118" y="120"/>
      <point x="259" y="-19"/>
    </contour>
    <contour>
      <point x="831" y="466" type="line"/>
      <point x="831" y="499" type="line"/>
      <point x="135" y="499" type="line"/>
      <point x="135" y="466" type="line"/>
    </contour>
    <contour>
      <point x="240" y="1360" type="line"/>
      <point x="240" y="1358" type="line"/>
      <point x="461" y="1111" type="line"/>
      <point x="500" y="1111" type="line"/>
      <point x="500" y="1112" type="line"/>
      <point x="288" y="1360" type="line"/>
    </contour>
  </outline>
</glyph>
<glyph name="igrave" format="2">
  <advance width="372"/>
  <unicode hex="00EC"/>
  <anchor x="186" y="0" name="bottom"/>
  <anchor x="252" y="0" name="ogonek"/>
  <anchor x="71" y="1295" name="top"/>
  <outline>
    <contour>
      <point x="205" y="0" type="line"/>
      <point x="205" y="971" type="line"/>
      <point x="167" y="971" type="line"/>
      <point x="167" y="0" type="line"/>
    </contour>
    <contour>
      <point x="27" y="1360" type="line"/>
      <point x="27" y="1360" type="line"/>
      <point x="165" y="1111" type="line"/>
      <point x="198" y="1111" type="line"/>
      <point x="198" y="1111" type="line"/>
      <point x="69" y="1360" type="line"/>
    </contour>
  </outline>
</glyph>
<glyph name="iacute" format="2">
  <advance width="372"/>
  <unicode hex="00ED"/>
  <anchor x="186" y="0" name="bottom"/>
  <anchor x="252" y="0" name="ogonek"/>
  <anchor x="191" y="1295" name="top"/>
  <outline>
    <contour>
      <point x="205" y="0" type="line"/>
      <point x="205" y="971" type="line"/>
      <point x="167" y="971" type="line"/>
      <point x="167" y="0" type="line"/>
    </contour>
    <contour>
      <point x="174" y="1111" type="line"/>
      <point x="174" y="1111" type="line"/>
      <point x="207" y="1111" type="line"/>
      <point x="345" y="1360" type="line"/>
      <point x="345" y="1360" type="line"/>
      <point x="303" y="1360" type="line"/>
    </contour>
  </outline>
</glyph>
<glyph name="idieresis" format="2">
  <advance width="372"/>
  <unicode hex="00EF"/>
  <anchor x="186" y="0" name="bottom"/>
  <anchor x="252" y="0" name="ogonek"/>
  <anchor x="186" y="1300" name="top"/>
  <outline>
    <contour>
      <point x="205" y="0" type="line"/>
      <point x="205" y="971" type="line"/>
      <point x="167" y="971" type="line"/>
      <point x="167" y="0" type="line"/>
    </contour>
    <contour>
      <point x="81" y="1182" type="curve" smooth="yes"/>
      <point x="109" y="1182"/>
      <point x="124" y="1200"/>
      <point x="124" y="1237" type="curve" smooth="yes"/>
      <point x="124" y="1243" type="line" smooth="yes"/>
      <point x="124" y="1278"/>
      <point x="109" y="1296"/>
      <point x="81" y="1296" type="curve" smooth="yes"/>
      <point x="52" y="1296"/>
      <point x="38" y="1278"/>
      <point x="38" y="1243" type="curve" smooth="yes"/>
      <point x="38" y="1237" type="line" smooth="yes"/>
      <point x="38" y="1200"/>
      <point x="52" y="1182"/>
    </contour>
    <contour>
      <point x="292" y="1182" type="curve" smooth="yes"/>
      <point x="321" y="1182"/>
      <point x="335" y="1200"/>
      <point x="335" y="1237" type="curve" smooth="yes"/>
      <point x="335" y="1243" type="line" smooth="yes"/>
      <point x="335" y="1278"/>
      <point x="321" y="1296"/>
      <point x="292" y="1296" type="curve" smooth="yes"/>
      <point x="263" y="1296"/>
      <point x="249" y="1278"/>
      <point x="249" y="1243" type="curve" smooth="yes"/>
      <point x="249" y="1237" type="line" smooth="yes"/>
      <point x="249" y="1200"/>
      <point x="263" y="1182"/>
    </contour>
  </outline>
</glyph>
<glyph name="otilde" format="2">
  <advance width="998"/>
  <unicode hex="00F5"/>
  <anchor x="499" y="0" name="bottom"/>
  <anchor x="508" y="307" name="center"/>
  <anchor x="691" y="0" name="ogonek"/>
  <anchor x="499" y="1290" name="top"/>
  <anchor x="823" y="971" name="topright"/>
  <outline>
    <contour>
      <point x="499" y="-23" type="curve" smooth="yes"/>
      <point x="747" y="-23"/>
      <point x="880" y="125"/>
      <point x="880" y="395" type="curve" smooth="yes"/>
      <point x="880" y="578" type="line" smooth="yes"/>
      <point x="880" y="847"/>
      <point x="747" y="994"/>
      <point x="499" y="994" type="curve" smooth="yes"/>
      <point x="251" y="994"/>
      <point x="118" y="847"/>
      <point x="118" y="578" type="curve" smooth="yes"/>
      <point x="118" y="395" type="line" smooth="yes"/>
      <point x="118" y="126"/>
      <point x="250" y="-23"/>
    </contour>
    <contour>
      <point x="499" y="10" type="curve" smooth="yes"/>
      <point x="275" y="10"/>
      <point x="155" y="145"/>
      <point x="155" y="395" type="curve" smooth="yes"/>
      <point x="155" y="578" type="line" smooth="yes"/>
      <point x="155" y="826"/>
      <point x="275" y="961"/>
      <point x="499" y="961" type="curve" smooth="yes"/>
      <point x="723" y="961"/>
      <point x="843" y="826"/>
      <point x="843" y="578" type="curve" smooth="yes"/>
      <point x="843" y="395" type="line" smooth="yes"/>
      <point x="843" y="145"/>
      <point x="722" y="10"/>
    </contour>
    <contour>
      <point x="631" y="1151" type="curve" smooth="yes"/>
      <point x="700" y="1151"/>
      <point x="731" y="1193"/>
      <point x="731" y="1278" type="curve" smooth="yes"/>
      <point x="731" y="1307" type="line"/>
      <point x="699" y="1307" type="line"/>
      <point x="699" y="1280" type="line" smooth="yes"/>
      <point x="699" y="1213"/>
      <point x="679" y="1184"/>
      <point x="631" y="1184" type="curve" smooth="yes"/>
      <point x="550" y="1184"/>
      <point x="472" y="1299"/>
      <point x="376" y="1299" type="curve" smooth="yes"/>
      <point x="307" y="1299"/>
      <point x="276" y="1256"/>
      <point x="276" y="1171" type="curve" smooth="yes"/>
      <point x="276" y="1142" type="line"/>
      <point x="307" y="1142" type="line"/>
      <point x="307" y="1170" type="line" smooth="yes"/>
      <point x="307" y="1237"/>
      <point x="328" y="1266"/>
      <point x="376" y="1266" type="curve" smooth="yes"/>
      <point x="456" y="1266"/>
      <point x="533" y="1151"/>
    </contour>
  </outline>
</glyph>
<glyph name="odieresis" format="2">
  <advance width="998"/>
  <unicode hex="00F6"/>
  <anchor x="499" y="0" name="bottom"/>
  <anchor x="508" y="307" name="center"/>
  <anchor x="691" y="0" name="ogonek"/>
  <anchor x="499" y="1300" name="top"/>
  <anchor x="823" y="971" name="topright"/>
  <outline>
    <contour>
      <point x="499" y="-23" type="curve" smooth="yes"/>
      <point x="747" y="-23"/>
      <point x="880" y="125"/>
      <point x="880" y="395" type="curve" smooth="yes"/>
      <point x="880" y="578" type="line" smooth="yes"/>
      <point x="880" y="847"/>
      <point x="747" y="994"/>
      <point x="499" y="994" type="curve" smooth="yes"/>
      <point x="251" y="994"/>
      <point x="118" y="847"/>
      <point x="118" y="578" type="curve" smooth="yes"/>
      <point x="118" y="395" type="line" smooth="yes"/>
      <point x="118" y="126"/>
      <point x="250" y="-23"/>
    </contour>
    <contour>
      <point x="499" y="10" type="curve" smooth="yes"/>
      <point x="275" y="10"/>
      <point x="155" y="145"/>
      <point x="155" y="395" type="curve" smooth="yes"/>
      <point x="155" y="578" type="line" smooth="yes"/>
      <point x="155" y="826"/>
      <point x="275" y="961"/>
      <point x="499" y="961" type="curve" smooth="yes"/>
      <point x="723" y="961"/>
      <point x="843" y="826"/>
      <point x="843" y="578" type="curve" smooth="yes"/>
      <point x="843" y="395" type="line" smooth="yes"/>
      <point x="843" y="145"/>
      <point x="722" y="10"/>
    </contour>
    <contour>
      <point x="366" y="1182" type="curve" smooth="yes"/>
      <point x="395" y="1182"/>
      <point x="409" y="1200"/>
      <point x="409" y="1237" type="curve" smooth="yes"/>
      <point x="409" y="1243" type="line" smooth="yes"/>
      <point x="409" y="1278"/>
      <point x="395" y="1296"/>
      <point x="366" y="1296" type="curve" smooth="yes"/>
      <point x="337" y="1296"/>
      <point x="323" y="1278"/>
      <point x="323" y="1243" type="curve" smooth="yes"/>
      <point x="323" y="1237" type="line" smooth="yes"/>
      <point x="323" y="1200"/>
      <point x="337" y="1182"/>
    </contour>
    <contour>
      <point x="633" y="1182" type="curve" smooth="yes"/>
      <point x="661" y="1182"/>
      <point x="675" y="1200"/>
      <point x="675" y="1237" type="curve" smooth="yes"/>
      <point x="675" y="1243" type="line" smooth="yes"/>
      <point x="675" y="1278"/>
      <point x="661" y="1296"/>
      <point x="633" y="1296" type="curve" smooth="yes"/>
      <point x="604" y="1296"/>
      <point x="590" y="1278"/>
      <point x="590" y="1243" type="curve" smooth="yes"/>
      <point x="590" y="1237" type="line" smooth="yes"/>
      <point x="590" y="1200"/>
      <point x="604" y="1182"/>
    </contour>
  </outline>
</glyph>
<glyph name="ucircumflex" format="2">
  <advance width="1016"/>
  <unicode hex="00FB"/>
  <anchor x="503" y="0" name="bottom"/>
  <anchor x="895" y="0" name="ogonek"/>
  <anchor x="503" y="1295" name="top"/>
  <anchor x="985" y="971" name="topright"/>
  <outline>
    <contour>
      <point x="147" y="971" type="line"/>
      <point x="147" y="349" type="line" smooth="yes"/>
      <point x="147" y="121"/>
      <point x="233" y="-19"/>
      <point x="474" y="-19" type="curve" smooth="yes"/>
      <point x="689" y="-19"/>
      <point x="813" y="120"/>
      <point x="831" y="283" type="curve"/>
      <point x="842" y="283" type="line"/>
      <point x="824" y="321" type="line"/>
      <point x="797" y="143"/>
      <point x="675" y="14"/>
      <point x="476" y="14" type="curve" smooth="yes"/>
      <point x="262" y="14"/>
      <point x="184" y="140"/>
      <point x="184" y="351" type="curve" smooth="yes"/>
      <point x="184" y="971" type="line"/>
    </contour>
    <contour>
      <point x="817" y="971" type="line"/>
      <point x="817" y="254" type="line"/>
      <point x="821" y="254" type="line"/>
      <point x="817" y="0" type="line"/>
      <point x="854" y="0" type="line"/>
      <point x="854" y="971" type="line"/>
    </contour>
    <contour>
      <point x="274" y="1112" type="line"/>
      <point x="274" y="1111" type="line"/>
      <point x="313" y="1111" type="line"/>
      <point x="500" y="1328" type="line"/>
      <point x="506" y="1328" type="line"/>
      <point x="693" y="1111" type="line"/>
      <point x="732" y="1111" type="line"/>
      <point x="732" y="1112" type="line"/>
      <point x="528" y="1360" type="line"/>
      <point x="478" y="1360" type="line"/>
    </contour>
  </outline>
</glyph>
<glyph name="udieresis" format="2">
  <advance width="1016"/>
  <unicode hex="00FC"/>
  <anchor x="503" y="0" name="bottom"/>
  <anchor x="895" y="0" name="ogonek"/>
  <anchor x="503" y="1300" name="top"/>
  <anchor x="985" y="971" name="topright"/>
  <outline>
    <contour>
      <point x="147" y="971" type="line"/>
      <point x="147" y="349" type="line" smooth="yes"/>
      <point x="147" y="121"/>
      <point x="233" y="-19"/>
      <point x="474" y="-19" type="curve" smooth="yes"/>
      <point x="689" y="-19"/>
      <point x="813" y="120"/>
      <point x="831" y="283" type="curve"/>
      <point x="842" y="283" type="line"/>
      <point x="824" y="321" type="line"/>
      <point x="797" y="143"/>
      <point x="675" y="14"/>
      <point x="476" y="14" type="curve" smooth="yes"/>
      <point x="262" y="14"/>
      <point x="184" y="140"/>
      <point x="184" y="351" type="curve" smooth="yes"/>
      <point x="184" y="971" type="line"/>
    </contour>
    <contour>
      <point x="817" y="971" type="line"/>
      <point x="817" y="254" type="line"/>
      <point x="821" y="254" type="line"/>
      <point x="817" y="0" type="line"/>
      <point x="854" y="0" type="line"/>
      <point x="854" y="971" type="line"/>
    </contour>
    <contour>
      <point x="370" y="1182" type="curve" smooth="yes"/>
      <point x="399" y="1182"/>
      <point x="413" y="1200"/>
      <point x="413" y="1237" type="curve" smooth="yes"/>
      <point x="413" y="1243" type="line" smooth="yes"/>
      <point x="413" y="1278"/>
      <point x="399" y="1296"/>
      <point x="370" y="1296" type="curve" smooth="yes"/>
      <point x="341" y="1296"/>
      <point x="327" y="1278"/>
      <point x="327" y="1243" type="curve" smooth="yes"/>
      <point x="327" y="1237" type="line" smooth="yes"/>
      <point x="327" y="1200"/>
      <point x="341" y="1182"/>
    </contour>
    <contour>
      <point x="637" y="1182" type="curve" smooth="yes"/>
      <point x="665" y="1182"/>
      <point x="679" y="1200"/>
      <point x="679" y="1237" type="curve" smooth="yes"/>
      <point x="679" y="1243" type="line" smooth="yes"/>
      <point x="679" y="1278"/>
      <point x="665" y="1296"/>
      <point x="637" y="1296" type="curve" smooth="yes"/>
      <point x="608" y="1296"/>
      <point x="594" y="1278"/>
      <point x="594" y="1243" type="curve" smooth="yes"/>
      <point x="594" y="1237" type="line" smooth="yes"/>
      <point x="594" y="1200"/>
      <point x="608" y="1182"/>
    </contour>
  </outline>
</glyph>
<glyph name="ydieresis" format="2">
  <advance width="939"/>
  <unicode hex="00FF"/>
  <anchor x="639" y="-5" name="bottom"/>
  <anchor x="469" y="1300" name="top"/>
  <outline>
    <contour>
      <point x="458" y="71" type="line"/>
      <point x="110" y="971" type="line"/>
      <point x="69" y="971" type="line"/>
      <point x="432" y="38" type="line"/>
      <point x="483" y="38" type="line"/>
      <point x="473" y="53" type="line"/>
      <point x="320" y="-344" type="line"/>
      <point x="361" y="-344" type="line"/>
      <point x="870" y="971" type="line"/>
      <point x="829" y="971" type="line"/>
      <point x="476" y="62" type="line"/>
      <point x="493" y="71" type="line"/>
    </contour>
    <contour>
      <point x="336" y="1182" type="curve" smooth="yes"/>
      <point x="365" y="1182"/>
      <point x="379" y="1200"/>
      <point x="379" y="1237" type="curve" smooth="yes"/>
      <point x="379" y="1243" type="line" smooth="yes"/>
      <point x="379" y="1278"/>
      <point x="365" y="1296"/>
      <point x="336" y="1296" type="curve" smooth="yes"/>
      <point x="307" y="1296"/>
      <point x="293" y="1278"/>
      <point x="293" y="1243" type="curve" smooth="yes"/>
      <point x="293" y="1237" type="line" smooth="yes"/>
      <point x="293" y="1200"/>
      <point x="307" y="1182"/>
    </contour>
    <contour>
      <point x="603" y="1182" type="curve" smooth="yes"/>
      <point x="631" y="1182"/>
      <point x="645" y="1200"/>
      <point x="645" y="1237" type="curve" smooth="yes"/>
      <point x="645" y="1243" type="line" smooth="yes"/>
      <point x="645" y="1278"/>
      <point x="631" y="1296"/>
      <point x="603" y="1296" type="curve" smooth="yes"/>
      <point x="574" y="1296"/>
      <point x="560" y="1278"/>
      <point x="560" y="1243" type="curve" smooth="yes"/>
      <point x="560" y="1237" type="line" smooth="yes"/>
      <point x="560" y="1200"/>
      <point x="574" y="1182"/>
    </contour>
  </outline>
</glyph>
<glyph name="OE" format="2">
  <advance width="1626"/>
  <unicode hex="0152"/>
  <anchor x="812" y="0" name="bottom"/>
  <anchor x="812" y="1278" name="top"/>
  <outline>
    <contour>
      <point x="566" y="-18" type="curve" smooth="yes"/>
      <point x="850" y="-18"/>
      <point x="1006" y="156"/>
      <point x="1006" y="465" type="curve"/>
      <point x="1006" y="813" type="line"/>
      <point x="1006" y="1122"/>
      <point x="850" y="1296"/>
      <point x="566" y="1296" type="curve" smooth="yes"/>
      <point x="282" y="1296"/>
      <point x="127" y="1122"/>
      <point x="127" y="813" type="curve"/>
      <point x="127" y="465" type="line"/>
      <point x="127" y="156"/>
      <point x="282" y="-18"/>
    </contour>
    <contour>
      <point x="566" y="18" type="curve" smooth="yes"/>
      <point x="304" y="18"/>
      <point x="166" y="180"/>
      <point x="166" y="465" type="curve" smooth="yes"/>
      <point x="166" y="814" type="line" smooth="yes"/>
      <point x="166" y="1099"/>
      <point x="304" y="1260"/>
      <point x="566" y="1260" type="curve" smooth="yes"/>
      <point x="829" y="1260"/>
      <point x="967" y="1099"/>
      <point x="967" y="814" type="curve" smooth="yes"/>
      <point x="967" y="465" type="line" smooth="yes"/>
      <point x="967" y="180"/>
      <point x="829" y="18"/>
    </contour>
    <contour>
      <point x="1510" y="0" type="line"/>
      <point x="1510" y="35" type="line"/>
      <point x="707" y="35" type="line"/>
      <point x="707" y="0" type="line"/>
    </contour>
    <contour>
      <point x="1491" y="638" type="line"/>
      <point x="1491" y="673" type="line"/>
      <point x="987" y="673" type="line"/>
      <point x="987" y="638" type="line"/>
    </contour>
    <contour>
      <point x="1505" y="1243" type="line"/>
      <point x="1505" y="1278" type="line"/>
      <point x="705" y="1278" type="line"/>
      <point x="705" y="1243" type="line"/>
    </contour>
  </outline>
</glyph>
<glyph name="tilde" format="2">
  <advance width="678"/>
  <unicode hex="02DC"/>
  <anchor x="339" y="971" name="_top"/>
  <anchor x="339" y="1290" name="top"/>
  <outline>
    <contour>
      <point x="471" y="1151" type="curve" smooth="yes"/>
      <point x="540" y="1151"/>
      <point x="571" y="1193"/>
      <point x="571" y="1278" type="curve" smooth="yes"/>
      <point x="571" y="1307" type="line"/>
      <point x="539" y="1307" type="line"/>
      <point x="539" y="1280" type="line" smooth="yes"/>
      <point x="539" y="1213"/>
      <point x="519" y="1184"/>
      <point x="471" y="1184" type="curve" smooth="yes"/>
      <point x="390" y="1184"/>
      <point x="312" y="1299"/>
      <point x="216" y="1299" type="curve" smooth="yes"/>
      <point x="147" y="1299"/>
      <point x="116" y="1256"/>
      <point x="116" y="1171" type="curve" smooth="yes"/>
      <point x="116" y="1142" type="line"/>
      <point x="147" y="1142" type="line"/>
      <point x="147" y="1170" type="line" smooth="yes"/>
      <point x="147" y="1237"/>
      <point x="168" y="1266"/>
      <point x="216" y="1266" type="curve" smooth="yes"/>
      <point x="296" y="1266"/>
      <point x="373" y="1151"/>
    </contour>
  </outline>
</glyph>
<glyph name="Chandrabindu.dv" format="2">
  <unicode hex="0901"/>
  <anchor x="-243" y="1241.5" name="_top"/>
  <outline>
    <contour>
      <point x="-242.5" y="1684.5" type="curve" smooth="yes"/>
      <point x="-273.5" y="1684.5"/>
      <point x="-288" y="1707"/>
      <point x="-288" y="1745" type="curve" smooth="yes"/>
      <point x="-288" y="1753.5" type="line" smooth="yes"/>
      <point x="-288" y="1791"/>
      <point x="-273.5" y="1813"/>
      <point x="-242.5" y="1813" type="curve" smooth="yes"/>
      <point x="-211.5" y="1813"/>
      <point x="-197.5" y="1791"/>
      <point x="-197.5" y="1753.5" type="curve" smooth="yes"/>
      <point x="-197.5" y="1745" type="line" smooth="yes"/>
      <point x="-197.5" y="1707"/>
      <point x="-211.5" y="1684.5"/>
    </contour>
    <contour>
      <point x="29" y="1739" type="line"/>
      <point x="29" y="1725"/>
      <point x="29" y="1717"/>
      <point x="29" y="1707.5" type="curve" smooth="yes"/>
      <point x="29" y="1525.5"/>
      <point x="-64.5" y="1442"/>
      <point x="-243" y="1442" type="curve" smooth="yes"/>
      <point x="-417.5" y="1442"/>
      <point x="-512" y="1525.5"/>
      <point x="-512" y="1707.5" type="curve" smooth="yes"/>
      <point x="-512" y="1717"/>
      <point x="-512" y="1725"/>
      <point x="-512" y="1739" type="curve"/>
      <point x="-477.5" y="1739" type="line"/>
      <point x="-477.5" y="1710" type="line" smooth="yes"/>
      <point x="-477.5" y="1545"/>
      <point x="-395" y="1473.5"/>
      <point x="-243" y="1473.5" type="curve" smooth="yes"/>
      <point x="-87" y="1473.5"/>
      <point x="-5.5" y="1545"/>
      <point x="-5.5" y="1710" type="curve" smooth="yes"/>
      <point x="-5.5" y="1739" type="line"/>
    </contour>
  </outline>
  <guideline angle="90" x="-169" y="0"/>
  <guideline angle="0" x="0" y="1262"/>
</glyph>
<glyph name="Bindu.dv" format="2">
  <unicode hex="0902"/>
  <anchor x="-243" y="1241.5" name="_top"/>
  <outline>
    <contour>
      <point x="-243.013" y="1510.5" type="curve" smooth="yes"/>
      <point x="-279.294" y="1510.5"/>
      <point x="-294.5" y="1533"/>
      <point x="-294.5" y="1574" type="curve" smooth="yes"/>
      <point x="-294.5" y="1579" type="line" smooth="yes"/>
      <point x="-294.5" y="1622"/>
      <point x="-279.294" y="1642.5"/>
      <point x="-243.013" y="1642.5" type="curve" smooth="yes"/>
      <point x="-207.187" y="1642.5"/>
      <point x="-191" y="1622"/>
      <point x="-191" y="1579" type="curve" smooth="yes"/>
      <point x="-191" y="1574" type="line" smooth="yes"/>
      <point x="-191" y="1533"/>
      <point x="-206.66" y="1510.5"/>
    </contour>
  </outline>
</glyph>
<glyph name="vowelIi.dv" format="2">
  <advance width="1021"/>
  <unicode hex="0908"/>
  <anchor x="900" y="-230.5" name="bottom3"/>
  <anchor x="805.5" y="1241.5" name="top"/>
  <outline>
    <contour>
      <point x="656.5" y="1221" type="line"/>
      <point x="650" y="1250.5" type="line"/>
      <point x="1025.5" y="1250.5" type="line"/>
      <point x="1032" y="1221" type="line"/>
    </contour>
    <contour>
      <point x="822.5" y="1230.5" type="line"/>
      <point x="822.5" y="974.5" type="line"/>
      <point x="788.5" y="974" type="line"/>
      <point x="788.5" y="1230.5" type="line"/>
    </contour>
    <contour>
      <point x="1049" y="1221" type="line"/>
      <point x="-24" y="1221" type="line"/>
      <point x="-30" y="1251" type="line"/>
      <point x="1043" y="1251" type="line"/>
    </contour>
    <contour>
      <point x="789" y="1232" type="line"/>
      <point x="824" y="1232" type="line"/>
      <point x="824" y="903" type="line"/>
      <point x="789" y="924" type="line"/>
    </contour>
    <contour>
      <point x="667" y="-358" type="line"/>
      <point x="622" y="-358" type="line"/>
      <point x="276" y="39" type="line"/>
      <point x="117" y="123" type="line"/>
      <point x="314" y="47" type="line"/>
      <point x="314" y="39" type="line"/>
      <point x="370.368" y="-20"/>
      <point x="405.289" y="-59.2671"/>
      <point x="467" y="-129" type="curve" smooth="yes"/>
      <point x="667" y="-355" type="line"/>
    </contour>
    <contour>
      <point x="112" y="170" type="line"/>
      <point x="224.233" y="94"/>
      <point x="357.978" y="31"/>
      <point x="524.978" y="31" type="curve" smooth="yes"/>
      <point x="742.962" y="31"/>
      <point x="852" y="113.126"/>
      <point x="852" y="271.469" type="curve" smooth="yes"/>
      <point x="852" y="283.346" type="line" smooth="yes"/>
      <point x="852" y="426.816"/>
      <point x="772.96" y="512"/>
      <point x="563.977" y="512" type="curve" smooth="yes"/>
      <point x="441.734" y="512"/>
      <point x="355.114" y="489"/>
      <point x="265.371" y="448" type="curve"/>
      <point x="182.497" y="510.916"/>
      <point x="142" y="590"/>
      <point x="142" y="679" type="curve" smooth="yes"/>
      <point x="142" y="688" type="line" smooth="yes"/>
      <point x="142" y="863"/>
      <point x="251" y="960"/>
      <point x="525" y="960" type="curve" smooth="yes"/>
      <point x="630" y="960"/>
      <point x="728" y="950"/>
      <point x="824" y="932" type="curve"/>
      <point x="824" y="899" type="line"/>
      <point x="721" y="918"/>
      <point x="629" y="927"/>
      <point x="526" y="927" type="curve" smooth="yes"/>
      <point x="276" y="927"/>
      <point x="178" y="842"/>
      <point x="178" y="687" type="curve" smooth="yes"/>
      <point x="178" y="680" type="line" smooth="yes"/>
      <point x="178" y="595.432"/>
      <point x="214" y="533.967"/>
      <point x="272" y="487" type="curve"/>
      <point x="352.121" y="522"/>
      <point x="445.974" y="546"/>
      <point x="563.974" y="546" type="curve" smooth="yes"/>
      <point x="795.954" y="546"/>
      <point x="888" y="448.857"/>
      <point x="888" y="284.356" type="curve" smooth="yes"/>
      <point x="888" y="270.482" type="line" smooth="yes"/>
      <point x="888" y="86.1697"/>
      <point x="765.963" y="-3"/>
      <point x="525.979" y="-3" type="curve" smooth="yes"/>
      <point x="409.944" y="-3"/>
      <point x="313.304" y="22.4807"/>
      <point x="231.892" y="67.6339" type="curve"/>
      <point x="116.913" y="123" type="line"/>
    </contour>
    <contour>
      <point x="820.5" y="1238.5" type="line"/>
      <point x="780.5" y="1238.5" type="line"/>
      <point x="780.5" y="1246.5" type="line"/>
      <point x="650.5" y="1309.5"/>
      <point x="579" y="1394.5"/>
      <point x="579" y="1534.5" type="curve" smooth="yes"/>
      <point x="579" y="1547" type="line" smooth="yes"/>
      <point x="579" y="1697"/>
      <point x="663" y="1772.5"/>
      <point x="812.5" y="1772.5" type="curve" smooth="yes"/>
      <point x="860" y="1772.5"/>
      <point x="903" y="1766.81"/>
      <point x="943.5" y="1754" type="curve"/>
      <point x="949.5" y="1717.5" type="line"/>
      <point x="900" y="1733.5"/>
      <point x="860" y="1739"/>
      <point x="814" y="1739" type="curve" smooth="yes"/>
      <point x="686" y="1739"/>
      <point x="615" y="1674.5"/>
      <point x="615" y="1545.5" type="curve" smooth="yes"/>
      <point x="615" y="1535.5" type="line" smooth="yes"/>
      <point x="615" y="1404"/>
      <point x="670.5" y="1333"/>
      <point x="820.5" y="1248" type="curve"/>
    </contour>
  </outline>
  <guideline angle="90" x="447" y="0"/>
  <guideline angle="0" x="0" y="-178"/>
  <guideline angle="90" x="731" y="0"/>
  <guideline angle="90" x="893.5" y="0"/>
  <guideline angle="90" x="875.5" y="0"/>
</glyph>
<glyph name="vowelRu.dv" format="2">
  <advance width="1569"/>
  <unicode hex="090B"/>
  <anchor x="1177.5" y="9" name="bottom3"/>
  <anchor x="813" y="30" name="bottom5"/>
  <anchor x="812.5" y="1241.5" name="top"/>
  <outline>
    <contour>
      <point x="1603" y="1221" type="line"/>
      <point x="-27.5" y="1221" type="line"/>
      <point x="-33.5" y="1250.5" type="line"/>
      <point x="1596.5" y="1250.5" type="line"/>
    </contour>
    <contour>
      <point x="1256.5" y="696" type="line"/>
      <point x="1259.5" y="659.5" type="line"/>
      <point x="819.5" y="455.5" type="line"/>
      <point x="816" y="492" type="line"/>
    </contour>
    <contour>
      <point x="1257.5" y="966" type="line"/>
      <point x="1267.5" y="880.337"/>
      <point x="1272.5" y="831.592"/>
      <point x="1282.5" y="745.542" type="curve"/>
      <point x="1257" y="658" type="line"/>
      <point x="1222" y="655" type="line"/>
      <point x="1222" y="966" type="line"/>
    </contour>
    <contour>
      <point x="1062" y="104" type="curve"/>
      <point x="1058" y="143.5" type="line"/>
      <point x="1101.46" y="120.354"/>
      <point x="1145.85" y="108"/>
      <point x="1202" y="108" type="curve" smooth="yes"/>
      <point x="1338.46" y="108"/>
      <point x="1411" y="173.571"/>
      <point x="1411" y="334.429" type="curve" smooth="yes"/>
      <point x="1411" y="356.287" type="line" smooth="yes"/>
      <point x="1411" y="519.885"/>
      <point x="1343.25" y="585.81"/>
      <point x="1233.5" y="654" type="curve"/>
      <point x="1257.5" y="675" type="line"/>
      <point x="1375.21" y="608.078"/>
      <point x="1448" y="522"/>
      <point x="1448" y="357.747" type="curve" smooth="yes"/>
      <point x="1448" y="332.877" type="line" smooth="yes"/>
      <point x="1448" y="154.554"/>
      <point x="1364.6" y="73.5"/>
      <point x="1204" y="73.5" type="curve" smooth="yes"/>
      <point x="1145.89" y="73.5"/>
      <point x="1102.54" y="83"/>
    </contour>
    <contour>
      <point x="831" y="0" type="line"/>
      <point x="796" y="0" type="line"/>
      <point x="796" y="1228" type="line"/>
      <point x="831" y="1228" type="line"/>
    </contour>
    <contour>
      <point x="809" y="450" type="line"/>
      <point x="106" y="111" type="line"/>
      <point x="106" y="151" type="line"/>
      <point x="366" y="276" type="line"/>
      <point x="386" y="281" type="line"/>
      <point x="432" y="308"/>
      <point x="476.042" y="327.889"/>
      <point x="544.429" y="360.659" type="curve" smooth="yes"/>
      <point x="806" y="486" type="line"/>
    </contour>
    <contour>
      <point x="378" y="267" type="line"/>
      <point x="334" y="258" type="line"/>
      <point x="434.706" y="344.217"/>
      <point x="478" y="435.691"/>
      <point x="478" y="613" type="curve" smooth="yes"/>
      <point x="478" y="636" type="line" smooth="yes"/>
      <point x="478" y="834.353"/>
      <point x="413.481" y="912"/>
      <point x="272.762" y="912" type="curve" smooth="yes"/>
      <point x="209.266" y="912"/>
      <point x="151.701" y="891.695"/>
      <point x="92" y="854" type="curve"/>
      <point x="95.9165" y="896" type="line"/>
      <point x="144.831" y="927.019"/>
      <point x="205.536" y="946"/>
      <point x="274.116" y="946" type="curve" smooth="yes"/>
      <point x="438.608" y="946"/>
      <point x="514" y="853.275"/>
      <point x="514" y="639" type="curve" smooth="yes"/>
      <point x="514" y="612" type="line" smooth="yes"/>
      <point x="514" y="427.245"/>
      <point x="459.6" y="331.601"/>
      <point x="378" y="272" type="curve"/>
    </contour>
  </outline>
  <guideline angle="90" x="-256" y="0"/>
  <guideline angle="90" x="-25" y="0"/>
  <guideline angle="90" x="510" y="0"/>
</glyph>
<glyph name="vowelLru.dv" format="2">
  <advance width="1330"/>
  <unicode hex="090C"/>
  <anchor x="1057.5" y="-135" name="bottom3"/>
  <anchor x="954.5" y="1241.5" name="top"/>
  <outline>
    <contour>
      <point x="1198.5" y="567.419" type="line" smooth="yes"/>
      <point x="1198.5" y="427.249"/>
      <point x="1157.2" y="347.893"/>
      <point x="1045.03" y="239.924" type="curve" smooth="yes"/>
      <point x="940.538" y="139.35"/>
      <point x="885.5" y="80.7602"/>
      <point x="885.5" y="-21.0775" type="curve" smooth="yes"/>
      <point x="885.5" y="-129.063"/>
      <point x="954.5" y="-182.5"/>
      <point x="1065.5" y="-182.5" type="curve" smooth="yes"/>
      <point x="1130.5" y="-182.5"/>
      <point x="1182" y="-166.5"/>
      <point x="1232" y="-129" type="curve"/>
      <point x="1228" y="-170.5" type="line"/>
      <point x="1188.11" y="-201.304"/>
      <point x="1134.29" y="-217"/>
      <point x="1065.5" y="-217" type="curve" smooth="yes"/>
      <point x="935.069" y="-217"/>
      <point x="849.5" y="-149.687"/>
      <point x="849.5" y="-22.009" type="curve" smooth="yes"/>
      <point x="849.5" y="87.2051"/>
      <point x="904.89" y="153.623"/>
      <point x="1018.13" y="263.029" type="curve" smooth="yes"/>
      <point x="1123.49" y="364.827"/>
      <point x="1163" y="437.39"/>
      <point x="1163" y="563.327" type="curve" smooth="yes"/>
      <point x="1163" y="581" type="line"/>
      <point x="1198.5" y="584" type="line"/>
    </contour>
    <contour>
      <point x="805.5" y="1221" type="line"/>
      <point x="799" y="1250.5" type="line"/>
      <point x="1174.5" y="1250.5" type="line"/>
      <point x="1181" y="1221" type="line"/>
    </contour>
    <contour>
      <point x="971.5" y="1230.5" type="line"/>
      <point x="971.5" y="974.5" type="line"/>
      <point x="937.5" y="974" type="line"/>
      <point x="937.5" y="1230.5" type="line"/>
    </contour>
    <contour>
      <point x="-27" y="1221" type="line"/>
      <point x="-33.5" y="1251.5" type="line"/>
      <point x="1355.5" y="1251.5" type="line"/>
      <point x="1362" y="1221" type="line"/>
    </contour>
    <contour>
      <point x="972.5" y="1229" type="line"/>
      <point x="972.5" y="888.5" type="line"/>
      <point x="937.5" y="888.5" type="line"/>
      <point x="937.5" y="1229" type="line"/>
    </contour>
    <contour>
      <point x="143.5" y="485.257" type="curve" smooth="yes"/>
      <point x="143.5" y="550" type="line" smooth="yes"/>
      <point x="143.5" y="790.841"/>
      <point x="255.28" y="899.5"/>
      <point x="434.923" y="899.5" type="curve" smooth="yes"/>
      <point x="583.126" y="899.5"/>
      <point x="659.446" y="824"/>
      <point x="672.5" y="691.5" type="curve"/>
      <point x="675.5" y="691.5" type="line"/>
      <point x="690.5" y="824"/>
      <point x="787.533" y="899.5"/>
      <point x="934.427" y="899.5" type="curve" smooth="yes"/>
      <point x="1095.45" y="899.5"/>
      <point x="1198.5" y="799.87"/>
      <point x="1198.5" y="590.025" type="curve" smooth="yes"/>
      <point x="1198.5" y="580" type="line"/>
      <point x="1163" y="576.5" type="line"/>
      <point x="1163" y="588.542" type="line" smooth="yes"/>
      <point x="1163" y="780.905"/>
      <point x="1072.48" y="866"/>
      <point x="934.024" y="866" type="curve" smooth="yes"/>
      <point x="793.596" y="866"/>
      <point x="693.217" y="788.912"/>
      <point x="692" y="618.545" type="curve" smooth="yes"/>
      <point x="690" y="338.5" type="line"/>
      <point x="658" y="338.5" type="line"/>
      <point x="655.991" y="617.563" type="line" smooth="yes"/>
      <point x="654.772" y="786.95"/>
      <point x="576.188" y="865"/>
      <point x="435.978" y="865" type="curve" smooth="yes"/>
      <point x="277.305" y="865"/>
      <point x="180" y="770.945"/>
      <point x="180" y="549" type="curve" smooth="yes"/>
      <point x="180" y="487.205" type="line" smooth="yes"/>
      <point x="180" y="256.062"/>
      <point x="245.5" y="126.027"/>
      <point x="426" y="2.946" type="curve"/>
      <point x="426" y="0" type="line"/>
      <point x="373" y="0" type="line"/>
      <point x="214" y="111.007"/>
      <point x="143.5" y="250.771"/>
    </contour>
  </outline>
  <guideline angle="90" x="697" y="0"/>
  <guideline angle="90" x="880" y="0"/>
</glyph>
<glyph name="vowelChandraE.dv" format="2">
  <advance width="1093"/>
  <unicode hex="090D"/>
  <outline>
    <contour>
      <point x="800" y="1741" type="line"/>
      <point x="800" y="1726.5"/>
      <point x="800" y="1717"/>
      <point x="800" y="1707.5" type="curve" smooth="yes"/>
      <point x="800" y="1525.5"/>
      <point x="711" y="1442"/>
      <point x="540.5" y="1442" type="curve" smooth="yes"/>
      <point x="371" y="1442"/>
      <point x="282.5" y="1525.5"/>
      <point x="282.5" y="1707.5" type="curve" smooth="yes"/>
      <point x="282.5" y="1717"/>
      <point x="282.5" y="1726.5"/>
      <point x="282.5" y="1741" type="curve"/>
      <point x="316.5" y="1741" type="line"/>
      <point x="316.5" y="1737.41"/>
      <point x="316.5" y="1712.08"/>
      <point x="316.5" y="1710" type="curve" smooth="yes"/>
      <point x="316.5" y="1545"/>
      <point x="393.5" y="1473.5"/>
      <point x="540.5" y="1473.5" type="curve" smooth="yes"/>
      <point x="689" y="1473.5"/>
      <point x="765.5" y="1545"/>
      <point x="765.5" y="1710" type="curve" smooth="yes"/>
      <point x="765.5" y="1712.28"/>
      <point x="765.5" y="1738.21"/>
      <point x="765.5" y="1741" type="curve"/>
    </contour>
    <contour>
      <point x="-28.5" y="1221" type="line"/>
      <point x="-34.5" y="1250.5" type="line"/>
      <point x="1119.5" y="1250.5" type="line"/>
      <point x="1126" y="1221" type="line"/>
    </contour>
    <contour>
      <point x="245" y="552.5" type="line" smooth="yes"/>
      <point x="245" y="185.107"/>
      <point x="392.207" y="39.5"/>
      <point x="667" y="39.5" type="curve" smooth="yes"/>
      <point x="743.812" y="39.5"/>
      <point x="812.994" y="51.5"/>
      <point x="878.5" y="81.5" type="curve"/>
      <point x="873" y="44" type="line"/>
      <point x="817.135" y="18.3514"/>
      <point x="744.372" y="6"/>
      <point x="667" y="6" type="curve" smooth="yes"/>
      <point x="374.649" y="6"/>
      <point x="209.5" y="158.161"/>
      <point x="209.5" y="547.5" type="curve" smooth="yes"/>
      <point x="209.5" y="1229" type="line"/>
      <point x="245" y="1229" type="line"/>
    </contour>
    <contour>
      <point x="898.5" y="821.5" type="line" smooth="yes"/>
      <point x="898.5" y="551.5"/>
      <point x="813" y="444"/>
      <point x="614.5" y="444" type="curve" smooth="yes"/>
      <point x="605.5" y="444"/>
      <point x="601" y="444"/>
      <point x="592" y="444" type="curve"/>
      <point x="592" y="477" type="line"/>
      <point x="594.711" y="477"/>
      <point x="607.783" y="477"/>
      <point x="611" y="477" type="curve" smooth="yes"/>
      <point x="792" y="477"/>
      <point x="864" y="573.5"/>
      <point x="864" y="826" type="curve" smooth="yes"/>
      <point x="864" y="1231" type="line"/>
      <point x="898.5" y="1232" type="line"/>
    </contour>
  </outline>
</glyph>
<glyph name="vowelShortE.dv" format="2">
  <advance width="1093"/>
  <unicode hex="090E"/>
  <anchor x="927.5" y="9" name="bottom3"/>
  <anchor x="942.5" y="1241.5" name="top"/>
  <outline>
    <contour>
      <point x="275" y="1767" type="curve" smooth="yes"/>
      <point x="275" y="1633.5"/>
      <point x="331.467" y="1566.7"/>
      <point x="494" y="1565.5" type="curve" smooth="yes"/>
      <point x="629.5" y="1564.5" type="line" smooth="yes"/>
      <point x="825.535" y="1563.05"/>
      <point x="898" y="1472.5"/>
      <point x="898" y="1302" type="curve" smooth="yes"/>
      <point x="898" y="1240.5" type="line"/>
      <point x="864.5" y="1240.5" type="line"/>
      <point x="864.5" y="1302" type="line" smooth="yes"/>
      <point x="864.5" y="1454"/>
      <point x="802.53" y="1530.22"/>
      <point x="627.5" y="1531.5" type="curve" smooth="yes"/>
      <point x="491" y="1532.5" type="line" smooth="yes"/>
      <point x="310.461" y="1533.82"/>
      <point x="242" y="1616.5"/>
      <point x="242" y="1755" type="curve" smooth="yes"/>
      <point x="242" y="1771.5"/>
      <point x="243" y="1785"/>
      <point x="245.5" y="1801" type="curve"/>
      <point x="275" y="1801" type="line"/>
      <point x="275" y="1798.21"/>
      <point x="275" y="1769.86"/>
    </contour>
    <contour>
      <point x="-28.5" y="1221" type="line"/>
      <point x="-34.5" y="1250.5" type="line"/>
      <point x="1119.5" y="1250.5" type="line"/>
      <point x="1126" y="1221" type="line"/>
    </contour>
    <contour>
      <point x="245" y="552.5" type="line" smooth="yes"/>
      <point x="245" y="185.107"/>
      <point x="392.207" y="39.5"/>
      <point x="667" y="39.5" type="curve" smooth="yes"/>
      <point x="743.812" y="39.5"/>
      <point x="812.994" y="51.5"/>
      <point x="878.5" y="81.5" type="curve"/>
      <point x="873" y="44" type="line"/>
      <point x="817.135" y="18.3514"/>
      <point x="744.372" y="6"/>
      <point x="667" y="6" type="curve" smooth="yes"/>
      <point x="374.649" y="6"/>
      <point x="209.5" y="158.161"/>
      <point x="209.5" y="547.5" type="curve" smooth="yes"/>
      <point x="209.5" y="1229" type="line"/>
      <point x="245" y="1229" type="line"/>
    </contour>
    <contour>
      <point x="898.5" y="821.5" type="line" smooth="yes"/>
      <point x="898.5" y="551.5"/>
      <point x="813" y="444"/>
      <point x="614.5" y="444" type="curve" smooth="yes"/>
      <point x="605.5" y="444"/>
      <point x="601" y="444"/>
      <point x="592" y="444" type="curve"/>
      <point x="592" y="477" type="line"/>
      <point x="594.711" y="477"/>
      <point x="607.783" y="477"/>
      <point x="611" y="477" type="curve" smooth="yes"/>
      <point x="792" y="477"/>
      <point x="864" y="573.5"/>
      <point x="864" y="826" type="curve" smooth="yes"/>
      <point x="864" y="1231" type="line"/>
      <point x="898.5" y="1232" type="line"/>
    </contour>
  </outline>
</glyph>
<glyph name="vowelE.dv" format="2">
  <advance width="1093"/>
  <unicode hex="090F"/>
  <anchor x="927.5" y="9" name="bottom3"/>
  <anchor x="570" y="1241.5" name="top"/>
  <outline>
    <contour>
      <point x="-28.5" y="1221" type="line"/>
      <point x="-34.5" y="1250.5" type="line"/>
      <point x="1119.5" y="1250.5" type="line"/>
      <point x="1126" y="1221" type="line"/>
    </contour>
    <contour>
      <point x="245" y="552.5" type="line" smooth="yes"/>
      <point x="245" y="185.107"/>
      <point x="392.207" y="39.5"/>
      <point x="667" y="39.5" type="curve" smooth="yes"/>
      <point x="743.812" y="39.5"/>
      <point x="812.994" y="51.5"/>
      <point x="878.5" y="81.5" type="curve"/>
      <point x="873" y="44" type="line"/>
      <point x="817.135" y="18.3514"/>
      <point x="744.372" y="6"/>
      <point x="667" y="6" type="curve" smooth="yes"/>
      <point x="374.649" y="6"/>
      <point x="209.5" y="158.161"/>
      <point x="209.5" y="547.5" type="curve" smooth="yes"/>
      <point x="209.5" y="1229" type="line"/>
      <point x="245" y="1229" type="line"/>
    </contour>
    <contour>
      <point x="898.5" y="821.5" type="line" smooth="yes"/>
      <point x="898.5" y="551.5"/>
      <point x="813" y="444"/>
      <point x="614.5" y="444" type="curve" smooth="yes"/>
      <point x="605.5" y="444"/>
      <point x="601" y="444"/>
      <point x="592" y="444" type="curve"/>
      <point x="592" y="477" type="line"/>
      <point x="594.711" y="477"/>
      <point x="607.783" y="477"/>
      <point x="611" y="477" type="curve" smooth="yes"/>
      <point x="792" y="477"/>
      <point x="864" y="573.5"/>
      <point x="864" y="826" type="curve" smooth="yes"/>
      <point x="864" y="1231" type="line"/>
      <point x="898.5" y="1232" type="line"/>
    </contour>
  </outline>
</glyph>
<glyph name="Ga.dv" format="2">
  <advance width="1136"/>
  <unicode hex="0917"/>
  <anchor x="892.5" y="9" name="bottom"/>
  <anchor x="886.5" y="9" name="bottom2"/>
  <anchor x="909.5" y="9" name="bottom3"/>
  <anchor x="891.5" y="30" name="bottom5"/>
  <anchor x="891" y="1241.5" name="top"/>
  <outline>
    <contour>
      <point x="909" y="1230" type="line"/>
      <point x="909" y="0" type="line"/>
      <point x="874.5" y="0" type="line"/>
      <point x="874.5" y="1230" type="line"/>
    </contour>
    <contour>
      <point x="736.5" y="1221" type="line"/>
      <point x="730" y="1250.5" type="line"/>
      <point x="1162" y="1250.5" type="line"/>
      <point x="1168.5" y="1221" type="line"/>
    </contour>
    <contour>
      <point x="-24" y="1221" type="line"/>
      <point x="-30.5" y="1250.5" type="line"/>
      <point x="1061" y="1250.5" type="line"/>
      <point x="1067.5" y="1221" type="line"/>
    </contour>
    <contour>
      <point x="305" y="1229" type="line"/>
      <point x="392.901" y="1154.79"/>
      <point x="443" y="1030.85"/>
      <point x="443" y="808.5" type="curve" smooth="yes"/>
      <point x="443" y="776" type="line" smooth="yes"/>
      <point x="443" y="480.134"/>
      <point x="339.427" y="378"/>
      <point x="170.5" y="378" type="curve" smooth="yes"/>
      <point x="129" y="378"/>
      <point x="95" y="384"/>
      <point x="64" y="397.5" type="curve"/>
      <point x="59" y="435" type="line"/>
      <point x="93" y="419"/>
      <point x="129" y="412"/>
      <point x="169" y="412" type="curve" smooth="yes"/>
      <point x="314.645" y="412"/>
      <point x="406.5" y="502.666"/>
      <point x="406.5" y="778.5" type="curve" smooth="yes"/>
      <point x="406.5" y="808" type="line" smooth="yes"/>
      <point x="406.5" y="1027.41"/>
      <point x="361.045" y="1148.85"/>
      <point x="261" y="1229" type="curve"/>
    </contour>
  </outline>
  <guideline angle="0" x="0" y="119"/>
  <guideline angle="90" x="60" y="0"/>
  <guideline angle="90" x="811.5" y="0"/>
  <guideline angle="0" x="0" y="9"/>
  <guideline angle="90" x="816.5" y="0"/>
  <guideline angle="90" x="799.5" y="0"/>
  <guideline angle="0" x="0" y="1262"/>
  <guideline angle="90" x="834.5" y="0"/>
  <guideline angle="0" x="0" y="30"/>
</glyph>
<glyph name="Gha.dv" format="2">
  <advance width="1205"/>
  <unicode hex="0918"/>
  <anchor x="961.5" y="9" name="bottom"/>
  <anchor x="955.5" y="9" name="bottom2"/>
  <anchor x="978.5" y="9" name="bottom3"/>
  <anchor x="960.5" y="30" name="bottom5"/>
  <anchor x="960" y="1241.5" name="top"/>
  <outline>
    <contour>
      <point x="978" y="1230" type="line"/>
      <point x="978" y="0" type="line"/>
      <point x="943.5" y="0" type="line"/>
      <point x="943.5" y="1230" type="line"/>
    </contour>
    <contour>
      <point x="805.5" y="1221" type="line"/>
      <point x="799" y="1250.5" type="line"/>
      <point x="1231" y="1250.5" type="line"/>
      <point x="1237.5" y="1221" type="line"/>
    </contour>
    <contour>
      <point x="-26" y="1221" type="line"/>
      <point x="-32.5" y="1250.5" type="line"/>
      <point x="1130" y="1250.5" type="line"/>
      <point x="1136.5" y="1221" type="line"/>
    </contour>
    <contour>
      <point x="465.5" y="760" type="line"/>
      <point x="244" y="775.615"/>
      <point x="164" y="863.947"/>
      <point x="164" y="1030.38" type="curve" smooth="yes"/>
      <point x="164" y="1036.86" type="line" smooth="yes"/>
      <point x="164" y="1114.39"/>
      <point x="186.632" y="1190.69"/>
      <point x="236.5" y="1232.5" type="curve"/>
      <point x="277.5" y="1232.5" type="line"/>
      <point x="218.708" y="1181.32"/>
      <point x="200.5" y="1109.62"/>
      <point x="200.5" y="1035.88" type="curve" smooth="yes"/>
      <point x="200.5" y="1030.4" type="line" smooth="yes"/>
      <point x="200.5" y="869.41"/>
      <point x="277.884" y="783.257"/>
      <point x="560" y="776.5" type="curve" smooth="yes"/>
      <point x="643.5" y="774.5" type="line"/>
      <point x="643.5" y="742" type="line"/>
      <point x="560" y="740.051" type="line" smooth="yes"/>
      <point x="276.846" y="733.44"/>
      <point x="195" y="654.791"/>
      <point x="195" y="502.161" type="curve" smooth="yes"/>
      <point x="195" y="493.415" type="line" smooth="yes"/>
      <point x="195" y="322.506"/>
      <point x="320" y="240"/>
      <point x="551" y="240" type="curve" smooth="yes"/>
      <point x="782.5" y="240"/>
      <point x="904.5" y="319.5"/>
      <point x="947" y="465" type="curve"/>
      <point x="950.5" y="411.5" type="line"/>
      <point x="947.5" y="411.5" type="line"/>
      <point x="911.593" y="294.877"/>
      <point x="794.395" y="205.5"/>
      <point x="552" y="205.5" type="curve" smooth="yes"/>
      <point x="295.5" y="205.5"/>
      <point x="157.5" y="299.281"/>
      <point x="157.5" y="492.705" type="curve" smooth="yes"/>
      <point x="157.5" y="503.915" type="line" smooth="yes"/>
      <point x="157.5" y="659.464"/>
      <point x="242.5" y="747.154"/>
      <point x="465.5" y="757" type="curve"/>
    </contour>
  </outline>
</glyph>
<glyph name="Nga.dv" format="2">
  <advance width="1172"/>
  <unicode hex="0919"/>
  <anchor x="571.5" y="6.5" name="bottom"/>
  <anchor x="462.5" y="6.5" name="bottom2"/>
  <anchor x="898" y="6.5" name="bottom3"/>
  <anchor x="530" y="27.5" name="bottom5"/>
  <anchor x="805.501" y="1241.5" name="top"/>
  <outline>
    <contour>
      <point x="1075" y="567.5" type="curve" smooth="yes"/>
      <point x="1039" y="567.5"/>
      <point x="1023.5" y="590"/>
      <point x="1023.5" y="632.5" type="curve" smooth="yes"/>
      <point x="1023.5" y="642" type="line" smooth="yes"/>
      <point x="1023.5" y="684"/>
      <point x="1039" y="706.5"/>
      <point x="1075" y="706.5" type="curve" smooth="yes"/>
      <point x="1111" y="706.5"/>
      <point x="1125.5" y="683"/>
      <point x="1125.5" y="642" type="curve" smooth="yes"/>
      <point x="1125.5" y="633" type="line" smooth="yes"/>
      <point x="1125.5" y="590"/>
      <point x="1111" y="567.5"/>
    </contour>
    <contour>
      <point x="1196" y="1221" type="line"/>
      <point x="925" y="1221" type="line"/>
      <point x="918.5" y="1250.5" type="line"/>
      <point x="1189.5" y="1250.5" type="line"/>
    </contour>
    <contour>
      <point x="656.501" y="1221" type="line"/>
      <point x="650.001" y="1250.5" type="line"/>
      <point x="1025.5" y="1250.5" type="line"/>
      <point x="1032" y="1221" type="line"/>
    </contour>
    <contour>
      <point x="822.501" y="1230.5" type="line"/>
      <point x="822.501" y="974.5" type="line"/>
      <point x="788.501" y="974" type="line"/>
      <point x="788.501" y="1230.5" type="line"/>
    </contour>
    <contour>
      <point x="1048" y="1221" type="line"/>
      <point x="-24" y="1221" type="line"/>
      <point x="-30" y="1251" type="line"/>
      <point x="1042" y="1251" type="line"/>
    </contour>
    <contour>
      <point x="789" y="1236" type="line"/>
      <point x="824" y="1236" type="line"/>
      <point x="824" y="899" type="line"/>
      <point x="813" y="904"/>
      <point x="793" y="910"/>
      <point x="789" y="920" type="curve"/>
    </contour>
    <contour>
      <point x="119" y="154" type="line"/>
      <point x="221.233" y="78"/>
      <point x="352.978" y="31"/>
      <point x="524.978" y="31" type="curve" smooth="yes"/>
      <point x="742.962" y="31"/>
      <point x="852" y="113.126"/>
      <point x="852" y="271.469" type="curve" smooth="yes"/>
      <point x="852" y="283.346" type="line" smooth="yes"/>
      <point x="852" y="426.816"/>
      <point x="772.96" y="512"/>
      <point x="563.977" y="512" type="curve" smooth="yes"/>
      <point x="441.734" y="512"/>
      <point x="355.114" y="489"/>
      <point x="265.371" y="448" type="curve"/>
      <point x="182.497" y="510.916"/>
      <point x="142" y="590"/>
      <point x="142" y="679" type="curve" smooth="yes"/>
      <point x="142" y="688" type="line" smooth="yes"/>
      <point x="142" y="863"/>
      <point x="251" y="960"/>
      <point x="525" y="960" type="curve" smooth="yes"/>
      <point x="630" y="960"/>
      <point x="728" y="950"/>
      <point x="824" y="932" type="curve"/>
      <point x="824" y="899" type="line"/>
      <point x="721" y="918"/>
      <point x="629" y="927"/>
      <point x="526" y="927" type="curve" smooth="yes"/>
      <point x="276" y="927"/>
      <point x="178" y="842"/>
      <point x="178" y="687" type="curve" smooth="yes"/>
      <point x="178" y="680" type="line" smooth="yes"/>
      <point x="178" y="595.432"/>
      <point x="214" y="533.967"/>
      <point x="272" y="487" type="curve"/>
      <point x="352.121" y="522"/>
      <point x="445.974" y="546"/>
      <point x="563.974" y="546" type="curve" smooth="yes"/>
      <point x="795.954" y="546"/>
      <point x="888" y="448.857"/>
      <point x="888" y="284.356" type="curve" smooth="yes"/>
      <point x="888" y="270.482" type="line" smooth="yes"/>
      <point x="888" y="86.1697"/>
      <point x="765.963" y="-3"/>
      <point x="525.979" y="-3" type="curve" smooth="yes"/>
      <point x="344.979" y="-3"/>
      <point x="213.304" y="45"/>
      <point x="123.913" y="109" type="curve"/>
    </contour>
  </outline>
</glyph>
<glyph name="Ca.dv" format="2">
  <advance width="1212"/>
  <unicode hex="091A"/>
  <anchor x="969" y="9" name="bottom"/>
  <anchor x="963" y="9" name="bottom2"/>
  <anchor x="986" y="9" name="bottom3"/>
  <anchor x="968" y="30" name="bottom5"/>
  <anchor x="967.5" y="1241.5" name="top"/>
  <outline>
    <contour>
      <point x="985.5" y="1230" type="line"/>
      <point x="985.5" y="0" type="line"/>
      <point x="951" y="0" type="line"/>
      <point x="951" y="1230" type="line"/>
    </contour>
    <contour>
      <point x="813" y="1221" type="line"/>
      <point x="806.5" y="1250.5" type="line"/>
      <point x="1238.5" y="1250.5" type="line"/>
      <point x="1245" y="1221" type="line"/>
    </contour>
    <contour>
      <point x="-27" y="1221" type="line"/>
      <point x="-33.5" y="1250.52" type="line"/>
      <point x="1138" y="1250.52" type="line"/>
      <point x="1144" y="1221" type="line"/>
    </contour>
    <contour>
      <point x="744.5" y="905.5" type="line"/>
      <point x="744.5" y="877.5" type="line"/>
      <point x="501" y="878" type="line"/>
      <point x="321" y="874" type="line"/>
      <point x="50.5" y="874" type="line"/>
      <point x="50.5" y="905.5" type="line"/>
    </contour>
    <contour>
      <point x="602" y="205.5" type="curve" smooth="yes"/>
      <point x="357" y="205.5"/>
      <point x="225" y="317.797"/>
      <point x="225" y="549.769" type="curve" smooth="yes"/>
      <point x="225" y="562.295" type="line" smooth="yes"/>
      <point x="225" y="760.714"/>
      <point x="305" y="855.691"/>
      <point x="466.5" y="879" type="curve"/>
      <point x="466.5" y="891.5" type="line"/>
      <point x="744.5" y="891.5" type="line"/>
      <point x="744.5" y="877.5" type="line"/>
      <point x="591.5" y="871.75" type="line" smooth="yes"/>
      <point x="366.964" y="863.312"/>
      <point x="262" y="787.547"/>
      <point x="262" y="561.267" type="curve" smooth="yes"/>
      <point x="262" y="552.266" type="line" smooth="yes"/>
      <point x="262" y="341.463"/>
      <point x="379" y="240"/>
      <point x="600.5" y="240" type="curve" smooth="yes"/>
      <point x="802" y="240"/>
      <point x="917" y="324"/>
      <point x="954.5" y="475" type="curve"/>
      <point x="958.5" y="418" type="line"/>
      <point x="956" y="418" type="line"/>
      <point x="928" y="301.05"/>
      <point x="817.5" y="205.5"/>
    </contour>
  </outline>
</glyph>
<glyph name="Cha.dv" format="2">
  <advance width="1362"/>
  <unicode hex="091B"/>
  <anchor x="734.5" y="13.5" name="bottom"/>
  <anchor x="643.5" y="13.5" name="bottom2"/>
  <anchor x="1051" y="13.5" name="bottom3"/>
  <anchor x="685" y="-100.5" name="bottom4"/>
  <anchor x="691.5" y="35.5" name="bottom5"/>
  <anchor x="1005" y="1241.5" name="top"/>
  <outline>
    <contour>
      <point x="856" y="1221" type="line"/>
      <point x="849.5" y="1250.5" type="line"/>
      <point x="1225" y="1250.5" type="line"/>
      <point x="1231.5" y="1221" type="line"/>
    </contour>
    <contour>
      <point x="1022" y="1230.5" type="line"/>
      <point x="1022" y="974.5" type="line"/>
      <point x="988" y="974" type="line"/>
      <point x="988" y="1230.5" type="line"/>
    </contour>
    <contour>
      <point x="1377" y="1251" type="line"/>
      <point x="1384" y="1221" type="line"/>
      <point x="-39" y="1221" type="line"/>
      <point x="-45" y="1251" type="line"/>
    </contour>
    <contour>
      <point x="988" y="940" type="line"/>
      <point x="988" y="1232" type="line"/>
      <point x="1023" y="1232" type="line"/>
      <point x="1023" y="940" type="line"/>
    </contour>
    <contour>
      <point x="653.328" y="5" type="curve" smooth="yes"/>
      <point x="334.806" y="5"/>
      <point x="160" y="134.827"/>
      <point x="160" y="379" type="curve" smooth="yes"/>
      <point x="160" y="390" type="line" smooth="yes"/>
      <point x="160" y="560.556"/>
      <point x="232" y="661.21"/>
      <point x="434" y="676" type="curve"/>
      <point x="434" y="679" type="line"/>
      <point x="235" y="701"/>
      <point x="165" y="808"/>
      <point x="165" y="977" type="curve" smooth="yes"/>
      <point x="165" y="992" type="line" smooth="yes"/>
      <point x="165" y="1092"/>
      <point x="192" y="1179"/>
      <point x="254" y="1230" type="curve"/>
      <point x="296" y="1230" type="line"/>
      <point x="223" y="1168"/>
      <point x="202" y="1084.99"/>
      <point x="202" y="990.981" type="curve" smooth="yes"/>
      <point x="202" y="977.981" type="line" smooth="yes"/>
      <point x="202" y="815.97"/>
      <point x="264.708" y="707.092"/>
      <point x="510.604" y="696.19" type="curve" smooth="yes"/>
      <point x="560" y="694" type="line"/>
      <point x="560" y="660" type="line"/>
      <point x="507.601" y="657.823" type="line" smooth="yes"/>
      <point x="263.707" y="647.692"/>
      <point x="197" y="559.42"/>
      <point x="197" y="389.012" type="curve" smooth="yes"/>
      <point x="197" y="381.012" type="line" smooth="yes"/>
      <point x="197" y="158.869"/>
      <point x="357.795" y="39"/>
      <point x="652.308" y="39" type="curve" smooth="yes"/>
      <point x="1006.09" y="39"/>
      <point x="1183" y="222"/>
      <point x="1183" y="526" type="curve" smooth="yes"/>
      <point x="1183" y="537" type="line"/>
      <point x="1183" y="549" type="line"/>
      <point x="1183" y="649" type="line" smooth="yes"/>
      <point x="1183" y="844.98"/>
      <point x="1110.03" y="929"/>
      <point x="976" y="929" type="curve" smooth="yes"/>
      <point x="837.97" y="929"/>
      <point x="760" y="849.725"/>
      <point x="760" y="683" type="curve" smooth="yes"/>
      <point x="760" y="656" type="line" smooth="yes"/>
      <point x="760" y="472.807"/>
      <point x="840.968" y="417"/>
      <point x="966" y="417" type="curve" smooth="yes"/>
      <point x="1073.04" y="417"/>
      <point x="1151" y="464"/>
      <point x="1185" y="570" type="curve"/>
      <point x="1190" y="522" type="line"/>
      <point x="1187" y="522" type="line"/>
      <point x="1159" y="435"/>
      <point x="1082.03" y="383"/>
      <point x="966" y="383" type="curve" smooth="yes"/>
      <point x="820.972" y="383"/>
      <point x="724" y="450.885"/>
      <point x="724" y="655" type="curve" smooth="yes"/>
      <point x="724" y="685" type="line" smooth="yes"/>
      <point x="724" y="870"/>
      <point x="814.975" y="963"/>
      <point x="975" y="963" type="curve" smooth="yes"/>
      <point x="1138.02" y="963"/>
      <point x="1219" y="864"/>
      <point x="1219" y="649" type="curve" smooth="yes"/>
      <point x="1219" y="531" type="line" smooth="yes"/>
      <point x="1219" y="194"/>
      <point x="1028.09" y="5"/>
    </contour>
  </outline>
</glyph>
<glyph name="Ja.dv" format="2">
  <advance width="1312"/>
  <unicode hex="091C"/>
  <anchor x="1068.5" y="9" name="bottom"/>
  <anchor x="1062.5" y="9" name="bottom2"/>
  <anchor x="1085.5" y="9" name="bottom3"/>
  <anchor x="1067.5" y="30" name="bottom5"/>
  <anchor x="1067" y="1241.5" name="top"/>
  <outline>
    <contour>
      <point x="1085" y="1230" type="line"/>
      <point x="1085" y="0" type="line"/>
      <point x="1050.5" y="0" type="line"/>
      <point x="1050.5" y="1230" type="line"/>
    </contour>
    <contour>
      <point x="912.5" y="1221" type="line"/>
      <point x="906" y="1250.5" type="line"/>
      <point x="1338" y="1250.5" type="line"/>
      <point x="1344.5" y="1221" type="line"/>
    </contour>
    <contour>
      <point x="1243" y="1221" type="line"/>
      <point x="-27" y="1221" type="line"/>
      <point x="-34" y="1251" type="line"/>
      <point x="1237" y="1251" type="line"/>
    </contour>
    <contour>
      <point x="1068" y="872" type="line"/>
      <point x="1068" y="840" type="line"/>
      <point x="605" y="840" type="line"/>
      <point x="440" y="842" type="line"/>
      <point x="201" y="843" type="line"/>
      <point x="201" y="872" type="line"/>
    </contour>
    <contour>
      <point x="462" y="863" type="line"/>
      <point x="462" y="848" type="line"/>
      <point x="630" y="830.303"/>
      <point x="721" y="746.397"/>
      <point x="721" y="529" type="curve" smooth="yes"/>
      <point x="721" y="514" type="line" smooth="yes"/>
      <point x="721" y="273.67"/>
      <point x="616.043" y="161"/>
      <point x="383" y="161" type="curve" smooth="yes"/>
      <point x="257.538" y="161"/>
      <point x="151.577" y="200.41"/>
      <point x="77" y="262" type="curve"/>
      <point x="73" y="309" type="line"/>
      <point x="158.381" y="234.354"/>
      <point x="265.362" y="195"/>
      <point x="382" y="195" type="curve" smooth="yes"/>
      <point x="591.028" y="195"/>
      <point x="684" y="295.724"/>
      <point x="684" y="515" type="curve" smooth="yes"/>
      <point x="684" y="525" type="line" smooth="yes"/>
      <point x="684" y="754.157"/>
      <point x="596.991" y="833.719"/>
      <point x="329" y="840" type="curve" smooth="yes"/>
      <point x="201" y="843" type="line"/>
      <point x="201" y="863" type="line"/>
    </contour>
  </outline>
</glyph>
<glyph name="Nya.dv" format="2">
  <advance width="1331"/>
  <unicode hex="091E"/>
  <anchor x="1088" y="9" name="bottom"/>
  <anchor x="1082" y="9" name="bottom2"/>
  <anchor x="1105" y="9" name="bottom3"/>
  <anchor x="1087" y="30" name="bottom5"/>
  <anchor x="1086.5" y="1241.5" name="top"/>
  <outline>
    <contour>
      <point x="-27" y="1221" type="line"/>
      <point x="-33.5" y="1250.5" type="line"/>
      <point x="1356.5" y="1250.5" type="line"/>
      <point x="1363" y="1221" type="line"/>
    </contour>
    <contour>
      <point x="128" y="904" type="line"/>
      <point x="197" y="939.5"/>
      <point x="281.5" y="958.5"/>
      <point x="382.5" y="958.5" type="curve" smooth="yes"/>
      <point x="603" y="958.5"/>
      <point x="717" y="860.11"/>
      <point x="717" y="608.112" type="curve" smooth="yes"/>
      <point x="717" y="555.906" type="line" smooth="yes"/>
      <point x="717" y="301.398"/>
      <point x="594.5" y="201"/>
      <point x="374" y="201" type="curve" smooth="yes"/>
      <point x="253.5" y="201"/>
      <point x="159" y="229.5"/>
      <point x="98" y="269" type="curve"/>
      <point x="93.5" y="310.5" type="line"/>
      <point x="162" y="265.5"/>
      <point x="255.5" y="234.5"/>
      <point x="374" y="234.5" type="curve" smooth="yes"/>
      <point x="572" y="234.5"/>
      <point x="681" y="325.897"/>
      <point x="681" y="557.905" type="curve" smooth="yes"/>
      <point x="681" y="605.11" type="line" smooth="yes"/>
      <point x="681" y="841.638"/>
      <point x="580.5" y="925"/>
      <point x="382.5" y="925" type="curve" smooth="yes"/>
      <point x="288" y="925"/>
      <point x="204" y="908"/>
      <point x="124" y="864.5" type="curve"/>
    </contour>
    <contour>
      <point x="701" y="609.5" type="line"/>
      <point x="1084.5" y="609.5" type="line"/>
      <point x="1084.5" y="578" type="line"/>
      <point x="700.5" y="578" type="line"/>
    </contour>
    <contour>
      <point x="1104.5" y="1230" type="line"/>
      <point x="1104.5" y="0" type="line"/>
      <point x="1070" y="0" type="line"/>
      <point x="1070" y="1230" type="line"/>
    </contour>
    <contour>
      <point x="932" y="1221" type="line"/>
      <point x="925.5" y="1250.5" type="line"/>
      <point x="1357.5" y="1250.5" type="line"/>
      <point x="1364" y="1221" type="line"/>
    </contour>
  </outline>
</glyph>
<glyph name="Tta.dv" format="2">
  <advance width="1000"/>
  <unicode hex="091F"/>
  <anchor x="597" y="17.5" name="bottom"/>
  <anchor x="491.5" y="17.5" name="bottom2"/>
  <anchor x="915.5" y="17.5" name="bottom3"/>
  <anchor x="550" y="-101" name="bottom4"/>
  <anchor x="549" y="38.5" name="bottom5"/>
  <anchor x="807.493" y="1241.5" name="top"/>
  <outline>
    <contour>
      <point x="658.493" y="1221" type="line"/>
      <point x="651.993" y="1250.5" type="line"/>
      <point x="1027.49" y="1250.5" type="line"/>
      <point x="1033.99" y="1221" type="line"/>
    </contour>
    <contour>
      <point x="824.493" y="1230.5" type="line"/>
      <point x="824.493" y="974.5" type="line"/>
      <point x="790.493" y="974" type="line"/>
      <point x="790.493" y="1230.5" type="line"/>
    </contour>
    <contour>
      <point x="-20" y="1221" type="line"/>
      <point x="-26" y="1251" type="line"/>
      <point x="1050" y="1251" type="line"/>
      <point x="1056" y="1221" type="line"/>
    </contour>
    <contour>
      <point x="790" y="854" type="line"/>
      <point x="790" y="1233" type="line"/>
      <point x="825" y="1233" type="line"/>
      <point x="825" y="836" type="line"/>
    </contour>
    <contour>
      <point x="872" y="102" type="line"/>
      <point x="794" y="43"/>
      <point x="677.542" y="9"/>
      <point x="550.643" y="9" type="curve" smooth="yes"/>
      <point x="287.915" y="9"/>
      <point x="143" y="137.122"/>
      <point x="143" y="419.316" type="curve" smooth="yes"/>
      <point x="143" y="494" type="line" smooth="yes"/>
      <point x="143" y="776.562"/>
      <point x="278.093" y="893"/>
      <point x="555.275" y="893" type="curve" smooth="yes"/>
      <point x="644.537" y="893"/>
      <point x="733.358" y="884.75"/>
      <point x="825" y="868" type="curve"/>
      <point x="825" y="836" type="line"/>
      <point x="728.743" y="853"/>
      <point x="644.141" y="860"/>
      <point x="555.202" y="860" type="curve" smooth="yes"/>
      <point x="299.361" y="860"/>
      <point x="180" y="754.644"/>
      <point x="180" y="492" type="curve" smooth="yes"/>
      <point x="180" y="421.324" type="line" smooth="yes"/>
      <point x="180" y="156.973"/>
      <point x="311.92" y="43"/>
      <point x="550.66" y="43" type="curve" smooth="yes"/>
      <point x="676.187" y="43"/>
      <point x="790.014" y="78.3465"/>
      <point x="875" y="145" type="curve"/>
    </contour>
  </outline>
</glyph>
<glyph name="Ttha.dv" format="2">
  <advance width="1128"/>
  <unicode hex="0920"/>
  <anchor x="614.5" y="14.5" name="bottom"/>
  <anchor x="504.5" y="14.5" name="bottom2"/>
  <anchor x="947" y="14.5" name="bottom3"/>
  <anchor x="568" y="-101.5" name="bottom4"/>
  <anchor x="574.5" y="35.5" name="bottom5"/>
  <anchor x="735.5" y="1241.5" name="top"/>
  <outline>
    <contour>
      <point x="586.5" y="1221" type="line"/>
      <point x="580" y="1250.5" type="line"/>
      <point x="955.5" y="1250.5" type="line"/>
      <point x="962" y="1221" type="line"/>
    </contour>
    <contour>
      <point x="752.5" y="1230.5" type="line"/>
      <point x="752.5" y="974.5" type="line"/>
      <point x="718.5" y="974" type="line"/>
      <point x="718.5" y="1230.5" type="line"/>
    </contour>
    <contour>
      <point x="-26" y="1251" type="line"/>
      <point x="1155" y="1251" type="line"/>
      <point x="1162" y="1221" type="line"/>
      <point x="-20" y="1221" type="line"/>
    </contour>
    <contour>
      <point x="719" y="1235" type="line"/>
      <point x="754" y="1235" type="line"/>
      <point x="754" y="850" type="line"/>
      <point x="719" y="852" type="line"/>
    </contour>
    <contour>
      <point x="748" y="875" type="line"/>
      <point x="902.945" y="821"/>
      <point x="987" y="721.471"/>
      <point x="987" y="479.652" type="curve" smooth="yes"/>
      <point x="987" y="411.329" type="line" smooth="yes"/>
      <point x="987" y="139.279"/>
      <point x="844.99" y="6"/>
      <point x="568.021" y="6" type="curve" smooth="yes"/>
      <point x="287.024" y="6"/>
      <point x="143" y="140.615"/>
      <point x="143" y="412.386" type="curve" smooth="yes"/>
      <point x="143" y="492.621" type="line" smooth="yes"/>
      <point x="143" y="768.574"/>
      <point x="281.681" y="893"/>
      <point x="571.102" y="893" type="curve" smooth="yes"/>
      <point x="630.393" y="893"/>
      <point x="692.699" y="889.045"/>
      <point x="754" y="876" type="curve"/>
      <point x="754" y="843" type="line"/>
      <point x="689.664" y="856"/>
      <point x="633.37" y="860"/>
      <point x="572.049" y="860" type="curve" smooth="yes"/>
      <point x="306.662" y="860"/>
      <point x="180" y="747.646"/>
      <point x="180" y="490.563" type="curve" smooth="yes"/>
      <point x="180" y="414.448" type="line" smooth="yes"/>
      <point x="180" y="162.573"/>
      <point x="309.005" y="40"/>
      <point x="568.024" y="40" type="curve" smooth="yes"/>
      <point x="819.987" y="40"/>
      <point x="950" y="161.243"/>
      <point x="950" y="413.388" type="curve" smooth="yes"/>
      <point x="950" y="477.613" type="line" smooth="yes"/>
      <point x="950" y="705.692"/>
      <point x="873.968" y="796.623"/>
      <point x="729" y="849" type="curve"/>
    </contour>
  </outline>
  <guideline angle="0" x="0" y="29"/>
  <guideline angle="0" x="0" y="50"/>
  <guideline angle="90" x="661" y="0"/>
</glyph>
<glyph name="Nna.dv" format="2">
  <advance width="1495"/>
  <unicode hex="0923"/>
  <anchor x="1251.5" y="9" name="bottom"/>
  <anchor x="1245.5" y="9" name="bottom2"/>
  <anchor x="1268.5" y="9" name="bottom3"/>
  <anchor x="1250.5" y="30" name="bottom5"/>
  <anchor x="1250" y="1241.5" name="top"/>
  <outline>
    <contour>
      <point x="1268" y="1230" type="line"/>
      <point x="1268" y="0" type="line"/>
      <point x="1233.5" y="0" type="line"/>
      <point x="1233.5" y="1230" type="line"/>
    </contour>
    <contour>
      <point x="1095.5" y="1221" type="line"/>
      <point x="1089" y="1250.5" type="line"/>
      <point x="1521" y="1250.5" type="line"/>
      <point x="1527.5" y="1221" type="line"/>
    </contour>
    <contour>
      <point x="-33" y="1221" type="line"/>
      <point x="-39" y="1250.5" type="line"/>
      <point x="1520" y="1250.5" type="line"/>
      <point x="1526" y="1221" type="line"/>
    </contour>
    <contour>
      <point x="506" y="321" type="curve" smooth="yes"/>
      <point x="292" y="321"/>
      <point x="181.5" y="434"/>
      <point x="181.5" y="673.5" type="curve" smooth="yes"/>
      <point x="181.5" y="1231.5" type="line"/>
      <point x="217" y="1231.5" type="line"/>
      <point x="217" y="676.5" type="line" smooth="yes"/>
      <point x="217" y="455.5"/>
      <point x="313" y="354.5"/>
      <point x="505" y="354.5" type="curve" smooth="yes"/>
      <point x="698" y="354.5"/>
      <point x="790.5" y="455.5"/>
      <point x="790.5" y="676.5" type="curve" smooth="yes"/>
      <point x="790.5" y="1231.5" type="line"/>
      <point x="826" y="1231.5" type="line"/>
      <point x="826" y="673.5" type="line" smooth="yes"/>
      <point x="826" y="434"/>
      <point x="721" y="321"/>
    </contour>
  </outline>
  <guideline angle="90" x="1170.5" y="0"/>
  <guideline angle="0" x="0" y="9"/>
  <guideline angle="90" x="1175.5" y="0"/>
  <guideline angle="90" x="1158.5" y="0"/>
  <guideline angle="0" x="0" y="1262"/>
  <guideline angle="90" x="1193.5" y="0"/>
  <guideline angle="0" x="0" y="30"/>
</glyph>
<glyph name="Ta.dv" format="2">
  <advance width="1123"/>
  <unicode hex="0924"/>
  <anchor x="879.5" y="9" name="bottom"/>
  <anchor x="873.5" y="9" name="bottom2"/>
  <anchor x="896.5" y="9" name="bottom3"/>
  <anchor x="878.5" y="30" name="bottom5"/>
  <anchor x="878" y="1241.5" name="top"/>
  <outline>
    <contour>
      <point x="896" y="1230" type="line"/>
      <point x="896" y="0" type="line"/>
      <point x="861.5" y="0" type="line"/>
      <point x="861.5" y="1230" type="line"/>
    </contour>
    <contour>
      <point x="723.5" y="1221" type="line"/>
      <point x="717" y="1250.5" type="line"/>
      <point x="1149" y="1250.5" type="line"/>
      <point x="1155.5" y="1221" type="line"/>
    </contour>
    <contour>
      <point x="-30" y="1221" type="line"/>
      <point x="-37" y="1251" type="line"/>
      <point x="1052" y="1251" type="line"/>
      <point x="1059" y="1221" type="line"/>
    </contour>
    <contour>
      <point x="332" y="0" type="line"/>
      <point x="215.377" y="203.47"/>
      <point x="148" y="368.675"/>
      <point x="148" y="550.522" type="curve" smooth="yes"/>
      <point x="148" y="750.015"/>
      <point x="247.043" y="862"/>
      <point x="483" y="862" type="curve" smooth="yes"/>
      <point x="881" y="862" type="line"/>
      <point x="881" y="830" type="line"/>
      <point x="488" y="830" type="line" smooth="yes"/>
      <point x="274.061" y="830"/>
      <point x="185" y="731.952"/>
      <point x="185" y="550.201" type="curve" smooth="yes"/>
      <point x="185" y="373.396"/>
      <point x="248.862" y="211.952"/>
      <point x="373" y="0" type="curve"/>
    </contour>
  </outline>
  <guideline angle="90" x="798.5" y="0"/>
  <guideline angle="0" x="0" y="9"/>
  <guideline angle="90" x="803.5" y="0"/>
  <guideline angle="90" x="786.5" y="0"/>
  <guideline angle="0" x="0" y="1262"/>
  <guideline angle="90" x="821.5" y="0"/>
  <guideline angle="0" x="0" y="30"/>
</glyph>
<glyph name="Tha.dv" format="2">
  <advance width="1289"/>
  <unicode hex="0925"/>
  <anchor x="1045.5" y="9" name="bottom"/>
  <anchor x="1039.5" y="9" name="bottom2"/>
  <anchor x="1062.5" y="9" name="bottom3"/>
  <anchor x="1044.5" y="30" name="bottom5"/>
  <anchor x="1044" y="1241.5" name="top"/>
  <outline>
    <contour>
      <point x="1062" y="1230" type="line"/>
      <point x="1062" y="0" type="line"/>
      <point x="1027.5" y="0" type="line"/>
      <point x="1027.5" y="1230" type="line"/>
    </contour>
    <contour>
      <point x="889.5" y="1221" type="line"/>
      <point x="883" y="1250.5" type="line"/>
      <point x="1315" y="1250.5" type="line"/>
      <point x="1321.5" y="1221" type="line"/>
    </contour>
    <contour>
      <point x="842" y="1251" type="line"/>
      <point x="1213" y="1251" type="line"/>
      <point x="1221" y="1221" type="line"/>
      <point x="849" y="1221" type="line"/>
    </contour>
    <contour>
      <point x="180" y="863" type="line"/>
      <point x="175" y="929"/>
      <point x="173" y="974"/>
      <point x="173" y="1009" type="curve" smooth="yes"/>
      <point x="173" y="1184"/>
      <point x="263.145" y="1269"/>
      <point x="436.5" y="1269" type="curve" smooth="yes"/>
      <point x="612.827" y="1269"/>
      <point x="700" y="1175"/>
      <point x="700" y="992" type="curve" smooth="yes"/>
      <point x="700" y="952" type="line" smooth="yes"/>
      <point x="700" y="739.246"/>
      <point x="591.608" y="645"/>
      <point x="333.439" y="645" type="curve" smooth="yes"/>
      <point x="167" y="645" type="line"/>
      <point x="150" y="677" type="line"/>
      <point x="325.295" y="677" type="line" smooth="yes"/>
      <point x="568.493" y="677"/>
      <point x="664" y="761.231"/>
      <point x="664" y="955" type="curve" smooth="yes"/>
      <point x="664" y="989" type="line" smooth="yes"/>
      <point x="664" y="1157"/>
      <point x="587.835" y="1235"/>
      <point x="436.495" y="1235" type="curve" smooth="yes"/>
      <point x="287.132" y="1235"/>
      <point x="208" y="1163"/>
      <point x="208" y="1003" type="curve" smooth="yes"/>
      <point x="208" y="863" type="line"/>
    </contour>
    <contour>
      <point x="147" y="580" type="line" smooth="yes"/>
      <point x="147" y="605"/>
      <point x="148" y="641"/>
      <point x="150" y="677" type="curve"/>
      <point x="183" y="665" type="line"/>
      <point x="183" y="574" type="line" smooth="yes"/>
      <point x="183" y="349"/>
      <point x="325" y="241"/>
      <point x="599" y="241" type="curve" smooth="yes"/>
      <point x="848" y="241"/>
      <point x="985" y="334"/>
      <point x="1030" y="504" type="curve"/>
      <point x="1035" y="449" type="line"/>
      <point x="1033" y="449" type="line"/>
      <point x="997" y="315.452"/>
      <point x="865" y="207"/>
      <point x="601" y="207" type="curve" smooth="yes"/>
      <point x="300" y="207"/>
      <point x="147" y="330"/>
      <point x="147" y="570" type="curve" smooth="yes"/>
    </contour>
  </outline>
</glyph>
<glyph name="Dha.dv" format="2">
  <advance width="1273"/>
  <unicode hex="0927"/>
  <anchor x="1029.5" y="9" name="bottom"/>
  <anchor x="1023.5" y="9" name="bottom2"/>
  <anchor x="1046.5" y="9" name="bottom3"/>
  <anchor x="1028.5" y="30" name="bottom5"/>
  <anchor x="1028" y="1241.5" name="top"/>
  <outline>
    <contour>
      <point x="1046" y="1230" type="line"/>
      <point x="1046" y="0" type="line"/>
      <point x="1011.5" y="0" type="line"/>
      <point x="1011.5" y="1230" type="line"/>
    </contour>
    <contour>
      <point x="873.5" y="1221" type="line"/>
      <point x="867" y="1250.5" type="line"/>
      <point x="1299" y="1250.5" type="line"/>
      <point x="1305.5" y="1221" type="line"/>
    </contour>
    <contour>
      <point x="845" y="1221" type="line"/>
      <point x="839" y="1251" type="line"/>
      <point x="1198" y="1251" type="line"/>
      <point x="1204" y="1221" type="line"/>
    </contour>
    <contour>
      <point x="160" y="469.461" type="line" smooth="yes"/>
      <point x="160" y="605.185"/>
      <point x="236" y="685.024"/>
      <point x="470" y="691" type="curve"/>
      <point x="470" y="694" type="line"/>
      <point x="233" y="705.221"/>
      <point x="145" y="795.929"/>
      <point x="145" y="976.287" type="curve" smooth="yes"/>
      <point x="145" y="993.955" type="line" smooth="yes"/>
      <point x="145" y="1174.68"/>
      <point x="247.53" y="1270"/>
      <point x="430.901" y="1270" type="curve" smooth="yes"/>
      <point x="612.953" y="1270"/>
      <point x="703" y="1189.24"/>
      <point x="703" y="1016.1" type="curve" smooth="yes"/>
      <point x="703" y="988.923"/>
      <point x="701" y="953"/>
      <point x="696" y="909" type="curve"/>
      <point x="667" y="909" type="line"/>
      <point x="667" y="1008.16" type="line" smooth="yes"/>
      <point x="667" y="1170.74"/>
      <point x="586.989" y="1236"/>
      <point x="430.895" y="1236" type="curve" smooth="yes"/>
      <point x="271.222" y="1236"/>
      <point x="182" y="1156.35"/>
      <point x="182" y="991.88" type="curve" smooth="yes"/>
      <point x="182" y="976.199" type="line" smooth="yes"/>
      <point x="182" y="794.761"/>
      <point x="273.467" y="716.665"/>
      <point x="561.672" y="710.979" type="curve" smooth="yes"/>
      <point x="662" y="709" type="line"/>
      <point x="662" y="676" type="line"/>
      <point x="564.671" y="674.009" type="line" smooth="yes"/>
      <point x="264.822" y="667.875"/>
      <point x="197" y="601.182"/>
      <point x="197" y="469.477" type="curve" smooth="yes"/>
      <point x="197" y="461.502" type="line" smooth="yes"/>
      <point x="197" y="307.832"/>
      <point x="327" y="232"/>
      <point x="586" y="232" type="curve" smooth="yes"/>
      <point x="822" y="232"/>
      <point x="968" y="311"/>
      <point x="1013" y="461" type="curve"/>
      <point x="1018" y="409" type="line"/>
      <point x="1015" y="409" type="line"/>
      <point x="977" y="291.44"/>
      <point x="843" y="198"/>
      <point x="587" y="198" type="curve" smooth="yes"/>
      <point x="302" y="198"/>
      <point x="160" y="285.828"/>
      <point x="160" y="461.483" type="curve" smooth="yes"/>
    </contour>
  </outline>
  <guideline angle="90" x="508" y="0"/>
  <guideline angle="90" x="948.5" y="0"/>
  <guideline angle="0" x="0" y="9"/>
  <guideline angle="90" x="953.5" y="0"/>
  <guideline angle="90" x="936.5" y="0"/>
  <guideline angle="0" x="0" y="1262"/>
  <guideline angle="90" x="971.5" y="0"/>
  <guideline angle="0" x="0" y="30"/>
</glyph>
<glyph name="Na.dv" format="2">
  <advance width="1084"/>
  <unicode hex="0928"/>
  <anchor x="840.5" y="9" name="bottom"/>
  <anchor x="834.5" y="9" name="bottom2"/>
  <anchor x="857.5" y="9" name="bottom3"/>
  <anchor x="839.5" y="30" name="bottom5"/>
  <anchor x="839" y="1241.5" name="top"/>
  <outline>
    <contour>
      <point x="857" y="1230" type="line"/>
      <point x="857" y="0" type="line"/>
      <point x="822.5" y="0" type="line"/>
      <point x="822.5" y="1230" type="line"/>
    </contour>
    <contour>
      <point x="684.5" y="1221" type="line"/>
      <point x="678" y="1250.5" type="line"/>
      <point x="1110" y="1250.5" type="line"/>
      <point x="1116.5" y="1221" type="line"/>
    </contour>
    <contour>
      <point x="1011.5" y="1221" type="line"/>
      <point x="-24" y="1221" type="line"/>
      <point x="-30.5" y="1250.5" type="line"/>
      <point x="1005" y="1250.5" type="line"/>
    </contour>
    <contour>
      <point x="837" y="774.5" type="line"/>
      <point x="837" y="743" type="line"/>
      <point x="209" y="743" type="line"/>
      <point x="209" y="774.5" type="line"/>
    </contour>
    <contour>
      <point x="187.5" y="305.5" type="line"/>
      <point x="170.535" y="473.005"/>
      <point x="160.965" y="567.495"/>
      <point x="144" y="735" type="curve"/>
      <point x="191.973" y="774.5" type="line"/>
      <point x="235" y="774.5" type="line"/>
      <point x="235" y="305.5" type="line"/>
    </contour>
  </outline>
</glyph>
<glyph name="Pa.dv" format="2">
  <advance width="1123"/>
  <unicode hex="092A"/>
  <anchor x="879.5" y="9" name="bottom"/>
  <anchor x="873.5" y="9" name="bottom2"/>
  <anchor x="896.5" y="9" name="bottom3"/>
  <anchor x="878.5" y="30" name="bottom5"/>
  <anchor x="878" y="1241.5" name="top"/>
  <outline>
    <contour>
      <point x="896" y="1230" type="line"/>
      <point x="896" y="0" type="line"/>
      <point x="861.5" y="0" type="line"/>
      <point x="861.5" y="1230" type="line"/>
    </contour>
    <contour>
      <point x="723.5" y="1221" type="line"/>
      <point x="717" y="1250.5" type="line"/>
      <point x="1149" y="1250.5" type="line"/>
      <point x="1155.5" y="1221" type="line"/>
    </contour>
    <contour>
      <point x="-27.5" y="1221" type="line"/>
      <point x="-34" y="1250.5" type="line"/>
      <point x="1045" y="1250.5" type="line"/>
      <point x="1051.5" y="1221" type="line"/>
    </contour>
    <contour>
      <point x="528.101" y="349" type="curve" smooth="yes"/>
      <point x="306.579" y="349"/>
      <point x="181" y="457"/>
      <point x="181" y="719" type="curve" smooth="yes"/>
      <point x="181" y="1228" type="line"/>
      <point x="216.5" y="1228" type="line"/>
      <point x="216.5" y="721" type="line" smooth="yes"/>
      <point x="216.5" y="479.5"/>
      <point x="328.557" y="382.5"/>
      <point x="528.047" y="382.5" type="curve" smooth="yes"/>
      <point x="710.956" y="382.5"/>
      <point x="820.5" y="468"/>
      <point x="862.5" y="619" type="curve"/>
      <point x="867.5" y="561" type="line"/>
      <point x="863.5" y="561" type="line"/>
      <point x="831.5" y="444.5"/>
      <point x="725.511" y="349"/>
    </contour>
  </outline>
</glyph>
<glyph name="Ba.dv" format="2">
  <advance width="1158"/>
  <unicode hex="092C"/>
  <anchor x="914.5" y="9" name="bottom"/>
  <anchor x="908.5" y="9" name="bottom2"/>
  <anchor x="931.5" y="9" name="bottom3"/>
  <anchor x="913.5" y="30" name="bottom5"/>
  <anchor x="913" y="1241.5" name="top"/>
  <outline>
    <contour>
      <point x="931" y="1230" type="line"/>
      <point x="931" y="0" type="line"/>
      <point x="896.5" y="0" type="line"/>
      <point x="896.5" y="1230" type="line"/>
    </contour>
    <contour>
      <point x="758.5" y="1221" type="line"/>
      <point x="752" y="1250.5" type="line"/>
      <point x="1184" y="1250.5" type="line"/>
      <point x="1190.5" y="1221" type="line"/>
    </contour>
    <contour>
      <point x="-22" y="1221" type="line"/>
      <point x="-28" y="1251" type="line"/>
      <point x="1082" y="1251" type="line"/>
      <point x="1088" y="1221" type="line"/>
    </contour>
    <contour>
      <point x="264" y="877" type="line"/>
      <point x="296" y="891" type="line"/>
      <point x="822" y="324" type="line"/>
      <point x="796" y="303" type="line"/>
    </contour>
    <contour>
      <point x="140" y="568" type="curve" smooth="yes"/>
      <point x="140" y="589" type="line" smooth="yes"/>
      <point x="140" y="836.765"/>
      <point x="267.358" y="963"/>
      <point x="524" y="963" type="curve" smooth="yes"/>
      <point x="610" y="963"/>
      <point x="690" y="951"/>
      <point x="750" y="930" type="curve"/>
      <point x="755" y="893" type="line"/>
      <point x="687.059" y="917"/>
      <point x="608.324" y="929"/>
      <point x="524" y="929" type="curve" smooth="yes"/>
      <point x="287.265" y="929"/>
      <point x="176" y="814.842"/>
      <point x="176" y="587" type="curve" smooth="yes"/>
      <point x="176" y="571" type="line" smooth="yes"/>
      <point x="176" y="342.022"/>
      <point x="304.716" y="235"/>
      <point x="532" y="235" type="curve" smooth="yes"/>
      <point x="739.866" y="235"/>
      <point x="853.22" y="318"/>
      <point x="898" y="476" type="curve"/>
      <point x="901" y="417" type="line"/>
      <point x="898" y="417" type="line"/>
      <point x="867.167" y="297.548"/>
      <point x="753.79" y="201"/>
      <point x="532" y="201" type="curve" smooth="yes"/>
      <point x="280.715" y="201"/>
      <point x="140" y="319.105"/>
    </contour>
  </outline>
</glyph>
<glyph name="Bha.dv" format="2">
  <advance width="1136"/>
  <unicode hex="092D"/>
  <anchor x="892.5" y="9" name="bottom"/>
  <anchor x="886.5" y="9" name="bottom2"/>
  <anchor x="909.5" y="9" name="bottom3"/>
  <anchor x="891.5" y="30" name="bottom5"/>
  <anchor x="891" y="1241.5" name="top"/>
  <outline>
    <contour>
      <point x="909" y="1230" type="line"/>
      <point x="909" y="0" type="line"/>
      <point x="874.5" y="0" type="line"/>
      <point x="874.5" y="1230" type="line"/>
    </contour>
    <contour>
      <point x="736.5" y="1221" type="line"/>
      <point x="730" y="1250.5" type="line"/>
      <point x="1162" y="1250.5" type="line"/>
      <point x="1168.5" y="1221" type="line"/>
    </contour>
    <contour>
      <point x="672.5" y="1221" type="line"/>
      <point x="666.5" y="1250.5" type="line"/>
      <point x="1060.5" y="1250.5" type="line"/>
      <point x="1067" y="1221" type="line"/>
    </contour>
    <contour>
      <point x="249.5" y="582.5" type="line"/>
      <point x="249.5" y="614" type="line"/>
      <point x="891" y="614" type="line"/>
      <point x="891" y="582.5" type="line"/>
    </contour>
    <contour>
      <point x="229" y="178.5" type="line"/>
      <point x="209.5" y="334.305"/>
      <point x="198.5" y="421.195"/>
      <point x="179" y="577" type="curve"/>
      <point x="237.232" y="611" type="line"/>
      <point x="272" y="611" type="line"/>
      <point x="272" y="178.5" type="line"/>
    </contour>
    <contour>
      <point x="236.5" y="512" type="line"/>
      <point x="235.5" y="1013" type="line" smooth="yes"/>
      <point x="235.192" y="1167.5"/>
      <point x="197.5" y="1221"/>
      <point x="68" y="1221" type="curve" smooth="yes"/>
      <point x="-26" y="1221" type="line"/>
      <point x="-32.5" y="1250.5" type="line"/>
      <point x="69.5" y="1250.5" type="line" smooth="yes"/>
      <point x="221" y="1250.5"/>
      <point x="270.171" y="1182"/>
      <point x="270.5" y="1016" type="curve" smooth="yes"/>
      <point x="271.5" y="512" type="line"/>
    </contour>
  </outline>
</glyph>
<glyph name="Ma.dv" format="2">
  <advance width="1152"/>
  <unicode hex="092E"/>
  <anchor x="909" y="9" name="bottom"/>
  <anchor x="903" y="9" name="bottom2"/>
  <anchor x="926" y="9" name="bottom3"/>
  <anchor x="908" y="30" name="bottom5"/>
  <anchor x="907.5" y="1241.5" name="top"/>
  <outline>
    <contour>
      <point x="925.5" y="1230" type="line"/>
      <point x="925.5" y="0" type="line"/>
      <point x="891" y="0" type="line"/>
      <point x="891" y="1230" type="line"/>
    </contour>
    <contour>
      <point x="753" y="1221" type="line"/>
      <point x="746.5" y="1250.5" type="line"/>
      <point x="1178.5" y="1250.5" type="line"/>
      <point x="1185" y="1221" type="line"/>
    </contour>
    <contour>
      <point x="1083.5" y="1221" type="line"/>
      <point x="-26" y="1221" type="line"/>
      <point x="-32.5" y="1250.5" type="line"/>
      <point x="1077" y="1250.5" type="line"/>
    </contour>
    <contour>
      <point x="907" y="615" type="line"/>
      <point x="907" y="583.5" type="line"/>
      <point x="254" y="583.5" type="line"/>
      <point x="254" y="615" type="line"/>
    </contour>
    <contour>
      <point x="271" y="1231.5" type="line"/>
      <point x="271" y="544.5" type="line"/>
      <point x="235.5" y="544.5" type="line"/>
      <point x="235.5" y="1231.5" type="line"/>
    </contour>
    <contour>
      <point x="228" y="178.5" type="line"/>
      <point x="208.5" y="334.305"/>
      <point x="197.5" y="421.195"/>
      <point x="178" y="577" type="curve"/>
      <point x="236.232" y="611" type="line"/>
      <point x="271" y="611" type="line"/>
      <point x="271" y="178.5" type="line"/>
    </contour>
  </outline>
  <guideline angle="90" color="0,1,1,1" name="Ma counter space" x="191" y="0"/>
  <guideline angle="90" x="828" y="0"/>
  <guideline angle="0" x="0" y="9"/>
  <guideline angle="90" x="833" y="0"/>
  <guideline angle="90" x="816" y="0"/>
  <guideline angle="0" x="0" y="1262"/>
  <guideline angle="90" x="851" y="0"/>
  <guideline angle="0" x="0" y="30"/>
</glyph>
<glyph name="Ra.dv" format="2">
  <advance width="749"/>
  <unicode hex="0930"/>
  <anchor x="349" y="9" name="bottom2"/>
  <anchor x="765" y="9" name="bottom3"/>
  <anchor x="390" y="30" name="bottom5"/>
  <anchor x="442" y="1241.5" name="top"/>
  <outline>
    <contour>
      <point x="791" y="1221" type="line"/>
      <point x="-28" y="1221" type="line"/>
      <point x="-34" y="1251" type="line"/>
      <point x="785" y="1251" type="line"/>
    </contour>
    <contour>
      <point x="579" y="0" type="line"/>
      <point x="538" y="0" type="line"/>
      <point x="162.844" y="567" type="line"/>
      <point x="56" y="571" type="line"/>
      <point x="56" y="603" type="line"/>
      <point x="192" y="598" type="line"/>
      <point x="192" y="583" type="line"/>
      <point x="246.525" y="502"/>
      <point x="297.948" y="426.419"/>
      <point x="350" y="348" type="curve" smooth="yes"/>
      <point x="579" y="3" type="line"/>
    </contour>
    <contour>
      <point x="469" y="1229" type="line"/>
      <point x="538" y="1172.12"/>
      <point x="586" y="1078.89"/>
      <point x="586" y="934" type="curve" smooth="yes"/>
      <point x="586" y="918" type="line" smooth="yes"/>
      <point x="586" y="684"/>
      <point x="460.304" y="571"/>
      <point x="170.23" y="571" type="curve" smooth="yes"/>
      <point x="113.032" y="571" type="line"/>
      <point x="56" y="603" type="line"/>
      <point x="170.103" y="603" type="line" smooth="yes"/>
      <point x="430.362" y="603"/>
      <point x="550" y="701"/>
      <point x="550" y="920" type="curve" smooth="yes"/>
      <point x="550" y="934" type="line" smooth="yes"/>
      <point x="550" y="1078.85"/>
      <point x="505" y="1165.1"/>
      <point x="421" y="1229" type="curve"/>
    </contour>
  </outline>
  <guideline angle="90" x="205" y="0"/>
  <guideline angle="0" x="0" y="1262"/>
  <guideline angle="0" x="0" y="-60"/>
</glyph>
<glyph name="La.dv" format="2">
  <advance width="1392"/>
  <unicode hex="0932"/>
  <anchor x="1149" y="9" name="bottom"/>
  <anchor x="1143" y="9" name="bottom2"/>
  <anchor x="1166" y="9" name="bottom3"/>
  <anchor x="1148" y="30" name="bottom5"/>
  <anchor x="1147.5" y="1241.5" name="top"/>
  <outline>
    <contour>
      <point x="1165.5" y="1230" type="line"/>
      <point x="1165.5" y="0" type="line"/>
      <point x="1131" y="0" type="line"/>
      <point x="1131" y="1230" type="line"/>
    </contour>
    <contour>
      <point x="993" y="1221" type="line"/>
      <point x="986.5" y="1250.5" type="line"/>
      <point x="1418.5" y="1250.5" type="line"/>
      <point x="1425" y="1221" type="line"/>
    </contour>
    <contour>
      <point x="-30" y="1221" type="line"/>
      <point x="-36.5" y="1250.5" type="line"/>
      <point x="1317" y="1250.5" type="line"/>
      <point x="1323.5" y="1221" type="line"/>
    </contour>
    <contour>
      <point x="437.959" y="898.5" type="curve" smooth="yes"/>
      <point x="591.784" y="898.5"/>
      <point x="672.551" y="818"/>
      <point x="686" y="696" type="curve"/>
      <point x="690" y="696" type="line"/>
      <point x="704.533" y="818"/>
      <point x="789.925" y="898.5"/>
      <point x="924.601" y="898.5" type="curve" smooth="yes"/>
      <point x="1031.74" y="898.5"/>
      <point x="1107.15" y="852.231"/>
      <point x="1143.5" y="774" type="curve"/>
      <point x="1137" y="737" type="line"/>
      <point x="1095.13" y="819.646"/>
      <point x="1023.57" y="865"/>
      <point x="924.641" y="865" type="curve" smooth="yes"/>
      <point x="794.291" y="865"/>
      <point x="707.285" y="778.502"/>
      <point x="706.033" y="606" type="curve" smooth="yes"/>
      <point x="704" y="326" type="line"/>
      <point x="671.5" y="326" type="line"/>
      <point x="669.972" y="606" type="line" smooth="yes"/>
      <point x="669.028" y="779"/>
      <point x="587.384" y="865"/>
      <point x="438.272" y="865" type="curve" smooth="yes"/>
      <point x="279.979" y="865"/>
      <point x="184.5" y="763.792"/>
      <point x="184.5" y="569.893" type="curve" smooth="yes"/>
      <point x="184.5" y="386.21"/>
      <point x="251.87" y="220.51"/>
      <point x="402" y="2.874" type="curve"/>
      <point x="402" y="0" type="line"/>
      <point x="362" y="0" type="line"/>
      <point x="218.855" y="209.257"/>
      <point x="148.5" y="380.221"/>
      <point x="148.5" y="570.393" type="curve" smooth="yes"/>
      <point x="148.5" y="786.799"/>
      <point x="258.037" y="898.5"/>
    </contour>
  </outline>
  <guideline angle="0" x="0" y="519"/>
  <guideline angle="0" x="0" y="518"/>
  <guideline angle="90" x="65" y="0"/>
  <guideline angle="90" x="1068" y="0"/>
  <guideline angle="0" x="0" y="9"/>
  <guideline angle="90" x="1073" y="0"/>
  <guideline angle="90" x="1056" y="0"/>
  <guideline angle="0" x="0" y="1262"/>
  <guideline angle="90" x="1091" y="0"/>
  <guideline angle="0" x="0" y="30"/>
</glyph>
<glyph name="Va.dv" format="2">
  <advance width="1132"/>
  <unicode hex="0935"/>
  <anchor x="888.5" y="9" name="bottom"/>
  <anchor x="882.5" y="9" name="bottom2"/>
  <anchor x="905.5" y="9" name="bottom3"/>
  <anchor x="887.5" y="30" name="bottom5"/>
  <anchor x="887" y="1241.5" name="top"/>
  <outline>
    <contour>
      <point x="905" y="1230" type="line"/>
      <point x="905" y="0" type="line"/>
      <point x="870.5" y="0" type="line"/>
      <point x="870.5" y="1230" type="line"/>
    </contour>
    <contour>
      <point x="732.5" y="1221" type="line"/>
      <point x="726" y="1250.5" type="line"/>
      <point x="1158" y="1250.5" type="line"/>
      <point x="1164.5" y="1221" type="line"/>
    </contour>
    <contour>
      <point x="-21" y="1221" type="line"/>
      <point x="-28" y="1251" type="line"/>
      <point x="1057" y="1251" type="line"/>
      <point x="1064" y="1221" type="line"/>
    </contour>
    <contour>
      <point x="143" y="562.458" type="curve" smooth="yes"/>
      <point x="143" y="601.254" type="line" smooth="yes"/>
      <point x="143" y="837.292"/>
      <point x="263.301" y="959"/>
      <point x="512" y="959" type="curve" smooth="yes"/>
      <point x="596" y="959"/>
      <point x="667" y="947.324"/>
      <point x="723" y="926" type="curve"/>
      <point x="729" y="889" type="line"/>
      <point x="664" y="914"/>
      <point x="594.281" y="925"/>
      <point x="512" y="925" type="curve" smooth="yes"/>
      <point x="285.24" y="925"/>
      <point x="180" y="814.275"/>
      <point x="180" y="598.227" type="curve" smooth="yes"/>
      <point x="180" y="563.471" type="line" smooth="yes"/>
      <point x="180" y="342.177"/>
      <point x="298.038" y="239"/>
      <point x="521" y="239" type="curve" smooth="yes"/>
      <point x="722.284" y="239"/>
      <point x="835.321" y="320.936"/>
      <point x="873" y="470" type="curve"/>
      <point x="878" y="416" type="line"/>
      <point x="876" y="416" type="line"/>
      <point x="846.251" y="298.575"/>
      <point x="739.165" y="205"/>
      <point x="521" y="205" type="curve" smooth="yes"/>
      <point x="278.072" y="205"/>
      <point x="143" y="317.123"/>
    </contour>
  </outline>
</glyph>
<glyph name="Sha.dv" format="2">
  <advance width="1399"/>
  <unicode hex="0936"/>
  <anchor x="1155.5" y="9" name="bottom"/>
  <anchor x="1149.5" y="9" name="bottom2"/>
  <anchor x="1172.5" y="9" name="bottom3"/>
  <anchor x="1154.5" y="30" name="bottom5"/>
  <anchor x="1154" y="1241.5" name="top"/>
  <outline>
    <contour>
      <point x="1172" y="1230" type="line"/>
      <point x="1172" y="0" type="line"/>
      <point x="1137.5" y="0" type="line"/>
      <point x="1137.5" y="1230" type="line"/>
    </contour>
    <contour>
      <point x="999.5" y="1221" type="line"/>
      <point x="993" y="1250.5" type="line"/>
      <point x="1425" y="1250.5" type="line"/>
      <point x="1431.5" y="1221" type="line"/>
    </contour>
    <contour>
      <point x="923" y="1251" type="line"/>
      <point x="1324" y="1251" type="line"/>
      <point x="1331" y="1221" type="line"/>
      <point x="930" y="1221" type="line"/>
    </contour>
    <contour>
      <point x="733" y="0" type="line"/>
      <point x="688" y="0" type="line"/>
      <point x="246" y="448" type="line"/>
      <point x="117" y="456" type="line"/>
      <point x="117" y="489" type="line"/>
      <point x="276" y="471" type="line"/>
      <point x="276" y="464" type="line"/>
      <point x="346.224" y="395.084"/>
      <point x="389.934" y="351.926"/>
      <point x="466.151" y="274.851" type="curve" smooth="yes"/>
      <point x="733" y="5" type="line"/>
    </contour>
    <contour>
      <point x="795" y="914" type="curve" smooth="yes"/>
      <point x="795" y="870" type="line" smooth="yes"/>
      <point x="795" y="566"/>
      <point x="626" y="449"/>
      <point x="311" y="449" type="curve" smooth="yes"/>
      <point x="261" y="449"/>
      <point x="230" y="451"/>
      <point x="175" y="458" type="curve"/>
      <point x="117" y="489" type="line"/>
      <point x="191" y="484"/>
      <point x="241" y="482"/>
      <point x="308" y="482" type="curve" smooth="yes"/>
      <point x="601" y="482"/>
      <point x="759" y="585"/>
      <point x="759" y="872" type="curve" smooth="yes"/>
      <point x="759" y="912" type="line" smooth="yes"/>
      <point x="759" y="1137.19"/>
      <point x="664" y="1236"/>
      <point x="483" y="1236" type="curve" smooth="yes"/>
      <point x="308" y="1236"/>
      <point x="211" y="1149.65"/>
      <point x="211" y="977" type="curve" smooth="yes"/>
      <point x="211" y="969" type="line" smooth="yes"/>
      <point x="211" y="895.647"/>
      <point x="226.833" y="828.328"/>
      <point x="283" y="752" type="curve"/>
      <point x="243" y="752" type="line"/>
      <point x="195.379" y="818.309"/>
      <point x="175" y="893.637"/>
      <point x="175" y="969" type="curve" smooth="yes"/>
      <point x="175" y="978" type="line" smooth="yes"/>
      <point x="175" y="1166.64"/>
      <point x="284" y="1269"/>
      <point x="483" y="1269" type="curve" smooth="yes"/>
      <point x="688" y="1269"/>
      <point x="795" y="1157.01"/>
    </contour>
  </outline>
  <guideline angle="90" x="1074.5" y="0"/>
  <guideline angle="0" x="0" y="9"/>
  <guideline angle="90" x="1079.5" y="0"/>
  <guideline angle="90" x="1062.5" y="0"/>
  <guideline angle="0" x="0" y="1262"/>
  <guideline angle="90" x="1097.5" y="0"/>
  <guideline angle="0" x="0" y="30"/>
</glyph>
<glyph name="Ssa.dv" format="2">
  <advance width="1145"/>
  <unicode hex="0937"/>
  <anchor x="901.5" y="9" name="bottom"/>
  <anchor x="895.5" y="9" name="bottom2"/>
  <anchor x="918.5" y="9" name="bottom3"/>
  <anchor x="900.5" y="30" name="bottom5"/>
  <anchor x="900" y="1241.5" name="top"/>
  <outline>
    <contour>
      <point x="918" y="1230" type="line"/>
      <point x="918" y="0" type="line"/>
      <point x="883.5" y="0" type="line"/>
      <point x="883.5" y="1230" type="line"/>
    </contour>
    <contour>
      <point x="745.5" y="1221" type="line"/>
      <point x="739" y="1250.5" type="line"/>
      <point x="1171" y="1250.5" type="line"/>
      <point x="1177.5" y="1221" type="line"/>
    </contour>
    <contour>
      <point x="-27.5" y="1221" type="line"/>
      <point x="-34" y="1250.5" type="line"/>
      <point x="1069.5" y="1250.5" type="line"/>
      <point x="1076" y="1221" type="line"/>
    </contour>
    <contour>
      <point x="541.63" y="342.5" type="curve" smooth="yes"/>
      <point x="308.15" y="342.5"/>
      <point x="182" y="454"/>
      <point x="182" y="714.5" type="curve" smooth="yes"/>
      <point x="182" y="1228" type="line"/>
      <point x="217.5" y="1228" type="line"/>
      <point x="217.5" y="717.5" type="line" smooth="yes"/>
      <point x="217.5" y="477.5"/>
      <point x="327.988" y="377"/>
      <point x="541.326" y="377" type="curve" smooth="yes"/>
      <point x="733.789" y="377"/>
      <point x="840.203" y="454"/>
      <point x="884.5" y="604" type="curve"/>
      <point x="889.5" y="546.5" type="line"/>
      <point x="886" y="546.5" type="line"/>
      <point x="852.428" y="433.102"/>
      <point x="746.116" y="342.5"/>
    </contour>
    <contour>
      <point x="198.5" y="1210" type="curve"/>
      <point x="217" y="1228.5" type="line"/>
      <point x="757.494" y="679.083" type="line" smooth="yes"/>
      <point x="797.756" y="638.157"/>
      <point x="843.957" y="589.946"/>
      <point x="882" y="546.5" type="curve"/>
      <point x="867.5" y="519.5" type="line"/>
      <point x="321.563" y="1075.25" type="line" smooth="yes"/>
      <point x="267.416" y="1130.37"/>
      <point x="229.547" y="1170.36"/>
    </contour>
  </outline>
</glyph>
<glyph name="Ha.dv" format="2">
  <advance width="1039"/>
  <unicode hex="0939"/>
  <anchor x="616" y="-140" name="bottom"/>
  <anchor x="468" y="-143.5" name="bottom2"/>
  <anchor x="896" y="-143.5" name="bottom3"/>
  <anchor x="260" y="-212" name="bottom4"/>
  <anchor x="549.5" y="-122.5" name="bottom5"/>
  <anchor x="831.002" y="1241.5" name="top"/>
  <outline>
    <contour>
      <point x="682.002" y="1221" type="line"/>
      <point x="675.502" y="1250.5" type="line"/>
      <point x="1051" y="1250.5" type="line"/>
      <point x="1057.5" y="1221" type="line"/>
    </contour>
    <contour>
      <point x="848.002" y="1230.5" type="line"/>
      <point x="848.002" y="974.5" type="line"/>
      <point x="814.002" y="974" type="line"/>
      <point x="814.002" y="1230.5" type="line"/>
    </contour>
    <contour>
      <point x="1075" y="1221" type="line"/>
      <point x="-21" y="1221" type="line"/>
      <point x="-27" y="1250.5" type="line"/>
      <point x="1068.5" y="1250.5" type="line"/>
    </contour>
    <contour>
      <point x="814" y="1235.5" type="line"/>
      <point x="849" y="1235.5" type="line"/>
      <point x="849" y="897.5" type="line"/>
      <point x="814" y="919" type="line"/>
    </contour>
    <contour>
      <point x="274.5" y="461.5" type="line"/>
      <point x="191.201" y="516.943"/>
      <point x="146.5" y="588.662"/>
      <point x="146.5" y="683.659" type="curve" smooth="yes"/>
      <point x="146.5" y="691.304" type="line" smooth="yes"/>
      <point x="146.5" y="863.061"/>
      <point x="260.5" y="959.5"/>
      <point x="539.5" y="959.5" type="curve" smooth="yes"/>
      <point x="656" y="959.5"/>
      <point x="753.5" y="950"/>
      <point x="849" y="930.5" type="curve"/>
      <point x="849" y="897.5" type="line"/>
      <point x="751.5" y="917.5"/>
      <point x="655.5" y="926"/>
      <point x="541.5" y="926" type="curve" smooth="yes"/>
      <point x="286" y="926"/>
      <point x="183.5" y="844.404"/>
      <point x="183.5" y="690.832" type="curve" smooth="yes"/>
      <point x="183.5" y="684.179" type="line" smooth="yes"/>
      <point x="183.5" y="595.548"/>
      <point x="221.66" y="534.532"/>
      <point x="299" y="484.5" type="curve"/>
    </contour>
    <contour>
      <point x="820" y="-123.5" type="line"/>
      <point x="755.5" y="-149"/>
      <point x="672.5" y="-162.5"/>
      <point x="582" y="-162.5" type="curve" smooth="yes"/>
      <point x="326" y="-162.5"/>
      <point x="156.5" y="-45.5976"/>
      <point x="156.5" y="192.257" type="curve" smooth="yes"/>
      <point x="156.5" y="205.933" type="line" smooth="yes"/>
      <point x="156.5" y="332.691"/>
      <point x="199.387" y="420.201"/>
      <point x="270.977" y="474.81" type="curve"/>
      <point x="280.549" y="481.501" type="line" smooth="yes"/>
      <point x="349" y="527.883"/>
      <point x="437.754" y="550.5"/>
      <point x="543.763" y="550.5" type="curve" smooth="yes"/>
      <point x="784" y="550.5"/>
      <point x="901.5" y="448.6"/>
      <point x="901.5" y="260.937" type="curve" smooth="yes"/>
      <point x="901.5" y="227.304"/>
      <point x="899.5" y="197.083"/>
      <point x="896" y="161.5" type="curve"/>
      <point x="865.5" y="161.5" type="line"/>
      <point x="865.5" y="252.921" type="line" smooth="yes"/>
      <point x="865.5" y="428.955"/>
      <point x="759" y="517"/>
      <point x="542.5" y="517" type="curve" smooth="yes"/>
      <point x="315" y="517"/>
      <point x="193" y="413.38"/>
      <point x="193" y="206.205" type="curve" smooth="yes"/>
      <point x="193" y="192.93" type="line" smooth="yes"/>
      <point x="193" y="-21.0892"/>
      <point x="346.5" y="-129"/>
      <point x="583" y="-129" type="curve" smooth="yes"/>
      <point x="669" y="-129"/>
      <point x="753" y="-114"/>
      <point x="825" y="-86.5" type="curve"/>
    </contour>
  </outline>
</glyph>
<glyph name="uni093A" format="2">
  <unicode hex="093A"/>
  <anchor x="-243.5" y="1241.5" name="_top"/>
  <outline>
    <contour>
      <point x="-260.5" y="1675" type="line"/>
      <point x="-227" y="1675" type="line"/>
      <point x="-227" y="1239.5" type="line"/>
      <point x="-260.5" y="1239.5" type="line"/>
    </contour>
  </outline>
</glyph>
<glyph name="uni093B" format="2">
  <advance width="486"/>
  <unicode hex="093B"/>
  <outline>
    <contour>
      <point x="259.5" y="0" type="line"/>
      <point x="225" y="0" type="line"/>
      <point x="225" y="1230" type="line"/>
      <point x="259.5" y="1230" type="line"/>
    </contour>
    <contour>
      <point x="519" y="1221" type="line"/>
      <point x="-27" y="1221" type="line"/>
      <point x="-33.5" y="1250.5" type="line"/>
      <point x="512.5" y="1250.5" type="line"/>
    </contour>
    <contour>
      <point x="225.5" y="1675" type="line"/>
      <point x="259" y="1675" type="line"/>
      <point x="259" y="1239.5" type="line"/>
      <point x="225.5" y="1239.5" type="line"/>
    </contour>
  </outline>
  <guideline angle="90" x="89" y="0"/>
</glyph>
<glyph name="Nukta.dv" format="2">
  <unicode hex="093C"/>
  <anchor x="-464" y="80" name="_bottom4"/>
  <outline>
    <contour>
      <point x="-464" y="-132" type="curve" smooth="yes"/>
      <point x="-498.5" y="-132"/>
      <point x="-512.5" y="-109"/>
      <point x="-512.5" y="-71" type="curve"/>
      <point x="-512.5" y="-69.0114"/>
      <point x="-512.5" y="-63.7226"/>
      <point x="-512.5" y="-62" type="curve"/>
      <point x="-512.5" y="-22"/>
      <point x="-498.5" y="0"/>
      <point x="-464" y="0" type="curve" smooth="yes"/>
      <point x="-430.5" y="0"/>
      <point x="-416.5" y="-22"/>
      <point x="-416.5" y="-62" type="curve"/>
      <point x="-416.5" y="-63.9886"/>
      <point x="-416.5" y="-69.2774"/>
      <point x="-416.5" y="-71" type="curve"/>
      <point x="-416.5" y="-109.5"/>
      <point x="-430.5" y="-132"/>
    </contour>
  </outline>
</glyph>
<glyph name="Avagraha.dv" format="2">
  <advance width="917"/>
  <unicode hex="093D"/>
  <outline>
    <contour>
      <point x="86.5" y="176" type="line"/>
      <point x="183.5" y="87.8421"/>
      <point x="300.5" y="35"/>
      <point x="454.5" y="35" type="curve" smooth="yes"/>
      <point x="656.5" y="35"/>
      <point x="777.5" y="137.297"/>
      <point x="777.5" y="322.981" type="curve" smooth="yes"/>
      <point x="777.5" y="328.459" type="line" smooth="yes"/>
      <point x="777.5" y="520.917"/>
      <point x="692.869" y="597.288"/>
      <point x="452.876" y="678.022" type="curve" smooth="yes"/>
      <point x="222.41" y="755.551"/>
      <point x="131" y="835.654"/>
      <point x="131" y="991.965" type="curve" smooth="yes"/>
      <point x="131" y="1003.49" type="line" smooth="yes"/>
      <point x="131" y="1166.34"/>
      <point x="245.5" y="1250.5"/>
      <point x="449.5" y="1250.5" type="curve" smooth="yes"/>
      <point x="759.5" y="1250.5" type="line"/>
      <point x="765.5" y="1219" type="line"/>
      <point x="451.5" y="1219" type="line" smooth="yes"/>
      <point x="275.5" y="1219"/>
      <point x="167" y="1154.5"/>
      <point x="167" y="1003" type="curve" smooth="yes"/>
      <point x="167" y="992" type="line" smooth="yes"/>
      <point x="167" y="849"/>
      <point x="255.165" y="781.215"/>
      <point x="466.218" y="711.474" type="curve" smooth="yes"/>
      <point x="722.292" y="626.855"/>
      <point x="814.5" y="536.362"/>
      <point x="814.5" y="331" type="curve" smooth="yes"/>
      <point x="814.5" y="322.5" type="line" smooth="yes"/>
      <point x="814.5" y="116.1"/>
      <point x="683" y="0"/>
      <point x="455" y="0" type="curve" smooth="yes"/>
      <point x="294" y="0"/>
      <point x="175.5" y="51.6784"/>
      <point x="91" y="125.5" type="curve"/>
    </contour>
  </outline>
</glyph>
<glyph name="matraA.dv" format="2">
  <advance width="486"/>
  <unicode hex="093E"/>
  <outline>
    <contour>
      <point x="259.5" y="0" type="line"/>
      <point x="225" y="0" type="line"/>
      <point x="225" y="1230" type="line"/>
      <point x="259.5" y="1230" type="line"/>
    </contour>
    <contour>
      <point x="519" y="1221" type="line"/>
      <point x="-27" y="1221" type="line"/>
      <point x="-33.5" y="1250.5" type="line"/>
      <point x="512.5" y="1250.5" type="line"/>
    </contour>
  </outline>
</glyph>
<glyph name="matraI.dv" format="2">
  <advance width="486"/>
  <unicode hex="093F"/>
  <outline>
    <contour>
      <point x="259.5" y="0" type="line"/>
      <point x="225" y="0" type="line"/>
      <point x="225" y="1230" type="line"/>
      <point x="259.5" y="1230" type="line"/>
    </contour>
    <contour>
      <point x="519" y="1221" type="line"/>
      <point x="-27" y="1221" type="line"/>
      <point x="-33.5" y="1250.5" type="line"/>
      <point x="512.5" y="1250.5" type="line"/>
    </contour>
    <contour>
      <point x="685.833" y="1739.5" type="curve" smooth="yes"/>
      <point x="961.24" y="1739.5"/>
      <point x="1205.25" y="1611.98"/>
      <point x="1345.46" y="1427" type="curve"/>
      <point x="1357.5" y="1370.5" type="line"/>
      <point x="1351" y="1368.5" type="line"/>
      <point x="1196.16" y="1580.45"/>
      <point x="951.462" y="1707"/>
      <point x="685.798" y="1707" type="curve" smooth="yes"/>
      <point x="410.973" y="1707"/>
      <point x="259.5" y="1587.7"/>
      <point x="259.5" y="1333" type="curve" smooth="yes"/>
      <point x="259.5" y="1240" type="line"/>
      <point x="225" y="1240" type="line"/>
      <point x="225" y="1335.5" type="line" smooth="yes"/>
      <point x="225" y="1610.64"/>
      <point x="389.193" y="1739.5"/>
    </contour>
  </outline>
</glyph>
<glyph name="matraU.dv" format="2">
  <unicode hex="0941"/>
  <anchor x="-252.5" y="9" name="_bottom"/>
  <outline>
    <contour>
      <point x="-735.5" y="-189.5" type="line"/>
      <point x="-645.5" y="-387.5"/>
      <point x="-526.182" y="-496.5"/>
      <point x="-333.62" y="-496.5" type="curve" smooth="yes"/>
      <point x="-171.902" y="-496.5"/>
      <point x="-83.5" y="-416.5"/>
      <point x="-83.5" y="-258" type="curve" smooth="yes"/>
      <point x="-83.5" y="-243.5" type="line" smooth="yes"/>
      <point x="-83.5" y="-99.5"/>
      <point x="-151.174" y="-25.5"/>
      <point x="-280.468" y="-25.5" type="curve" smooth="yes"/>
      <point x="-357.826" y="-25.5"/>
      <point x="-428.5" y="-54.5"/>
      <point x="-494" y="-102.5" type="curve"/>
      <point x="-489.5" y="-60" type="line"/>
      <point x="-433" y="-19"/>
      <point x="-364.5" y="9"/>
      <point x="-280.647" y="9" type="curve" smooth="yes"/>
      <point x="-124.724" y="9"/>
      <point x="-47.5" y="-81.5"/>
      <point x="-47.5" y="-243.5" type="curve" smooth="yes"/>
      <point x="-47.5" y="-259" type="line" smooth="yes"/>
      <point x="-47.5" y="-439"/>
      <point x="-142.89" y="-530.5"/>
      <point x="-331.661" y="-530.5" type="curve" smooth="yes"/>
      <point x="-551.761" y="-530.5"/>
      <point x="-678.5" y="-410.5"/>
      <point x="-777" y="-189.5" type="curve"/>
    </contour>
  </outline>
</glyph>
<glyph name="matraUu.dv" format="2">
  <unicode hex="0942"/>
  <anchor x="-243" y="9" name="_bottom"/>
  <outline>
    <contour>
      <point x="-148.791" y="-482.5" type="line"/>
      <point x="-193.307" y="-515.5"/>
      <point x="-253.321" y="-531.5"/>
      <point x="-327.5" y="-531.5" type="curve" smooth="yes"/>
      <point x="-482.249" y="-531.5"/>
      <point x="-586.5" y="-449.142"/>
      <point x="-586.5" y="-275" type="curve" smooth="yes"/>
      <point x="-586.5" y="-257" type="line" smooth="yes"/>
      <point x="-586.5" y="-79.1808"/>
      <point x="-478.5" y="9"/>
      <point x="-307" y="9" type="curve" smooth="yes"/>
      <point x="-56" y="9"/>
      <point x="50.5" y="-171.5"/>
      <point x="146.5" y="-533" type="curve"/>
      <point x="109.5" y="-533" type="line"/>
      <point x="18" y="-196.5"/>
      <point x="-79" y="-24.5"/>
      <point x="-306" y="-24.5" type="curve" smooth="yes"/>
      <point x="-455" y="-24.5"/>
      <point x="-550.5" y="-97.1418"/>
      <point x="-550.5" y="-258" type="curve" smooth="yes"/>
      <point x="-550.5" y="-274" type="line" smooth="yes"/>
      <point x="-550.5" y="-428.619"/>
      <point x="-462.337" y="-498"/>
      <point x="-327.5" y="-498" type="curve" smooth="yes"/>
      <point x="-256.633" y="-498"/>
      <point x="-200.056" y="-483"/>
      <point x="-144" y="-441.5" type="curve"/>
    </contour>
  </outline>
</glyph>
<glyph name="matraRu.dv" format="2">
  <unicode hex="0943"/>
  <anchor x="-243" y="9" name="_bottom"/>
  <outline>
    <contour>
      <point x="-307.5" y="-512" type="curve" smooth="yes"/>
      <point x="-488" y="-512"/>
      <point x="-593" y="-418.5"/>
      <point x="-593" y="-257" type="curve" smooth="yes"/>
      <point x="-593" y="-238.5" type="line" smooth="yes"/>
      <point x="-593" y="-64"/>
      <point x="-495" y="15.5"/>
      <point x="-293" y="15.5" type="curve" smooth="yes"/>
      <point x="-225.602" y="15.5" type="line"/>
      <point x="-225.602" y="-16.5" type="line"/>
      <point x="-287.5" y="-16.5" type="line" smooth="yes"/>
      <point x="-470" y="-16.5"/>
      <point x="-557" y="-83.5"/>
      <point x="-557" y="-240.5" type="curve" smooth="yes"/>
      <point x="-557" y="-255.5" type="line" smooth="yes"/>
      <point x="-557" y="-399.5"/>
      <point x="-467" y="-477.5"/>
      <point x="-308" y="-477.5" type="curve" smooth="yes"/>
      <point x="-208" y="-477.5"/>
      <point x="-131" y="-451.5"/>
      <point x="-60" y="-394" type="curve"/>
      <point x="-64.5" y="-438.5" type="line"/>
      <point x="-122" y="-484.5"/>
      <point x="-205" y="-512"/>
    </contour>
  </outline>
</glyph>
<glyph name="matraRuu.dv" format="2">
  <unicode hex="0944"/>
  <anchor x="-243" y="9" name="_bottom"/>
  <outline>
    <contour>
      <point x="-226" y="15.5" type="line"/>
      <point x="-226" y="-16" type="line"/>
      <point x="-341.111" y="-16" type="line" smooth="yes"/>
      <point x="-486.905" y="-16"/>
      <point x="-555" y="-69.5"/>
      <point x="-555" y="-176.5" type="curve" smooth="yes"/>
      <point x="-555" y="-181.5" type="line" smooth="yes"/>
      <point x="-555" y="-276"/>
      <point x="-484.455" y="-334"/>
      <point x="-360.331" y="-334" type="curve" smooth="yes"/>
      <point x="-279.07" y="-334"/>
      <point x="-212.99" y="-316.5"/>
      <point x="-154.5" y="-271" type="curve"/>
      <point x="-158.103" y="-311.5" type="line"/>
      <point x="-208.55" y="-350"/>
      <point x="-277.012" y="-367.5"/>
      <point x="-362.591" y="-367.5" type="curve" smooth="yes"/>
      <point x="-512.128" y="-367.5"/>
      <point x="-590.5" y="-294.5"/>
      <point x="-590.5" y="-181.5" type="curve" smooth="yes"/>
      <point x="-590.5" y="-174.5" type="line" smooth="yes"/>
      <point x="-590.5" y="-52"/>
      <point x="-514.925" y="15.5"/>
      <point x="-347.423" y="15.5" type="curve" smooth="yes"/>
    </contour>
    <contour>
      <point x="-393.5" y="-362" type="line"/>
      <point x="-498.5" y="-372"/>
      <point x="-555" y="-420"/>
      <point x="-555" y="-504" type="curve" smooth="yes"/>
      <point x="-555" y="-510" type="line" smooth="yes"/>
      <point x="-555" y="-609.5"/>
      <point x="-474.463" y="-662"/>
      <point x="-353.211" y="-662" type="curve" smooth="yes"/>
      <point x="-274.016" y="-662"/>
      <point x="-204.665" y="-641.5"/>
      <point x="-146.5" y="-597" type="curve"/>
      <point x="-150.111" y="-637.5" type="line"/>
      <point x="-200.207" y="-675.5"/>
      <point x="-271.967" y="-696"/>
      <point x="-355.009" y="-696" type="curve" smooth="yes"/>
      <point x="-499.431" y="-696"/>
      <point x="-591.5" y="-628.5"/>
      <point x="-591.5" y="-511" type="curve" smooth="yes"/>
      <point x="-591.5" y="-504" type="line" smooth="yes"/>
      <point x="-591.5" y="-415.5"/>
      <point x="-531.5" y="-357.5"/>
      <point x="-434.5" y="-347" type="curve"/>
      <point x="-434.5" y="-340.5" type="line"/>
    </contour>
  </outline>
</glyph>
<glyph name="matraShortE.dv" format="2">
  <unicode hex="0946"/>
  <anchor x="-243" y="1241.5" name="_top"/>
  <outline>
    <contour>
      <point x="-880" y="1767" type="curve" smooth="yes"/>
      <point x="-880" y="1633.5"/>
      <point x="-823.535" y="1566.48"/>
      <point x="-661" y="1565.5" type="curve" smooth="yes"/>
      <point x="-494.5" y="1564.5" type="line" smooth="yes"/>
      <point x="-298.463" y="1563.32"/>
      <point x="-226" y="1472.5"/>
      <point x="-226" y="1302" type="curve" smooth="yes"/>
      <point x="-226" y="1240.5" type="line"/>
      <point x="-259.5" y="1240.5" type="line"/>
      <point x="-259.5" y="1302" type="line" smooth="yes"/>
      <point x="-259.5" y="1454"/>
      <point x="-321.468" y="1530.46"/>
      <point x="-496.5" y="1531.5" type="curve" smooth="yes"/>
      <point x="-664" y="1532.5" type="line" smooth="yes"/>
      <point x="-844.541" y="1533.58"/>
      <point x="-913" y="1616.5"/>
      <point x="-913" y="1755" type="curve" smooth="yes"/>
      <point x="-913" y="1771.5"/>
      <point x="-912" y="1785"/>
      <point x="-909.5" y="1801" type="curve"/>
      <point x="-880" y="1801" type="line"/>
      <point x="-880" y="1798.21"/>
      <point x="-880" y="1769.86"/>
    </contour>
  </outline>
  <guideline angle="90" x="-169" y="0"/>
  <guideline angle="90" x="-43" y="0"/>
  <guideline angle="0" x="0" y="1262"/>
</glyph>
<glyph name="matraE.dv" format="2">
  <unicode hex="0947"/>
  <anchor x="-243" y="1241.5" name="_top"/>
  <outline>
    <contour>
      <point x="-874.5" y="1772" type="line"/>
      <point x="-828.5" y="1772" type="line"/>
      <point x="-708.76" y="1667.8"/>
      <point x="-340.866" y="1347.65"/>
      <point x="-227.5" y="1249" type="curve"/>
      <point x="-227.5" y="1241.5" type="line"/>
      <point x="-265" y="1241.5" type="line"/>
      <point x="-265" y="1248" type="line"/>
      <point x="-373.5" y="1334.5"/>
      <point x="-473.901" y="1419.93"/>
      <point x="-588" y="1518.5" type="curve" smooth="yes"/>
      <point x="-874.5" y="1766" type="line"/>
    </contour>
  </outline>
</glyph>
<glyph name="matraAChandra.dv" format="2">
  <advance width="486"/>
  <unicode hex="0949"/>
  <outline>
    <contour>
      <point x="259.5" y="0" type="line"/>
      <point x="225" y="0" type="line"/>
      <point x="225" y="1230" type="line"/>
      <point x="259.5" y="1230" type="line"/>
    </contour>
    <contour>
      <point x="519" y="1221" type="line"/>
      <point x="-27" y="1221" type="line"/>
      <point x="-33.5" y="1250.5" type="line"/>
      <point x="512.5" y="1250.5" type="line"/>
    </contour>
    <contour>
      <point x="264" y="1741" type="line"/>
      <point x="264" y="1726.5"/>
      <point x="264" y="1717"/>
      <point x="264" y="1707.5" type="curve" smooth="yes"/>
      <point x="264" y="1525.5"/>
      <point x="175" y="1442"/>
      <point x="4.5" y="1442" type="curve" smooth="yes"/>
      <point x="-165" y="1442"/>
      <point x="-253.5" y="1525.5"/>
      <point x="-253.5" y="1707.5" type="curve" smooth="yes"/>
      <point x="-253.5" y="1717"/>
      <point x="-253.5" y="1726.5"/>
      <point x="-253.5" y="1741" type="curve"/>
      <point x="-219.5" y="1741" type="line"/>
      <point x="-219.5" y="1737.41"/>
      <point x="-219.5" y="1712.08"/>
      <point x="-219.5" y="1710" type="curve" smooth="yes"/>
      <point x="-219.5" y="1545"/>
      <point x="-142.5" y="1473.5"/>
      <point x="4.5" y="1473.5" type="curve" smooth="yes"/>
      <point x="153" y="1473.5"/>
      <point x="229.5" y="1545"/>
      <point x="229.5" y="1710" type="curve" smooth="yes"/>
      <point x="229.5" y="1712.28"/>
      <point x="229.5" y="1738.21"/>
      <point x="229.5" y="1741" type="curve"/>
    </contour>
  </outline>
</glyph>
<glyph name="matraAu.dv" format="2">
  <advance width="486"/>
  <unicode hex="094C"/>
  <outline>
    <contour>
      <point x="259.5" y="0" type="line"/>
      <point x="225" y="0" type="line"/>
      <point x="225" y="1230" type="line"/>
      <point x="259.5" y="1230" type="line"/>
    </contour>
    <contour>
      <point x="519" y="1221" type="line"/>
      <point x="-27" y="1221" type="line"/>
      <point x="-33.5" y="1250.5" type="line"/>
      <point x="512.5" y="1250.5" type="line"/>
    </contour>
    <contour>
      <point x="-390" y="1604" type="line"/>
      <point x="216.5" y="1274.5" type="line"/>
      <point x="218.5" y="1277" type="line"/>
      <point x="128" y="1410.13"/>
      <point x="64.4856" y="1508.08"/>
      <point x="-8.5" y="1626.5" type="curve" smooth="yes"/>
      <point x="-163.5" y="1878" type="line"/>
      <point x="-163.5" y="1883" type="line"/>
      <point x="-125" y="1883" type="line"/>
      <point x="260.5" y="1249" type="line"/>
      <point x="260.5" y="1241.5" type="line"/>
      <point x="223" y="1241.5" type="line"/>
      <point x="223" y="1249.5" type="line"/>
      <point x="85.5" y="1312"/>
      <point x="-27.25" y="1370.55"/>
      <point x="-165.5" y="1444.5" type="curve" smooth="yes"/>
      <point x="-445" y="1594" type="line"/>
      <point x="-445" y="1604" type="line"/>
    </contour>
  </outline>
</glyph>
<glyph name="Halant.dv" format="2">
  <unicode hex="094D"/>
  <anchor x="-248" y="9" name="_bottom2"/>
  <outline>
    <contour>
      <point x="-267" y="-133.5" type="line"/>
      <point x="-226" y="-133.5" type="line"/>
      <point x="84" y="-549.5" type="line"/>
      <point x="84" y="-553.5" type="line"/>
      <point x="46.5" y="-553.5" type="line"/>
      <point x="-267" y="-138" type="line"/>
    </contour>
  </outline>
</glyph>
<glyph name="uni094E" format="2">
  <advance width="486"/>
  <unicode hex="094E"/>
  <outline>
    <contour>
      <point x="259.5" y="1230" type="line"/>
      <point x="259.5" y="0" type="line"/>
      <point x="225" y="0" type="line"/>
      <point x="225" y="1230" type="line"/>
    </contour>
    <contour>
      <point x="225" y="1221" type="line"/>
      <point x="225" y="1250.5" type="line"/>
      <point x="512.5" y="1250.5" type="line"/>
      <point x="519" y="1221" type="line"/>
    </contour>
  </outline>
</glyph>
<glyph name="uni094F" format="2">
  <advance width="486"/>
  <unicode hex="094F"/>
  <outline>
    <contour>
      <point x="-431.5" y="1608" type="curve" smooth="yes"/>
      <point x="-431.5" y="1620"/>
      <point x="-431.5" y="1634"/>
      <point x="-428.5" y="1649" type="curve"/>
      <point x="-399" y="1649" type="line"/>
      <point x="-399" y="1619.5" type="line" smooth="yes"/>
      <point x="-399" y="1510.5"/>
      <point x="-331.951" y="1481.73"/>
      <point x="-173" y="1467.5" type="curve" smooth="yes"/>
      <point x="-44.5" y="1456" type="line" smooth="yes"/>
      <point x="134.851" y="1439.95"/>
      <point x="195.633" y="1395.26"/>
      <point x="229.5" y="1333" type="curve"/>
      <point x="232.5" y="1333.5" type="line"/>
      <point x="228.529" y="1499.5"/>
      <point x="187.286" y="1584.45"/>
      <point x="56.5" y="1630" type="curve" smooth="yes"/>
      <point x="-44" y="1665" type="line" smooth="yes"/>
      <point x="-167.31" y="1707.94"/>
      <point x="-214" y="1768"/>
      <point x="-214" y="1867" type="curve" smooth="yes"/>
      <point x="-214" y="1882"/>
      <point x="-213" y="1895"/>
      <point x="-210.5" y="1908" type="curve"/>
      <point x="-181" y="1908" type="line"/>
      <point x="-181" y="1888" type="line" smooth="yes"/>
      <point x="-181" y="1774"/>
      <point x="-136.847" y="1733.61"/>
      <point x="-30" y="1696" type="curve" smooth="yes"/>
      <point x="68" y="1661.5" type="line" smooth="yes"/>
      <point x="216.535" y="1609.21"/>
      <point x="259" y="1527.5"/>
      <point x="259" y="1323.5" type="curve" smooth="yes"/>
      <point x="259" y="1239.5" type="line"/>
      <point x="225.5" y="1239.5" type="line"/>
      <point x="225.5" y="1262.5" type="line" smooth="yes"/>
      <point x="225.5" y="1348.5"/>
      <point x="148.791" y="1407.66"/>
      <point x="-46.5" y="1424" type="curve" smooth="yes"/>
      <point x="-178" y="1435" type="line" smooth="yes"/>
      <point x="-354.803" y="1449.79"/>
      <point x="-431.5" y="1494"/>
    </contour>
    <contour>
      <point x="259.5" y="0" type="line"/>
      <point x="225" y="0" type="line"/>
      <point x="225" y="1230" type="line"/>
      <point x="259.5" y="1230" type="line"/>
    </contour>
    <contour>
      <point x="519" y="1221" type="line"/>
      <point x="-27" y="1221" type="line"/>
      <point x="-33.5" y="1250.5" type="line"/>
      <point x="512.5" y="1250.5" type="line"/>
    </contour>
  </outline>
</glyph>
<glyph name="Udatta.dv" format="2">
  <unicode hex="0951"/>
  <anchor x="-243" y="1241.5" name="_top"/>
  <outline>
    <contour>
      <point x="-259.5" y="1470.5" type="line"/>
      <point x="-259.5" y="1908" type="line"/>
      <point x="-226" y="1908" type="line"/>
      <point x="-226" y="1470.5" type="line"/>
    </contour>
  </outline>
  <guideline angle="90" x="-169" y="0"/>
  <guideline angle="0" x="0" y="1262"/>
</glyph>
<glyph name="Anudatta.dv" format="2">
  <unicode hex="0952"/>
  <anchor x="-225" y="9" name="_bottom3"/>
  <outline>
    <contour>
      <point x="-932.5" y="-375.5" type="line"/>
      <point x="-940" y="-341.5" type="line"/>
      <point x="-228.5" y="-341.5" type="line"/>
      <point x="-222" y="-375.5" type="line"/>
    </contour>
  </outline>
</glyph>
<glyph name="uni0953" format="2">
  <unicode hex="0953"/>
  <anchor x="-243" y="1241.5" name="_top"/>
  <outline>
    <contour>
      <point x="-276" y="1433" type="line"/>
      <point x="-566.5" y="1765.5" type="line"/>
      <point x="-566.5" y="1770" type="line"/>
      <point x="-525" y="1770" type="line"/>
      <point x="-238.5" y="1437.5" type="line"/>
      <point x="-238.5" y="1433" type="line"/>
    </contour>
  </outline>
</glyph>
<glyph name="uni0954" format="2">
  <unicode hex="0954"/>
  <anchor x="-243" y="1241.5" name="_top"/>
  <outline>
    <contour>
      <point x="-214.5" y="1433" type="line"/>
      <point x="-252.5" y="1433" type="line"/>
      <point x="-252.5" y="1437.5" type="line"/>
      <point x="34" y="1770" type="line"/>
      <point x="75.5" y="1770" type="line"/>
      <point x="75.5" y="1765.5" type="line"/>
    </contour>
  </outline>
</glyph>
<glyph name="uni0955" format="2">
  <unicode hex="0955"/>
  <anchor x="-243" y="1241.5" name="_top"/>
  <outline>
    <contour>
      <point x="-31.5" y="1865" type="line"/>
      <point x="-1" y="1865" type="line"/>
      <point x="-1" y="1853"/>
      <point x="-1" y="1840.5"/>
      <point x="-1" y="1831.5" type="curve" smooth="yes"/>
      <point x="-1" y="1678"/>
      <point x="-80" y="1606"/>
      <point x="-244" y="1606" type="curve" smooth="yes"/>
      <point x="-406.5" y="1606"/>
      <point x="-486" y="1678"/>
      <point x="-486" y="1831.5" type="curve" smooth="yes"/>
      <point x="-486" y="1840.5"/>
      <point x="-486" y="1853"/>
      <point x="-486" y="1865" type="curve"/>
      <point x="-455" y="1865" type="line"/>
      <point x="-455" y="1833.5" type="line" smooth="yes"/>
      <point x="-455" y="1694"/>
      <point x="-386" y="1636"/>
      <point x="-244" y="1636" type="curve" smooth="yes"/>
      <point x="-102" y="1636"/>
      <point x="-31.5" y="1693.5"/>
      <point x="-31.5" y="1833" type="curve" smooth="yes"/>
    </contour>
    <contour>
      <point x="-505.5" y="1426.5" type="line"/>
      <point x="-505.5" y="1456" type="line"/>
      <point x="19" y="1456" type="line"/>
      <point x="19" y="1426.5" type="line"/>
    </contour>
  </outline>
  <guideline angle="90" x="-169" y="0"/>
  <guideline angle="0" x="0" y="1262"/>
</glyph>
<glyph name="uni0956" format="2">
  <unicode hex="0956"/>
  <anchor x="-243" y="30" name="_bottom5"/>
  <outline>
    <contour>
      <point x="-248.251" y="-330.25" type="curve" smooth="yes"/>
      <point x="-383.374" y="-330.25"/>
      <point x="-509.65" y="-304.066"/>
      <point x="-601.25" y="-247.25" type="curve"/>
      <point x="-604.25" y="-208.25" type="line"/>
      <point x="-507.597" y="-269.75"/>
      <point x="-383.072" y="-295.75"/>
      <point x="-248.25" y="-295.75" type="curve" smooth="yes"/>
      <point x="-113.428" y="-295.75"/>
      <point x="10.0975" y="-269.75"/>
      <point x="107.75" y="-208.25" type="curve"/>
      <point x="104.75" y="-247.25" type="line"/>
      <point x="12.1502" y="-304.066"/>
      <point x="-113.128" y="-330.25"/>
    </contour>
  </outline>
</glyph>
<glyph name="KaNukta.dv" format="2">
  <advance width="1520"/>
  <unicode hex="0958"/>
  <anchor x="767" y="9" name="bottom"/>
  <anchor x="761.5" y="9" name="bottom2"/>
  <anchor x="1126" y="9" name="bottom3"/>
  <anchor x="766.5" y="30" name="bottom5"/>
  <anchor x="766.5" y="1241.5" name="top"/>
  <outline>
    <contour>
      <point x="-25" y="1221" type="line"/>
      <point x="-32" y="1251" type="line"/>
      <point x="1547" y="1251" type="line"/>
      <point x="1554" y="1221" type="line"/>
    </contour>
    <contour>
      <point x="141" y="563" type="curve" smooth="yes"/>
      <point x="141" y="612" type="line" smooth="yes"/>
      <point x="141" y="845.677"/>
      <point x="249.721" y="956"/>
      <point x="451" y="956" type="curve" smooth="yes"/>
      <point x="515" y="956"/>
      <point x="568" y="947.345"/>
      <point x="615" y="928" type="curve"/>
      <point x="620" y="891" type="line"/>
      <point x="564.647" y="913.281"/>
      <point x="514.272" y="922"/>
      <point x="452" y="922" type="curve" smooth="yes"/>
      <point x="273.736" y="922"/>
      <point x="178" y="825.806"/>
      <point x="178" y="609" type="curve" smooth="yes"/>
      <point x="178" y="565" type="line" smooth="yes"/>
      <point x="178" y="345.276"/>
      <point x="273.705" y="248"/>
      <point x="464" y="248" type="curve" smooth="yes"/>
      <point x="628.463" y="248"/>
      <point x="724.805" y="330"/>
      <point x="754" y="474" type="curve"/>
      <point x="758" y="412" type="line"/>
      <point x="755" y="412" type="line"/>
      <point x="732.658" y="305"/>
      <point x="643.439" y="214"/>
      <point x="463" y="214" type="curve" smooth="yes"/>
      <point x="250.077" y="214"/>
      <point x="141" y="326.415"/>
    </contour>
    <contour>
      <point x="1380" y="608" type="curve" smooth="yes"/>
      <point x="1380" y="558" type="line" smooth="yes"/>
      <point x="1380" y="320.183"/>
      <point x="1283.35" y="214"/>
      <point x="1091" y="214" type="curve" smooth="yes"/>
      <point x="1026" y="214"/>
      <point x="966.284" y="224.629"/>
      <point x="919" y="247" type="curve"/>
      <point x="914" y="286" type="line"/>
      <point x="967.676" y="260.117"/>
      <point x="1024" y="248"/>
      <point x="1090" y="248" type="curve" smooth="yes"/>
      <point x="1259" y="248"/>
      <point x="1343" y="340"/>
      <point x="1343" y="561" type="curve" smooth="yes"/>
      <point x="1343" y="605" type="line" smooth="yes"/>
      <point x="1343" y="823.167"/>
      <point x="1253" y="922"/>
      <point x="1072" y="922" type="curve" smooth="yes"/>
      <point x="911.578" y="922"/>
      <point x="810.898" y="843"/>
      <point x="781" y="703" type="curve"/>
      <point x="776" y="761" type="line"/>
      <point x="778" y="761" type="line"/>
      <point x="800.922" y="865.924"/>
      <point x="899.612" y="956"/>
      <point x="1071" y="956" type="curve" smooth="yes"/>
      <point x="1279" y="956"/>
      <point x="1380" y="842.013"/>
    </contour>
    <contour>
      <point x="783.5" y="1230" type="line"/>
      <point x="783.5" y="0" type="line"/>
      <point x="749" y="0" type="line"/>
      <point x="749" y="1230" type="line"/>
    </contour>
    <contour>
      <point x="376.5" y="-116.5" type="curve" smooth="yes"/>
      <point x="342" y="-116.5"/>
      <point x="328" y="-93.5"/>
      <point x="328" y="-55.5" type="curve"/>
      <point x="328" y="-53.5114"/>
      <point x="328" y="-48.2226"/>
      <point x="328" y="-46.5" type="curve"/>
      <point x="328" y="-6.49999"/>
      <point x="342" y="15.5"/>
      <point x="376.5" y="15.5" type="curve" smooth="yes"/>
      <point x="410" y="15.5"/>
      <point x="424" y="-6.49999"/>
      <point x="424" y="-46.5" type="curve"/>
      <point x="424" y="-48.4886"/>
      <point x="424" y="-53.7774"/>
      <point x="424" y="-55.5" type="curve"/>
      <point x="424" y="-94"/>
      <point x="410" y="-116.5"/>
    </contour>
  </outline>
</glyph>
<glyph name="DdaNukta.dv" format="2">
  <advance width="1020"/>
  <unicode hex="095C"/>
  <anchor x="545" y="-465" name="bottom"/>
  <anchor x="502" y="-361" name="bottom2"/>
  <anchor x="859" y="-239" name="bottom3"/>
  <anchor x="530" y="27.5" name="bottom5"/>
  <anchor x="805.501" y="1241.5" name="top"/>
  <outline>
    <contour>
      <point x="656.501" y="1221" type="line"/>
      <point x="650.001" y="1250.5" type="line"/>
      <point x="1025.5" y="1250.5" type="line"/>
      <point x="1032" y="1221" type="line"/>
    </contour>
    <contour>
      <point x="822.501" y="1230.5" type="line"/>
      <point x="822.501" y="974.5" type="line"/>
      <point x="788.501" y="974" type="line"/>
      <point x="788.501" y="1230.5" type="line"/>
    </contour>
    <contour>
      <point x="1048" y="1221" type="line"/>
      <point x="-24" y="1221" type="line"/>
      <point x="-30" y="1251" type="line"/>
      <point x="1042" y="1251" type="line"/>
    </contour>
    <contour>
      <point x="789" y="1236" type="line"/>
      <point x="824" y="1236" type="line"/>
      <point x="824" y="899" type="line"/>
      <point x="813" y="904"/>
      <point x="793" y="910"/>
      <point x="789" y="920" type="curve"/>
    </contour>
    <contour>
      <point x="119" y="154" type="line"/>
      <point x="221.233" y="78"/>
      <point x="352.978" y="31"/>
      <point x="524.978" y="31" type="curve" smooth="yes"/>
      <point x="742.962" y="31"/>
      <point x="852" y="113.126"/>
      <point x="852" y="271.469" type="curve" smooth="yes"/>
      <point x="852" y="283.346" type="line" smooth="yes"/>
      <point x="852" y="426.816"/>
      <point x="772.96" y="512"/>
      <point x="563.977" y="512" type="curve" smooth="yes"/>
      <point x="441.734" y="512"/>
      <point x="355.114" y="489"/>
      <point x="265.371" y="448" type="curve"/>
      <point x="182.497" y="510.916"/>
      <point x="142" y="590"/>
      <point x="142" y="679" type="curve" smooth="yes"/>
      <point x="142" y="688" type="line" smooth="yes"/>
      <point x="142" y="863"/>
      <point x="251" y="960"/>
      <point x="525" y="960" type="curve" smooth="yes"/>
      <point x="630" y="960"/>
      <point x="728" y="950"/>
      <point x="824" y="932" type="curve"/>
      <point x="824" y="899" type="line"/>
      <point x="721" y="918"/>
      <point x="629" y="927"/>
      <point x="526" y="927" type="curve" smooth="yes"/>
      <point x="276" y="927"/>
      <point x="178" y="842"/>
      <point x="178" y="687" type="curve" smooth="yes"/>
      <point x="178" y="680" type="line" smooth="yes"/>
      <point x="178" y="595.432"/>
      <point x="214" y="533.967"/>
      <point x="272" y="487" type="curve"/>
      <point x="352.121" y="522"/>
      <point x="445.974" y="546"/>
      <point x="563.974" y="546" type="curve" smooth="yes"/>
      <point x="795.954" y="546"/>
      <point x="888" y="448.857"/>
      <point x="888" y="284.356" type="curve" smooth="yes"/>
      <point x="888" y="270.482" type="line" smooth="yes"/>
      <point x="888" y="86.1697"/>
      <point x="765.963" y="-3"/>
      <point x="525.979" y="-3" type="curve" smooth="yes"/>
      <point x="344.979" y="-3"/>
      <point x="213.304" y="45"/>
      <point x="123.913" y="109" type="curve"/>
    </contour>
    <contour>
      <point x="511" y="-313.5" type="curve" smooth="yes"/>
      <point x="476.5" y="-313.5"/>
      <point x="462.5" y="-290.5"/>
      <point x="462.5" y="-252.5" type="curve"/>
      <point x="462.5" y="-250.511"/>
      <point x="462.5" y="-245.223"/>
      <point x="462.5" y="-243.5" type="curve"/>
      <point x="462.5" y="-203.5"/>
      <point x="476.5" y="-181.5"/>
      <point x="511" y="-181.5" type="curve" smooth="yes"/>
      <point x="544.5" y="-181.5"/>
      <point x="558.5" y="-203.5"/>
      <point x="558.5" y="-243.5" type="curve"/>
      <point x="558.5" y="-245.489"/>
      <point x="558.5" y="-250.777"/>
      <point x="558.5" y="-252.5" type="curve"/>
      <point x="558.5" y="-291"/>
      <point x="544.5" y="-313.5"/>
    </contour>
  </outline>
</glyph>
<glyph name="PhaNukta.dv" format="2">
  <advance width="1557"/>
  <unicode hex="095E"/>
  <anchor x="800" y="9" name="bottom"/>
  <anchor x="794" y="9" name="bottom2"/>
  <anchor x="1163" y="9" name="bottom3"/>
  <anchor x="799" y="30" name="bottom5"/>
  <anchor x="799" y="1241.5" name="top"/>
  <outline>
    <contour>
      <point x="-27.5" y="1221" type="line"/>
      <point x="-34" y="1250.5" type="line"/>
      <point x="1584" y="1250.5" type="line"/>
      <point x="1590" y="1221" type="line"/>
    </contour>
    <contour>
      <point x="492" y="349.5" type="curve" smooth="yes"/>
      <point x="296" y="349.5"/>
      <point x="181.5" y="455"/>
      <point x="181.5" y="702.5" type="curve" smooth="yes"/>
      <point x="181.5" y="1228" type="line"/>
      <point x="217" y="1228" type="line"/>
      <point x="217" y="705.5" type="line" smooth="yes"/>
      <point x="217" y="477.5"/>
      <point x="316" y="384"/>
      <point x="492" y="384" type="curve" smooth="yes"/>
      <point x="655.5" y="384"/>
      <point x="744.5" y="456.5"/>
      <point x="785" y="591.5" type="curve"/>
      <point x="789" y="533" type="line"/>
      <point x="785" y="533" type="line"/>
      <point x="755" y="431.5"/>
      <point x="666" y="349.5"/>
    </contour>
    <contour>
      <point x="1112.49" y="890" type="curve" smooth="yes"/>
      <point x="962.977" y="890"/>
      <point x="854.216" y="815.5"/>
      <point x="812.5" y="677.5" type="curve"/>
      <point x="807.5" y="728.5" type="line"/>
      <point x="810.5" y="728.5" type="line"/>
      <point x="840.275" y="836.5"/>
      <point x="947.478" y="924"/>
      <point x="1113.49" y="924" type="curve" smooth="yes"/>
      <point x="1311.99" y="924"/>
      <point x="1417" y="811"/>
      <point x="1417" y="574.5" type="curve" smooth="yes"/>
      <point x="1417" y="522.5" type="line" smooth="yes"/>
      <point x="1417" y="281"/>
      <point x="1317.38" y="186.5"/>
      <point x="1143.42" y="186.5" type="curve" smooth="yes"/>
      <point x="1082.93" y="186.5"/>
      <point x="1032.57" y="198.5"/>
      <point x="999.479" y="214.5" type="curve"/>
      <point x="995" y="253.5" type="line"/>
      <point x="1036" y="233"/>
      <point x="1086.92" y="221"/>
      <point x="1140.81" y="221" type="curve" smooth="yes"/>
      <point x="1293.83" y="221"/>
      <point x="1380.5" y="302.5"/>
      <point x="1380.5" y="525.5" type="curve" smooth="yes"/>
      <point x="1380.5" y="572" type="line" smooth="yes"/>
      <point x="1380.5" y="791.5"/>
      <point x="1288.99" y="890"/>
    </contour>
    <contour>
      <point x="817" y="1230" type="line"/>
      <point x="817" y="0" type="line"/>
      <point x="781.5" y="0" type="line"/>
      <point x="781.5" y="1230" type="line"/>
    </contour>
    <contour>
      <point x="279" y="-14" type="curve" smooth="yes"/>
      <point x="244.5" y="-14"/>
      <point x="230.5" y="9"/>
      <point x="230.5" y="47" type="curve"/>
      <point x="230.5" y="48.9886"/>
      <point x="230.5" y="54.2774"/>
      <point x="230.5" y="56" type="curve"/>
      <point x="230.5" y="96"/>
      <point x="244.5" y="118"/>
      <point x="279" y="118" type="curve" smooth="yes"/>
      <point x="312.5" y="118"/>
      <point x="326.5" y="96"/>
      <point x="326.5" y="56" type="curve"/>
      <point x="326.5" y="54.0114"/>
      <point x="326.5" y="48.7226"/>
      <point x="326.5" y="47" type="curve"/>
      <point x="326.5" y="8.5"/>
      <point x="312.5" y="-14"/>
    </contour>
  </outline>
</glyph>
<glyph name="YaNukta.dv" format="2">
  <advance width="1201"/>
  <unicode hex="095F"/>
  <anchor x="957.5" y="9" name="bottom"/>
  <anchor x="951.5" y="9" name="bottom2"/>
  <anchor x="974.5" y="9" name="bottom3"/>
  <anchor x="956.5" y="30" name="bottom5"/>
  <anchor x="956" y="1241.5" name="top"/>
  <outline>
    <contour>
      <point x="974" y="1230" type="line"/>
      <point x="974" y="0" type="line"/>
      <point x="939.5" y="0" type="line"/>
      <point x="939.5" y="1230" type="line"/>
    </contour>
    <contour>
      <point x="801.5" y="1221" type="line"/>
      <point x="795" y="1250.5" type="line"/>
      <point x="1227" y="1250.5" type="line"/>
      <point x="1233.5" y="1221" type="line"/>
    </contour>
    <contour>
      <point x="-34" y="1250.5" type="line"/>
      <point x="1125.5" y="1250.5" type="line"/>
      <point x="1132" y="1221" type="line"/>
      <point x="-27.5" y="1221" type="line"/>
    </contour>
    <contour>
      <point x="411.5" y="1229.5" type="line"/>
      <point x="472" y="1185.04"/>
      <point x="504.5" y="1104.9"/>
      <point x="504.5" y="994.96" type="curve" smooth="yes"/>
      <point x="504.5" y="979.812" type="line" smooth="yes"/>
      <point x="504.5" y="790.748"/>
      <point x="404.125" y="714"/>
      <point x="191.715" y="714" type="curve" smooth="yes"/>
      <point x="139.5" y="714" type="line"/>
      <point x="126.5" y="746" type="line"/>
      <point x="184.68" y="746" type="line" smooth="yes"/>
      <point x="372.376" y="746"/>
      <point x="468.5" y="806.528"/>
      <point x="468.5" y="980.676" type="curve" smooth="yes"/>
      <point x="468.5" y="992.873" type="line" smooth="yes"/>
      <point x="468.5" y="1105.58"/>
      <point x="440" y="1174.37"/>
      <point x="367" y="1229.5" type="curve"/>
    </contour>
    <contour>
      <point x="122" y="642.591" type="line" smooth="yes"/>
      <point x="122" y="670.849"/>
      <point x="123" y="699.603"/>
      <point x="125.5" y="746" type="curve"/>
      <point x="157.5" y="732" type="line"/>
      <point x="157.5" y="633.854" type="line" smooth="yes"/>
      <point x="157.5" y="394.278"/>
      <point x="303.5" y="278"/>
      <point x="546.5" y="278" type="curve" smooth="yes"/>
      <point x="769.5" y="278"/>
      <point x="898.5" y="367"/>
      <point x="942.5" y="533" type="curve"/>
      <point x="946.5" y="473" type="line"/>
      <point x="943.5" y="473" type="line"/>
      <point x="907.5" y="339.5"/>
      <point x="786.5" y="243.5"/>
      <point x="546.5" y="243.5" type="curve" smooth="yes"/>
      <point x="276" y="243.5"/>
      <point x="122" y="376.916"/>
      <point x="122" y="633.6" type="curve" smooth="yes"/>
    </contour>
    <contour>
      <point x="224.5" y="-44" type="curve" smooth="yes"/>
      <point x="190" y="-44"/>
      <point x="176" y="-21"/>
      <point x="176" y="17" type="curve"/>
      <point x="176" y="18.9886"/>
      <point x="176" y="24.2774"/>
      <point x="176" y="26" type="curve"/>
      <point x="176" y="66"/>
      <point x="190" y="88"/>
      <point x="224.5" y="88" type="curve" smooth="yes"/>
      <point x="258" y="88"/>
      <point x="272" y="66"/>
      <point x="272" y="26" type="curve"/>
      <point x="272" y="24.0114"/>
      <point x="272" y="18.7226"/>
      <point x="272" y="17" type="curve"/>
      <point x="272" y="-21.5"/>
      <point x="258" y="-44"/>
    </contour>
  </outline>
</glyph>
<glyph name="vowelLruu.dv" format="2">
  <advance width="1330"/>
  <unicode hex="0961"/>
  <anchor x="1057" y="-358" name="bottom3"/>
  <anchor x="954.5" y="1241.5" name="top"/>
  <outline>
    <contour>
      <point x="1198.5" y="606" type="line"/>
      <point x="1198.5" y="578.5" type="line" smooth="yes"/>
      <point x="1198.5" y="434.958"/>
      <point x="1163.42" y="367.389"/>
      <point x="1049.25" y="271.523" type="curve" smooth="yes"/>
      <point x="951.132" y="189.135"/>
      <point x="885.5" y="141.605"/>
      <point x="885.5" y="51" type="curve" smooth="yes"/>
      <point x="885.5" y="-43.1483"/>
      <point x="952.756" y="-89"/>
      <point x="1054" y="-89" type="curve" smooth="yes"/>
      <point x="1124.27" y="-89"/>
      <point x="1181.91" y="-73"/>
      <point x="1233.5" y="-36" type="curve"/>
      <point x="1229.5" y="-75.5" type="line"/>
      <point x="1187.47" y="-107.331"/>
      <point x="1125.82" y="-122"/>
      <point x="1054" y="-122" type="curve" smooth="yes"/>
      <point x="934.215" y="-122"/>
      <point x="850.5" y="-63.1404"/>
      <point x="850.5" y="50.5" type="curve" smooth="yes"/>
      <point x="850.5" y="147.572"/>
      <point x="909.837" y="199.596"/>
      <point x="1022.78" y="296.014" type="curve" smooth="yes"/>
      <point x="1131.14" y="388.53"/>
      <point x="1163" y="443.968"/>
      <point x="1163" y="575.5" type="curve" smooth="yes"/>
      <point x="1163" y="602.5" type="line"/>
    </contour>
    <contour>
      <point x="1028" y="-118.5" type="line"/>
      <point x="938.186" y="-136.426"/>
      <point x="895" y="-188.771"/>
      <point x="895" y="-265.5" type="curve" smooth="yes"/>
      <point x="895" y="-358.818"/>
      <point x="968.195" y="-407.5"/>
      <point x="1073" y="-407.5" type="curve" smooth="yes"/>
      <point x="1141" y="-407.5"/>
      <point x="1198" y="-389.037"/>
      <point x="1249.5" y="-352" type="curve"/>
      <point x="1246" y="-393" type="line"/>
      <point x="1201" y="-423.513"/>
      <point x="1143" y="-441"/>
      <point x="1073" y="-441" type="curve" smooth="yes"/>
      <point x="945.701" y="-441"/>
      <point x="860" y="-381.322"/>
      <point x="860" y="-265.5" type="curve" smooth="yes"/>
      <point x="860" y="-180.777"/>
      <point x="909.668" y="-125.929"/>
      <point x="989" y="-105.5" type="curve"/>
      <point x="989" y="-99.5" type="line"/>
    </contour>
    <contour>
      <point x="805.5" y="1221" type="line"/>
      <point x="799" y="1250.5" type="line"/>
      <point x="1174.5" y="1250.5" type="line"/>
      <point x="1181" y="1221" type="line"/>
    </contour>
    <contour>
      <point x="971.5" y="1230.5" type="line"/>
      <point x="971.5" y="974.5" type="line"/>
      <point x="937.5" y="974" type="line"/>
      <point x="937.5" y="1230.5" type="line"/>
    </contour>
    <contour>
      <point x="-27" y="1221" type="line"/>
      <point x="-33.5" y="1251.5" type="line"/>
      <point x="1355.5" y="1251.5" type="line"/>
      <point x="1362" y="1221" type="line"/>
    </contour>
    <contour>
      <point x="972.5" y="1229" type="line"/>
      <point x="972.5" y="888.5" type="line"/>
      <point x="937.5" y="888.5" type="line"/>
      <point x="937.5" y="1229" type="line"/>
    </contour>
    <contour>
      <point x="143.5" y="485.257" type="curve" smooth="yes"/>
      <point x="143.5" y="550" type="line" smooth="yes"/>
      <point x="143.5" y="790.841"/>
      <point x="255.28" y="899.5"/>
      <point x="434.923" y="899.5" type="curve" smooth="yes"/>
      <point x="583.126" y="899.5"/>
      <point x="659.446" y="824"/>
      <point x="672.5" y="691.5" type="curve"/>
      <point x="675.5" y="691.5" type="line"/>
      <point x="690.5" y="824"/>
      <point x="787.533" y="899.5"/>
      <point x="934.427" y="899.5" type="curve" smooth="yes"/>
      <point x="1095.45" y="899.5"/>
      <point x="1198.5" y="799.87"/>
      <point x="1198.5" y="590.025" type="curve" smooth="yes"/>
      <point x="1198.5" y="580" type="line"/>
      <point x="1163" y="576.5" type="line"/>
      <point x="1163" y="588.542" type="line" smooth="yes"/>
      <point x="1163" y="780.905"/>
      <point x="1072.48" y="866"/>
      <point x="934.024" y="866" type="curve" smooth="yes"/>
      <point x="793.596" y="866"/>
      <point x="693.217" y="788.912"/>
      <point x="692" y="618.545" type="curve" smooth="yes"/>
      <point x="690" y="338.5" type="line"/>
      <point x="658" y="338.5" type="line"/>
      <point x="655.991" y="617.563" type="line" smooth="yes"/>
      <point x="654.772" y="786.95"/>
      <point x="576.188" y="865"/>
      <point x="435.978" y="865" type="curve" smooth="yes"/>
      <point x="277.305" y="865"/>
      <point x="180" y="770.945"/>
      <point x="180" y="549" type="curve" smooth="yes"/>
      <point x="180" y="487.205" type="line" smooth="yes"/>
      <point x="180" y="256.062"/>
      <point x="245.5" y="126.027"/>
      <point x="426" y="2.946" type="curve"/>
      <point x="426" y="0" type="line"/>
      <point x="373" y="0" type="line"/>
      <point x="214" y="111.007"/>
      <point x="143.5" y="250.771"/>
    </contour>
  </outline>
  <guideline angle="90" x="880" y="0"/>
</glyph>
